<?xml version="1.0" encoding="UTF-8"?>
<svg id="Layer_2" data-name="Layer 2" xmlns="http://www.w3.org/2000/svg" viewBox="0 0 435.88 366.68">
<style>
path, rect, circle, polygon, ellipse {
  fill: black;
}

@media (prefers-color-scheme: dark) {
  path, rect, circle, polygon, ellipse {
    fill: white;
  }
}
</style>
  <g id="Layer_1-2" data-name="Layer 1">
    <g>
      <path d="m32.57,5.97c53.55,48.02,128.74,127.16,180.41,178.59,51.15,52.35,129.03,127.86,176.86,182.11-53.5-48.07-128.76-127.14-180.41-178.59C158.3,135.71,80.35,60.27,32.57,5.97h0Z"/>
      <path d="m389.84,5.97c-47.51,54-125.93,129.95-176.86,182.11-51.86,51.65-126.62,130.25-180.41,178.59,47.56-53.95,125.9-129.97,176.86-182.11,51.89-51.63,126.57-130.3,180.41-178.59h0Z"/>
      <g>
        <g>
          <path d="m196.1,3.34l-3.97.78-.19-.68.91-.25c-.23-.18-.4-.39-.51-.64s-.17-.5-.17-.77c0-.48.17-.9.51-1.25.34-.35.79-.53,1.33-.53.48,0,.95.15,1.41.46l-.21.86c-.08-.06-.19-.13-.34-.19-.15-.06-.32-.09-.49-.09-.32,0-.58.1-.78.31-.2.21-.3.46-.3.75,0,.35.15.65.46.87l2.13-.57.23.95Zm-2.91,1.58h1.8v11.89h-1.8V4.92Z"/>
          <path d="m226.92,4.28h1.8v12.54h-1.8V4.28Z"/>
          <path d="m205.07,27.32v9.5h-7.43c-1.17,0-2.12-.09-2.85-.29-.73-.19-1.29-.52-1.66-1-.37-.48-.56-1.14-.56-1.99,0-.53.06-1.18.18-1.96.12-.77.26-1.51.41-2.2l1.77.36c-.17.74-.3,1.45-.4,2.15-.1.7-.15,1.25-.15,1.65,0,.47.08.82.25,1.04.16.23.47.39.93.47s1.15.13,2.09.13h5.62v-7.88h1.81Zm-6.88,11.02h1.73v1.86h-1.73v-1.86Z"/>
          <path d="m222.95,24.28h1.79v2.41c0,.8.14,1.38.42,1.74.28.36.74.54,1.39.54s1.11-.19,1.38-.58c.27-.39.41-.94.41-1.66v-2.45h1.79v2.51c0,1.18-.32,2.11-.95,2.79-.63.68-1.49,1.03-2.58,1.03-.85,0-1.46-.23-1.84-.7v6.92h-1.79v-12.54Z"/>
          <path d="m205.07,47.32v9.5h-7.43c-1.17,0-2.12-.09-2.85-.29-.73-.19-1.29-.52-1.66-1-.37-.48-.56-1.14-.56-1.99,0-.53.06-1.18.18-1.96.12-.77.26-1.51.41-2.2l1.77.36c-.17.74-.3,1.45-.4,2.15-.1.7-.15,1.25-.15,1.65,0,.47.08.82.25,1.04.16.23.47.39.93.47s1.15.13,2.09.13h5.62v-7.88h1.81Zm-8.21-1.84h1.73v1.86h-1.73v-1.86Zm2.66,0h1.71v1.86h-1.71v-1.86Z"/>
          <path d="m220.67,44.28h1.81v2.81c0,1.24.37,1.86,1.12,1.86s1.1-.6,1.1-1.8v-2.87h1.44v2.85c0,.57.08,1.02.25,1.34.16.32.46.48.89.48s.72-.16.88-.48c.16-.32.24-.77.24-1.34v-2.85h1.73v2.89c0,1.08-.23,1.92-.7,2.52s-1.17.9-2.09.9-1.61-.33-1.98-1.01c-.34.67-.89,1.01-1.63,1.01-.58,0-1.01-.21-1.27-.65v6.88h-1.79v-12.54Z"/>
          <path d="m205.07,67.32v9.5h-7.43c-1.17,0-2.12-.09-2.85-.29-.73-.19-1.29-.52-1.66-1-.37-.48-.56-1.14-.56-1.99,0-.53.06-1.18.18-1.96.12-.77.26-1.51.41-2.2l1.77.36c-.17.74-.3,1.45-.4,2.15-.1.7-.15,1.25-.15,1.65,0,.47.08.82.25,1.04.16.23.47.39.93.47s1.15.13,2.09.13h5.62v-7.88h1.81Zm-8.11-1.8h1.62v1.8h-1.62v-1.8Zm1.29-2.41h1.56v1.73h-1.56v-1.73Zm1.25,2.41h1.6v1.8h-1.6v-1.8Z"/>
          <path d="m229.77,75.2v1.62h-3.46c-.91,0-1.68-.21-2.31-.65-.63-.43-.94-1.01-.94-1.75,0-.66.29-1.35.87-2.06.58-.72,1.48-1.4,2.68-2.06-.66-.03-1.22-.19-1.69-.49-.47-.3-.82-.67-1.05-1.13s-.35-.93-.35-1.42c0-.58.17-1.11.51-1.57.34-.46.83-.82,1.47-1.07.64-.25,1.39-.38,2.25-.38.51,0,.99.05,1.44.15l-.19,1.46c-.68-.08-1.15-.11-1.39-.11-.68,0-1.24.16-1.68.47-.44.31-.66.73-.66,1.26,0,.46.16.86.47,1.23.31.36.74.54,1.28.54h1.94l-.15,1.37c-1.1.46-2.04.98-2.8,1.56-.77.58-1.15,1.18-1.15,1.79,0,.38.17.68.49.91.33.23.73.34,1.22.34h3.19Z"/>
          <path d="m194.12,98.56c0,.85.24,1.5.72,1.97.48.46,1.21.69,2.19.69.38,0,.89-.04,1.53-.1.64-.07,1.31-.17,2-.29l.21,1.41c-.65.15-1.34.29-2.09.41-.75.12-1.42.18-2.01.18-1.42,0-2.5-.38-3.25-1.14-.75-.76-1.12-1.84-1.12-3.23,0-1.28.33-2.25.99-2.9.66-.65,1.64-.98,2.95-.98.63,0,1.23.07,1.79.2.56.13,1,.29,1.33.47v-4.71c0-1.22-.61-1.82-1.84-1.82-.57,0-1.89.1-3.95.3l-.06-1.27c.7-.16,1.47-.31,2.32-.43.85-.12,1.55-.18,2.11-.18,1,0,1.79.24,2.36.73.57.49.85,1.31.85,2.48v6.48h-1.79c-.34-.16-.77-.31-1.28-.45s-1.02-.2-1.51-.2c-1.62,0-2.43.8-2.43,2.39Zm2.75-.46h1.6v1.8h-1.6v-1.8Z"/>
          <path d="m221.28,95.02c-.72-1.23-1.08-2.71-1.08-4.42s.34-3.13,1.03-4.45c.68-1.32,1.92-1.98,3.71-1.98s3.04.66,3.72,1.98c.68,1.32,1.03,2.8,1.03,4.45s-.36,3.18-1.08,4.42c-.72,1.24-1.94,1.85-3.67,1.85s-2.93-.62-3.65-1.85Zm5.92-1.15c.45-.92.67-2.02.67-3.29s-.21-2.34-.64-3.32c-.42-.99-1.19-1.48-2.31-1.48s-1.88.49-2.3,1.47-.63,2.09-.63,3.33.22,2.36.67,3.29c.44.92,1.2,1.39,2.26,1.39s1.82-.46,2.27-1.39Z"/>
          <path d="m194.12,118.56c0,.85.24,1.5.72,1.97.48.46,1.21.69,2.19.69.38,0,.89-.04,1.53-.1.64-.07,1.31-.17,2-.29l.21,1.41c-.65.15-1.34.29-2.09.41-.75.12-1.42.18-2.01.18-1.42,0-2.5-.38-3.25-1.14-.75-.76-1.12-1.84-1.12-3.23,0-1.28.33-2.25.99-2.9.66-.65,1.64-.98,2.95-.98.63,0,1.23.07,1.79.2.56.13,1,.29,1.33.47v-4.71c0-1.22-.61-1.82-1.84-1.82-.57,0-1.89.1-3.95.3l-.06-1.27c.7-.16,1.47-.31,2.32-.43.85-.12,1.55-.18,2.11-.18,1,0,1.79.24,2.36.73.57.49.85,1.31.85,2.48v6.48h-1.79c-.34-.16-.77-.31-1.28-.45s-1.02-.2-1.51-.2c-1.62,0-2.43.8-2.43,2.39Z"/>
          <path d="m226.98,105.93h-4.31v-1.65h6.1v12.54h-1.79v-10.89Z"/>
          <path d="m194.12,138.56c0,.85.24,1.5.72,1.97.48.46,1.21.69,2.19.69.38,0,.89-.04,1.53-.1.64-.07,1.31-.17,2-.29l.21,1.41c-.65.15-1.34.29-2.09.41-.75.12-1.42.18-2.01.18-1.42,0-2.5-.38-3.25-1.14-.75-.76-1.12-1.84-1.12-3.23,0-1.28.33-2.25.99-2.9.66-.65,1.64-.98,2.95-.98.63,0,1.23.07,1.79.2.56.13,1,.29,1.33.47v-4.71c0-1.22-.61-1.82-1.84-1.82-.57,0-1.89.1-3.95.3l-.06-1.27c.7-.16,1.47-.31,2.32-.43.85-.12,1.55-.18,2.11-.18,1,0,1.79.24,2.36.73.57.49.85,1.31.85,2.48v6.48h-1.79c-.34-.16-.77-.31-1.28-.45s-1.02-.2-1.51-.2c-1.62,0-2.43.8-2.43,2.39Zm1.98-14.88h1.73v1.86h-1.73v-1.86Z"/>
          <path d="m220.04,124.39h2.01c.61,2.03,1.23,4.15,1.88,6.37.65,2.22,1.06,3.68,1.24,4.38h.04c.2-.77.69-2.43,1.46-4.96.77-2.53,1.37-4.46,1.79-5.79h1.94l-4.18,12.43h-2.15l-4.03-12.43Z"/>
        </g>
        <g>
          <path d="m212.14,237.89h-9.71v.76c0,.77-.21,1.46-.64,2.06-.42.6-1.02,1.07-1.78,1.4-.76.33-1.62.49-2.58.49-1.06,0-1.98-.19-2.75-.58-.77-.39-1.36-.9-1.77-1.53-.41-.63-.61-1.31-.61-2.03,0-.84.26-2.77.78-5.79l1.73.09c-.18,1.1-.34,2.18-.5,3.23-.16,1.05-.24,1.75-.24,2.11,0,.52.14,1,.42,1.44.28.44.67.79,1.17,1.05s1.07.39,1.7.39,1.16-.12,1.66-.35c.5-.23.89-.56,1.18-.97.29-.41.43-.87.43-1.38v-9.9h1.8v3.04c.57-.71,1.09-1.29,1.55-1.73.46-.44,1-.8,1.62-1.08.62-.28,1.34-.42,2.15-.42,1.6,0,2.73.49,3.39,1.47.67.98,1,2.13,1,3.45v4.77Zm-9.71-4.18v2.56h7.9v-2.85c0-1.03-.25-1.88-.74-2.57s-1.2-1.04-2.13-1.04c-1.74,0-3.41,1.3-5.04,3.9Zm3.25-8.95h1.73v1.86h-1.73v-1.86Z"/>
          <path d="m226.92,225.35h1.8v12.54h-1.8v-12.54Z"/>
          <path d="m203.44,249.68c.67.98,1,2.13,1,3.45v4.77h-12.52v-1.62h1.03v-11.91h1.79v7.07c.57-.71,1.09-1.29,1.55-1.73.46-.44,1-.8,1.62-1.08.62-.28,1.34-.42,2.15-.42,1.6,0,2.73.49,3.39,1.47Zm-8.71,4.04v2.56h7.92v-2.85c0-1.03-.25-1.88-.74-2.57s-1.21-1.04-2.15-1.04c-1.74,0-3.41,1.3-5.03,3.9Z"/>
          <path d="m222.95,245.35h1.79v2.41c0,.8.14,1.38.42,1.74.28.36.74.54,1.39.54s1.11-.19,1.38-.58c.27-.39.41-.94.41-1.66v-2.45h1.79v2.51c0,1.18-.32,2.11-.95,2.79-.63.68-1.49,1.03-2.58,1.03-.85,0-1.46-.23-1.84-.7v6.92h-1.79v-12.54Z"/>
          <path d="m203.44,269.68c.67.98,1,2.13,1,3.45v4.77h-12.52v-1.62h1.03v-11.91h1.79v7.07c.57-.71,1.09-1.29,1.55-1.73.46-.44,1-.8,1.62-1.08.62-.28,1.34-.42,2.15-.42,1.6,0,2.73.49,3.39,1.47Zm-8.71,4.04v2.56h7.92v-2.85c0-1.03-.25-1.88-.74-2.57s-1.21-1.04-2.15-1.04c-1.74,0-3.41,1.3-5.03,3.9Zm2.94-8.95h1.73v1.86h-1.73v-1.86Z"/>
          <path d="m220.67,265.35h1.81v2.81c0,1.24.37,1.86,1.12,1.86s1.1-.6,1.1-1.8v-2.87h1.44v2.85c0,.57.08,1.02.25,1.34.16.32.46.48.89.48s.72-.16.88-.48c.16-.32.24-.77.24-1.34v-2.85h1.73v2.89c0,1.08-.23,1.92-.7,2.52s-1.17.9-2.09.9-1.61-.33-1.98-1.01c-.34.67-.89,1.01-1.63,1.01-.58,0-1.01-.21-1.27-.65v6.88h-1.79v-12.54Z"/>
          <path d="m198.52,302.21c.61-.06,1.26-.16,1.93-.29l.21,1.41c-.61.15-1.28.29-2.01.4-.74.11-1.39.17-1.98.17-1.42,0-2.5-.38-3.25-1.14-.75-.76-1.12-1.84-1.12-3.25,0-.81.16-1.53.47-2.17.31-.63.84-1.1,1.59-1.39-.28-.44-.49-.94-.64-1.49-.15-.55-.22-1.13-.22-1.74,0-.91.18-1.71.53-2.4.35-.69.85-1.22,1.48-1.59.63-.37,1.35-.55,2.15-.55.47,0,.97.06,1.52.18s1.04.29,1.48.5l-.08,1.63c-.27-.15-.67-.3-1.22-.46-.54-.15-1.05-.23-1.52-.23-.77,0-1.39.25-1.84.76-.46.51-.68,1.25-.68,2.24,0,1.15.33,2.1,1.01,2.83.65.01,1.25.09,1.8.22s.99.28,1.31.45v1.58c-.32-.16-.76-.31-1.32-.45-.56-.13-1.1-.2-1.61-.2-.77,0-1.37.2-1.79.59s-.63.99-.63,1.8.24,1.5.71,1.97c.48.46,1.21.69,2.21.69.38,0,.88-.03,1.49-.09Z"/>
          <path d="m229.77,296.28v1.62h-3.46c-.91,0-1.68-.21-2.31-.65-.63-.43-.94-1.01-.94-1.75,0-.66.29-1.35.87-2.06.58-.72,1.48-1.4,2.68-2.06-.66-.03-1.22-.19-1.69-.49-.47-.3-.82-.67-1.05-1.13s-.35-.93-.35-1.42c0-.58.17-1.11.51-1.57.34-.46.83-.82,1.47-1.07.64-.25,1.39-.38,2.25-.38.51,0,.99.05,1.44.15l-.19,1.46c-.68-.08-1.15-.11-1.39-.11-.68,0-1.24.16-1.68.47-.44.31-.66.73-.66,1.26,0,.46.16.86.47,1.23.31.36.74.54,1.28.54h1.94l-.15,1.37c-1.1.46-2.04.98-2.8,1.56-.77.58-1.15,1.18-1.15,1.79,0,.38.17.68.49.91.33.23.73.34,1.22.34h3.19Z"/>
          <path d="m198.52,322.21c.61-.06,1.26-.16,1.93-.29l.21,1.41c-.61.15-1.28.29-2.01.4-.74.11-1.39.17-1.98.17-1.42,0-2.5-.38-3.25-1.14-.75-.76-1.12-1.84-1.12-3.25,0-.81.16-1.53.47-2.17.31-.63.84-1.1,1.59-1.39-.28-.44-.49-.94-.64-1.49-.15-.55-.22-1.13-.22-1.74,0-.91.18-1.71.53-2.4.35-.69.85-1.22,1.48-1.59.63-.37,1.35-.55,2.15-.55.47,0,.97.06,1.52.18s1.04.29,1.48.5l-.08,1.63c-.27-.15-.67-.3-1.22-.46-.54-.15-1.05-.23-1.52-.23-.77,0-1.39.25-1.84.76-.46.51-.68,1.25-.68,2.24,0,1.15.33,2.1,1.01,2.83.65.01,1.25.09,1.8.22s.99.28,1.31.45v1.58c-.32-.16-.76-.31-1.32-.45-.56-.13-1.1-.2-1.61-.2-.77,0-1.37.2-1.79.59s-.63.99-.63,1.8.24,1.5.71,1.97c.48.46,1.21.69,2.21.69.38,0,.88-.03,1.49-.09Zm-2.1-17.44h1.73v1.86h-1.73v-1.86Z"/>
          <path d="m221.28,316.1c-.72-1.23-1.08-2.71-1.08-4.42s.34-3.13,1.03-4.45c.68-1.32,1.92-1.98,3.71-1.98s3.04.66,3.72,1.98c.68,1.32,1.03,2.8,1.03,4.45s-.36,3.18-1.08,4.42c-.72,1.24-1.94,1.85-3.67,1.85s-2.93-.62-3.65-1.85Zm5.92-1.15c.45-.92.67-2.02.67-3.29s-.21-2.34-.64-3.32c-.42-.99-1.19-1.48-2.31-1.48s-1.88.49-2.3,1.47-.63,2.09-.63,3.33.22,2.36.67,3.29c.44.92,1.2,1.39,2.26,1.39s1.82-.46,2.27-1.39Z"/>
          <path d="m208.98,328.62v9.27h-11.61c-1.18,0-2.13-.09-2.86-.29-.73-.19-1.28-.52-1.65-1-.37-.48-.56-1.14-.56-2,0-.53.06-1.19.18-1.97.12-.78.26-1.51.43-2.19l1.75.36c-.17.68-.3,1.38-.4,2.1s-.15,1.28-.15,1.7c0,.47.08.82.25,1.05.17.23.47.4.92.48s1.15.13,2.1.13h3.95c-.25-.63-.38-1.58-.38-2.83s.14-2.26.41-2.98c.27-.72.73-1.25,1.39-1.58s1.55-.49,2.71-.49c.86,0,2.04.08,3.53.23Zm-1.81,7.66v-6.19c-.63-.04-1.21-.06-1.73-.06-.77,0-1.34.08-1.71.25-.37.17-.62.48-.77.96-.15.47-.22,1.21-.22,2.21,0,.89.04,1.52.13,1.9s.25.63.49.75c.24.12.63.18,1.18.18h2.62Zm-2.56-11.51h1.73v1.86h-1.73v-1.86Z"/>
          <path d="m226.98,327.01h-4.31v-1.65h6.1v12.54h-1.79v-10.89Z"/>
          <path d="m206.84,348.62v9.98c0,.8-.18,1.51-.53,2.15-.35.63-.88,1.13-1.58,1.49-.7.36-1.53.54-2.51.54h-5.34c-.98,0-1.81-.18-2.5-.54-.69-.36-1.21-.86-1.56-1.49-.35-.63-.52-1.36-.52-2.17,0-1.05.24-2.9.72-5.55l1.77.27c-.2,1.1-.37,2.14-.49,3.11-.13.97-.19,1.69-.19,2.17,0,.85.23,1.49.7,1.93.47.44,1.16.66,2.07.66h5.34c.91,0,1.61-.22,2.09-.66.48-.44.72-1.07.72-1.91v-.7h-2.62c-.91,0-1.62-.12-2.14-.36-.51-.24-.89-.68-1.12-1.31s-.35-1.56-.35-2.77.14-2.26.41-2.98c.27-.72.74-1.25,1.39-1.58s1.55-.49,2.71-.49c.86,0,2.04.08,3.53.23Zm-1.8,7.66v-6.19c-.63-.04-1.21-.06-1.73-.06-.77,0-1.34.08-1.71.25-.37.17-.62.48-.77.96-.15.47-.22,1.21-.22,2.21,0,.89.04,1.52.13,1.9.09.38.25.63.49.75.24.12.63.18,1.18.18h2.62Zm-3.65-11.5h1.73v1.86h-1.73v-1.86Zm2.66,0h1.71v1.86h-1.71v-1.86Z"/>
          <path d="m220.04,345.47h2.01c.61,2.03,1.23,4.15,1.88,6.37.65,2.22,1.06,3.68,1.24,4.38h.04c.2-.77.69-2.43,1.46-4.96.77-2.53,1.37-4.46,1.79-5.79h1.94l-4.18,12.43h-2.15l-4.03-12.43Z"/>
        </g>
      </g>
      <g>
        <g>
          <g>
            <path d="m431.02,162.88h1.8v13.53h-1.8v-13.53Z"/>
            <path d="m433.44,187.14c.74.44,1.33,1.14,1.78,2.1.44.96.67,2.2.67,3.71v3.46h-7.94v-1.62h6.16v-1.75c0-1.8-.35-3.07-1.04-3.81-.7-.74-1.51-1.11-2.45-1.11h-1.65l-.13-1.35c.19-.06.5-.13.93-.19.43-.06.84-.09,1.22-.09.91,0,1.74.22,2.48.66Z"/>
          </g>
          <g>
            <path d="m402.59,163.88h1.79v2.41c0,.8.14,1.38.42,1.74.28.36.74.54,1.39.54s1.11-.19,1.38-.58c.27-.39.41-.94.41-1.66v-2.45h1.79v2.51c0,1.18-.32,2.11-.95,2.79-.63.68-1.49,1.03-2.58,1.03-.85,0-1.46-.23-1.84-.7v6.92h-1.79v-12.54Z"/>
            <path d="m407,187.16c.74.44,1.33,1.14,1.78,2.1.44.96.67,2.2.67,3.71v3.46h-7.94v-1.62h6.16v-1.75c0-1.8-.35-3.07-1.04-3.81-.7-.74-1.51-1.11-2.45-1.11h-1.65l-.13-1.35c.19-.06.5-.13.93-.19.43-.06.84-.09,1.22-.09.91,0,1.74.22,2.48.66Zm-4.06-4.38h1.73v1.86h-1.73v-1.86Z"/>
          </g>
          <g>
            <path d="m374.99,163.89h1.81v2.81c0,1.24.37,1.86,1.12,1.86s1.1-.6,1.1-1.8v-2.87h1.44v2.85c0,.57.08,1.02.25,1.34.16.32.46.48.89.48s.72-.16.88-.48c.16-.32.24-.77.24-1.34v-2.85h1.73v2.89c0,1.08-.23,1.92-.7,2.52s-1.17.9-2.09.9-1.61-.33-1.98-1.01c-.34.67-.89,1.01-1.63,1.01-.58,0-1.01-.21-1.27-.65v6.88h-1.79v-12.54Z"/>
            <path d="m377.38,201.13c-.17-.01-.32-.03-.45-.04l-.4-.04v-1.6c.58.05.94.08,1.06.08.56,0,.98-.22,1.26-.67.28-.45.43-1.07.43-1.87v-10.05h1.79v9.69c0,3.01-1.04,4.52-3.13,4.52-.2,0-.39,0-.56-.02Z"/>
          </g>
          <g>
            <path d="m356.08,174.83v1.62h-3.46c-.91,0-1.68-.21-2.31-.65-.63-.43-.94-1.01-.94-1.75,0-.66.29-1.35.87-2.06.58-.72,1.48-1.4,2.68-2.06-.66-.03-1.22-.19-1.69-.49-.47-.3-.82-.67-1.05-1.13s-.35-.93-.35-1.42c0-.58.17-1.11.51-1.57.34-.46.83-.82,1.47-1.07.64-.25,1.39-.38,2.25-.38.51,0,.99.05,1.44.15l-.19,1.46c-.68-.08-1.15-.11-1.39-.11-.68,0-1.24.16-1.68.47-.44.31-.66.73-.66,1.26,0,.46.16.86.47,1.23.31.36.74.54,1.28.54h1.94l-.15,1.37c-1.1.46-2.04.98-2.8,1.56-.77.58-1.15,1.18-1.15,1.79,0,.38.17.68.49.91.33.23.73.34,1.22.34h3.19Z"/>
            <path d="m350.94,201.14c-.17-.01-.32-.03-.45-.04l-.4-.04v-1.6c.58.05.94.08,1.06.08.56,0,.98-.22,1.26-.67.28-.45.43-1.07.43-1.87v-10.05h1.79v9.69c0,3.01-1.04,4.52-3.13,4.52-.2,0-.39,0-.56-.02Zm1.93-17.82h1.73v1.86h-1.73v-1.86Z"/>
          </g>
          <g>
            <path d="m322.53,174.66c-.72-1.23-1.08-2.71-1.08-4.42s.34-3.13,1.03-4.45c.68-1.32,1.92-1.98,3.71-1.98s3.04.66,3.72,1.98c.68,1.32,1.03,2.8,1.03,4.45s-.36,3.18-1.08,4.42c-.72,1.24-1.94,1.85-3.67,1.85s-2.93-.62-3.65-1.85Zm5.92-1.15c.45-.92.67-2.02.67-3.29s-.21-2.34-.64-3.32c-.42-.99-1.19-1.48-2.31-1.48s-1.88.49-2.3,1.47-.63,2.09-.63,3.33.22,2.36.67,3.29c.44.92,1.2,1.39,2.26,1.39s1.82-.46,2.27-1.39Z"/>
            <path d="m335.7,189.29c.11.83.17,1.46.17,1.89v5.28h-3.65c-.77,0-1.48-.25-2.13-.76-.47.51-1.08.76-1.82.76h-2.15v.76c0,.77-.21,1.46-.64,2.06-.42.6-1.02,1.07-1.78,1.4-.76.33-1.63.49-2.6.49-1.06,0-1.98-.19-2.75-.58-.77-.39-1.36-.9-1.76-1.54-.4-.64-.6-1.33-.6-2.06,0-.81.26-2.73.78-5.76l1.73.09c-.49,2.82-.74,4.6-.74,5.34,0,.52.14,1,.41,1.44.27.44.66.79,1.16,1.04.5.25,1.07.38,1.72.38.61,0,1.16-.12,1.66-.35.5-.23.89-.55,1.18-.96s.43-.86.43-1.37v-8.95h1.8v6.93h1.56c.56,0,.97-.23,1.23-.7.26-.47.39-1.06.39-1.77v-4.46h1.79v4.45c0,.73-.08,1.37-.25,1.92.18.15.4.28.66.4.26.11.52.17.77.17h1.82v-3.67c0-.89-.1-2.27-.3-4.16l1.52-.06c.15.72.28,1.5.4,2.33Z"/>
          </g>
          <g>
            <path d="m300.15,165.58h-4.31v-1.65h6.1v12.54h-1.79v-10.89Z"/>
            <path d="m309.26,189.3c.11.83.17,1.46.17,1.89v5.28h-3.65c-.77,0-1.48-.25-2.13-.76-.47.51-1.08.76-1.82.76h-2.15v.76c0,.77-.21,1.46-.64,2.06-.42.6-1.02,1.07-1.78,1.4-.76.33-1.63.49-2.6.49-1.06,0-1.98-.19-2.75-.58-.77-.39-1.36-.9-1.76-1.54-.4-.64-.6-1.33-.6-2.06,0-.81.26-2.73.78-5.76l1.73.09c-.49,2.82-.74,4.6-.74,5.34,0,.52.14,1,.41,1.44.27.44.66.79,1.16,1.04.5.25,1.07.38,1.72.38.61,0,1.16-.12,1.66-.35.5-.23.89-.55,1.18-.96s.43-.86.43-1.37v-8.95h1.8v6.93h1.56c.56,0,.97-.23,1.23-.7.26-.47.39-1.06.39-1.77v-4.46h1.79v4.45c0,.73-.08,1.37-.25,1.92.18.15.4.28.66.4.26.11.52.17.77.17h1.82v-3.67c0-.89-.1-2.27-.3-4.16l1.52-.06c.15.72.28,1.5.4,2.33Zm-7.6-5.9h1.61v1.81h-1.61v-1.81Zm1.29-2.41h1.56v1.73h-1.56v-1.73Zm1.25,2.41h1.6v1.81h-1.6v-1.81Z"/>
          </g>
          <g>
            <path d="m268.12,164.06h2.01c.61,2.03,1.23,4.15,1.88,6.37.65,2.22,1.06,3.68,1.24,4.38h.04c.2-.77.69-2.43,1.46-4.96.77-2.53,1.37-4.46,1.79-5.79h1.94l-4.18,12.43h-2.15l-4.03-12.43Z"/>
            <path d="m283.04,196.48h-9.71v.76c0,.77-.21,1.46-.64,2.06-.42.6-1.02,1.07-1.78,1.4-.76.33-1.62.49-2.58.49-1.06,0-1.98-.19-2.75-.58-.77-.39-1.36-.9-1.77-1.53-.41-.63-.61-1.31-.61-2.03,0-.84.26-2.77.78-5.79l1.73.09c-.18,1.1-.34,2.18-.5,3.23-.16,1.05-.24,1.75-.24,2.11,0,.52.14,1,.42,1.44.28.44.67.79,1.17,1.05s1.07.39,1.7.39,1.16-.12,1.66-.35c.5-.23.89-.56,1.18-.97.29-.41.43-.87.43-1.38v-9.9h1.8v3.04c.57-.71,1.09-1.29,1.55-1.73.46-.44,1-.8,1.62-1.08.62-.28,1.34-.42,2.15-.42,1.6,0,2.73.49,3.39,1.47.67.98,1,2.13,1,3.45v4.77Zm-9.71-4.18v2.56h7.9v-2.85c0-1.03-.25-1.88-.74-2.57s-1.2-1.04-2.13-1.04c-1.74,0-3.41,1.3-5.04,3.9Z"/>
          </g>
        </g>
        <g>
          <g>
            <path d="m165.17,164.1h1.8v13.53h-1.8v-13.53Z"/>
            <path d="m171.8,184.1v13.53h-7.09c-1.17,0-2.12-.09-2.85-.29-.74-.19-1.29-.52-1.66-1-.37-.48-.56-1.14-.56-1.99,0-.8.16-2,.48-3.61l1.48.08-.08.61c-.18,1.19-.27,2.03-.27,2.51,0,.73.24,1.26.73,1.59s1.37.48,2.63.48h5.38v-11.91h1.8Zm-4.18,6.08l-3.97.78-.19-.68.91-.25c-.23-.18-.4-.39-.51-.64-.11-.25-.17-.5-.17-.77,0-.48.17-.9.51-1.25s.79-.53,1.33-.53c.48,0,.95.15,1.41.46l-.21.85c-.08-.06-.19-.13-.34-.19-.15-.06-.32-.09-.49-.09-.32,0-.58.1-.78.31-.2.21-.3.46-.3.75,0,.35.15.65.46.87l2.13-.57.23.95Z"/>
          </g>
          <g>
            <path d="m136.74,165.1h1.79v2.41c0,.8.14,1.38.42,1.74.28.36.74.54,1.39.54s1.11-.19,1.38-.58c.27-.39.41-.94.41-1.66v-2.45h1.79v2.51c0,1.18-.32,2.11-.95,2.79-.63.68-1.49,1.03-2.58,1.03-.85,0-1.46-.23-1.84-.7v6.92h-1.79v-12.54Z"/>
            <path d="m144.28,184.11v14.14c0,.84-.22,1.56-.66,2.18-.44.62-1.03,1.1-1.79,1.42s-1.59.49-2.52.49c-.98,0-1.86-.18-2.64-.54-.79-.36-1.4-.86-1.85-1.49-.45-.63-.67-1.34-.67-2.13,0-.87.25-2.79.74-5.76l1.77.29c-.2,1.25-.37,2.39-.5,3.4-.13,1.01-.2,1.7-.2,2.07,0,.48.14.92.42,1.3.28.39.67.69,1.19.91.51.22,1.1.33,1.76.33.99,0,1.76-.22,2.32-.67.56-.45.84-1.05.84-1.81v-14.14h1.8Z"/>
          </g>
          <g>
            <path d="m109.15,165.11h1.81v2.81c0,1.24.37,1.86,1.12,1.86s1.1-.6,1.1-1.8v-2.87h1.44v2.85c0,.57.08,1.02.25,1.34.16.32.46.48.89.48s.72-.16.88-.48c.16-.32.24-.77.24-1.34v-2.85h1.73v2.89c0,1.08-.23,1.92-.7,2.52s-1.17.9-2.09.9-1.61-.33-1.98-1.01c-.34.67-.89,1.01-1.63,1.01-.58,0-1.01-.21-1.27-.65v6.88h-1.79v-12.54Z"/>
            <path d="m117.01,189.12c.72.77,1.07,2.03,1.07,3.78v4.75h-6.14c-1.41,0-2.11.87-2.11,2.6,0,.41.03.84.09,1.29.06.46.17,1.14.32,2.05l.09.57h-1.77c-.37-1.72-.55-3.03-.55-3.91s.16-1.63.48-2.28c.32-.65.79-1.13,1.4-1.46-.24-1.2-.36-2.38-.36-3.53,0-.8.06-1.61.17-2.42.11-.82.24-1.5.38-2.04.34-.14.81-.27,1.42-.38.6-.11,1.25-.17,1.95-.17,1.65,0,2.83.39,3.54,1.16Zm-5.06,6.92h4.33v-3.13c0-.91-.08-1.6-.24-2.06-.16-.46-.44-.79-.84-.97-.4-.18-.98-.28-1.74-.28-.66,0-1.26.05-1.81.15-.2,1.19-.3,2.27-.3,3.23,0,.48.03,1,.08,1.57s.12,1.06.21,1.49h.3Z"/>
          </g>
          <g>
            <path d="m90.23,176.05v1.62h-3.46c-.91,0-1.68-.21-2.31-.65-.63-.43-.94-1.01-.94-1.75,0-.66.29-1.35.87-2.06.58-.72,1.48-1.4,2.68-2.06-.66-.03-1.22-.19-1.69-.49-.47-.3-.82-.67-1.05-1.13s-.35-.93-.35-1.42c0-.58.17-1.11.51-1.57.34-.46.83-.82,1.47-1.07.64-.25,1.39-.38,2.25-.38.51,0,.99.05,1.44.15l-.19,1.46c-.68-.08-1.15-.11-1.39-.11-.68,0-1.24.16-1.68.47-.44.31-.66.73-.66,1.26,0,.46.16.86.47,1.23.31.36.74.54,1.28.54h1.94l-.15,1.37c-1.1.46-2.04.98-2.8,1.56-.77.58-1.15,1.18-1.15,1.79,0,.38.17.68.49.91.33.23.73.34,1.22.34h3.19Z"/>
            <path d="m91.67,188.17v10.11c0,.84-.22,1.56-.66,2.18-.44.62-1.03,1.1-1.79,1.42s-1.59.49-2.52.49c-.98,0-1.86-.18-2.64-.54-.79-.36-1.4-.86-1.85-1.49-.45-.63-.67-1.34-.67-2.13,0-.87.25-2.79.74-5.76l1.77.29c-.2,1.25-.37,2.39-.5,3.4-.13,1.01-.2,1.7-.2,2.07,0,.48.14.92.42,1.3.28.39.67.69,1.19.91.51.22,1.1.33,1.76.33.99,0,1.76-.22,2.32-.67.56-.45.84-1.05.84-1.81v-10.11h1.8Zm-5.78-1.86h1.73v1.86h-1.73v-1.86Z"/>
          </g>
          <g>
            <path d="m56.69,175.88c-.72-1.23-1.08-2.71-1.08-4.42s.34-3.13,1.03-4.45c.68-1.32,1.92-1.98,3.71-1.98s3.04.66,3.72,1.98c.68,1.32,1.03,2.8,1.03,4.45s-.36,3.18-1.08,4.42c-.72,1.24-1.94,1.85-3.67,1.85s-2.93-.62-3.65-1.85Zm5.92-1.15c.45-.92.67-2.02.67-3.29s-.21-2.34-.64-3.32c-.42-.99-1.19-1.48-2.31-1.48s-1.88.49-2.3,1.47-.63,2.09-.63,3.33.22,2.36.67,3.29c.44.92,1.2,1.39,2.26,1.39s1.82-.46,2.27-1.39Z"/>
            <path d="m50.26,196.86l.19-.8h5.13l.19.8-.19.82h-5.13l-.19-.82Z"/>
            <path d="m65.91,187.84c.94.46,1.69,1.17,2.24,2.15.55.98.83,2.2.83,3.69v4.01h-13.78l-.19-.82.19-.8h2.32v-1.18c0-.63.16-1.23.48-1.78s.76-.99,1.3-1.32c.54-.33,1.15-.49,1.8-.49s1.26.16,1.81.48c.54.32.97.76,1.29,1.31.32.55.47,1.15.47,1.8v1.18h2.49v-2.38c0-1.82-.47-3.1-1.42-3.83s-2.09-1.09-3.45-1.09c-.87,0-2.25.17-4.14.51l-.13-1.41c1.8-.48,3.34-.72,4.64-.72,1.22,0,2.29.23,3.24.68Zm-6.07,5.62c-.34.35-.51.79-.51,1.31v1.29h3.57v-1.31c0-.51-.17-.94-.51-1.29s-.77-.53-1.27-.53-.93.18-1.27.53Z"/>
          </g>
          <g>
            <path d="m34.3,166.8h-4.31v-1.65h6.1v12.54h-1.79v-10.89Z"/>
            <path d="m37.75,188.19v8.32c0,2.01-.25,3.5-.75,4.46s-1.37,1.43-2.59,1.43c-.33,0-.82-.03-1.46-.08-.65-.06-1.23-.12-1.77-.2v-1.6c1.66.18,2.74.27,3.23.27s.84-.23,1.08-.68c.24-.46.39-1.26.44-2.41h-2.53c-1.41,0-2.37-.43-2.89-1.29s-.78-2-.78-3.42c0-1.89.37-3.23,1.1-4.02.73-.79,1.86-1.19,3.38-1.19.96,0,2.14.14,3.53.42Zm-6.04,6.67c.11.44.3.76.57.94.27.18.64.28,1.12.28h2.55v-6.54c-.57-.1-1.15-.15-1.73-.15-.7,0-1.24.1-1.62.31s-.65.57-.82,1.08c-.16.51-.25,1.24-.25,2.19,0,.81.06,1.44.17,1.88Z"/>
          </g>
          <g>
            <path d="m2.27,165.28h2.01c.61,2.03,1.23,4.15,1.88,6.37.65,2.22,1.06,3.68,1.24,4.38h.04c.2-.77.69-2.43,1.46-4.96.77-2.53,1.37-4.46,1.79-5.79h1.94l-4.18,12.43h-2.15l-4.03-12.43Z"/>
            <path d="m2.63,201.91c-.79-.34-1.43-.82-1.91-1.46-.48-.64-.72-1.38-.72-2.23,0-.76.17-2.12.49-4.07l1.69.27c-.25,1.75-.38,2.9-.38,3.46s.15,1.08.44,1.52c.29.44.69.79,1.19,1.04s1.05.37,1.66.37h5.07c.85,0,1.49-.25,1.92-.76s.65-1.21.65-2.11c0-.63-.2-1.12-.61-1.46-.41-.34-1.11-.63-2.13-.85-1.03-.24-1.83-.51-2.4-.81s-1-.68-1.26-1.15-.4-1.08-.4-1.82c0-1.2.36-2.11,1.09-2.72.73-.61,1.8-.91,3.2-.91.52,0,1.08.03,1.67.09.59.06,1.39.17,2.39.32l-.15,1.5c-1.84-.21-3.09-.32-3.76-.32-1.74,0-2.6.63-2.6,1.9,0,.47.1.84.29,1.1.2.27.5.48.92.65s1.08.36,1.98.59,1.61.49,2.12.8c.51.3.89.69,1.12,1.17.23.47.35,1.07.35,1.79,0,1.46-.37,2.59-1.11,3.4-.74.81-1.79,1.22-3.16,1.22h-5.09c-.91,0-1.76-.17-2.56-.5Zm2.5,1.87h1.73v1.86h-1.73v-1.86Zm2.66,0h1.71v1.86h-1.71v-1.86Z"/>
          </g>
        </g>
      </g>
    </g>
  </g>
</svg>