<?xml version="1.0" encoding="UTF-8"?>
<svg id="Layer_2" data-name="Layer 2" xmlns="http://www.w3.org/2000/svg" viewBox="0 0 415.97 461">
<style>
path, rect, circle, polygon, ellipse {
  fill: black;
}

@media (prefers-color-scheme: dark) {
  path, rect, circle, polygon, ellipse {
    fill: white;
  }
}
</style>
  <g id="Layer_1-2" data-name="Layer 1">
    <g id="To_Do" data-name="To Do">
      <polygon points="70.19 0 70.19 0 70.19 0 70.19 0"/>
    </g>
    <g>
      <path d="m194.16,139.31v26.22h26.22v-26.22h-26.22Zm18.98,21.24h-4.89l-3.66-12.06h-.21v12.06h-2.97v-14.64h5.02l3.53,12.06h.22v-12.06h2.97v14.64Z" fill="#a7a9ac"/>
      <path d="m90.99,240.62v26.22h26.22v-26.22h-26.22Zm19.91,20.05h-4.5l-2.3-11.13-2.3,11.13h-4.5l-2.8-14.64h3.12l1.81,12.1h.32l2.63-12.1h3.45l2.63,12.1h.32l1.81-12.1h3.12l-2.8,14.64Z" fill="#a7a9ac"/>
      <path d="m293.72,240.62v26.22h26.22v-26.22h-26.22Zm17.93,7.99h-6.5v3.42h5.21v2.54h-5.21v3.51h6.5v2.58h-9.47v-14.64h9.47v2.58Z" fill="#a7a9ac"/>
      <path d="m251.93,318.55v26.22h43.92v-26.22h-43.92Zm18.86,18.98c-.91.8-2.14,1.21-3.69,1.21-1.12,0-2.49-.17-4.11-.52l-.78-.15.3-2.3c1.92.26,3.39.39,4.41.39,1.52,0,2.28-.63,2.28-1.89,0-.52-.2-.9-.6-1.14-.4-.24-1.08-.5-2.02-.78-1.13-.32-2.03-.67-2.68-1.05-.65-.39-1.13-.85-1.42-1.38-.29-.53-.44-1.19-.44-1.98,0-1.44.44-2.52,1.31-3.25.88-.73,2.1-1.1,3.68-1.1.62,0,1.26.04,1.92.12.66.08,1.63.23,2.91.46l-.24,2.35c-1.97-.23-3.39-.34-4.29-.34-1.56,0-2.35.52-2.35,1.55,0,.36.13.65.39.88s.58.42.97.57c.39.15,1.04.37,1.96.66.99.32,1.76.65,2.3.99.54.34.94.77,1.18,1.28.24.51.37,1.17.37,1.97,0,1.51-.46,2.66-1.37,3.47Zm13.23-11.11h-6.5v3.42h5.21v2.54h-5.21v3.51h6.5v2.58h-9.47v-14.64h9.47v2.58Z" fill="#a7a9ac"/>
      <path d="m118.07,318.55v26.22h43.92v-26.22h-43.92Zm16.2,18.98c-.91.8-2.14,1.21-3.69,1.21-1.12,0-2.49-.17-4.11-.52l-.78-.15.3-2.3c1.92.26,3.39.39,4.41.39,1.52,0,2.28-.63,2.28-1.89,0-.52-.2-.9-.6-1.14-.4-.24-1.08-.5-2.02-.78-1.13-.32-2.03-.67-2.68-1.05-.65-.39-1.13-.85-1.42-1.38-.29-.53-.44-1.19-.44-1.98,0-1.44.44-2.52,1.31-3.25.88-.73,2.1-1.1,3.68-1.1.62,0,1.26.04,1.92.12.66.08,1.63.23,2.91.46l-.24,2.35c-1.97-.23-3.39-.34-4.29-.34-1.56,0-2.35.52-2.35,1.55,0,.36.13.65.39.88s.58.42.97.57c.39.15,1.04.37,1.96.66.99.32,1.76.65,2.3.99.54.34.94.77,1.18,1.28.24.51.37,1.17.37,1.97,0,1.51-.46,2.66-1.37,3.47Zm18.98.95h-4.5l-2.3-11.13-2.3,11.13h-4.5l-2.8-14.64h3.12l1.81,12.1h.32l2.63-12.1h3.45l2.63,12.1h.32l1.81-12.1h3.12l-2.8,14.64Z" fill="#a7a9ac"/>
      <path d="m251.93,163.71v26.22h43.92v-26.22h-43.92Zm21.03,20.52h-4.89l-3.66-12.06h-.21v12.06h-2.97v-14.64h5.02l3.53,12.06h.22v-12.06h2.97v14.64Zm12.66-12.06h-6.5v3.42h5.21v2.54h-5.21v3.51h6.5v2.58h-9.47v-14.64h9.47v2.58Z" fill="#a7a9ac"/>
      <path d="m118.07,163.71v26.22h43.92v-26.22h-43.92Zm18.37,20.52h-4.89l-3.66-12.06h-.21v12.06h-2.97v-14.64h5.02l3.53,12.06h.22v-12.06h2.97v14.64Zm18.41,0h-4.5l-2.3-11.13-2.3,11.13h-4.5l-2.8-14.64h3.12l1.81,12.1h.32l2.63-12.1h3.45l2.63,12.1h.32l1.81-12.1h3.12l-2.8,14.64Z" fill="#a7a9ac"/>
      <path d="m194.16,342.6v26.22h26.22v-26.22h-26.22Zm16.8,18.55c-.91.8-2.14,1.21-3.69,1.21-1.12,0-2.49-.17-4.11-.52l-.78-.15.3-2.3c1.92.26,3.39.39,4.41.39,1.52,0,2.28-.63,2.28-1.89,0-.52-.2-.9-.6-1.14-.4-.24-1.08-.5-2.02-.78-1.13-.32-2.03-.67-2.68-1.05-.65-.39-1.13-.85-1.42-1.38-.29-.53-.44-1.19-.44-1.98,0-1.44.44-2.52,1.31-3.25.88-.73,2.1-1.1,3.68-1.1.62,0,1.26.04,1.92.12.66.08,1.63.23,2.91.46l-.24,2.35c-1.97-.23-3.39-.34-4.29-.34-1.56,0-2.35.52-2.35,1.55,0,.36.13.65.39.88s.58.42.97.57c.39.15,1.04.37,1.96.66.99.32,1.76.65,2.3.99.54.34.94.77,1.18,1.28.24.51.37,1.17.37,1.97,0,1.51-.46,2.66-1.37,3.47Z" fill="#a7a9ac"/>
      <g opacity=".5">
        <path d="m207.27,390.03c-75.16,0-136.3-61.14-136.3-136.3s61.14-136.3,136.3-136.3,136.3,61.14,136.3,136.3-61.14,136.3-136.3,136.3Zm0-266.6c-71.85,0-130.3,58.45-130.3,130.3s58.45,130.3,130.3,130.3,130.3-58.45,130.3-130.3-58.45-130.3-130.3-130.3Z" fill="#a7a9ac"/>
      </g>
      <g opacity=".5">
        <path d="m207.27,413.54c-88.12,0-159.81-71.69-159.81-159.81S119.15,93.92,207.27,93.92s159.81,71.69,159.81,159.81-71.69,159.81-159.81,159.81Zm0-313.62c-84.81,0-153.81,69-153.81,153.81s69,153.81,153.81,153.81,153.81-69,153.81-153.81-69-153.81-153.81-153.81Z" fill="#bcbec0"/>
      </g>
      <g opacity=".5">
        <path d="m207.27,437.46c-101.31,0-183.73-82.42-183.73-183.73S105.96,70,207.27,70s183.73,82.42,183.73,183.73-82.42,183.73-183.73,183.73Zm0-361.46c-98,0-177.73,79.73-177.73,177.73s79.73,177.73,177.73,177.73,177.73-79.73,177.73-177.73-79.73-177.73-177.73-177.73Z" fill="#d1d3d4"/>
      </g>
      <g opacity=".5">
        <path d="m207.27,461C92.98,461,0,368.02,0,253.73S92.98,46.46,207.27,46.46s207.27,92.98,207.27,207.27-92.98,207.27-207.27,207.27Zm0-408.54C96.29,52.46,6,142.75,6,253.73s90.29,201.27,201.27,201.27,201.27-90.29,201.27-201.27S318.25,52.46,207.27,52.46Z" fill="#e6e7e8"/>
      </g>
      <g>
        <path d="m284.93,256.08l11.21-2.35-11.22-2.35c-.14-4.36-.65-8.74-1.54-13.1-3.02-14.87-10.13-28.22-20.5-38.8l4.7-4.7,2.7,2.7,2.47-9.22-9.22,2.47,2.7,2.7-4.71,4.71c-3.46-3.36-7.25-6.42-11.36-9.14-12.25-8.11-26.21-12.51-40.55-12.91l-2.35-11.22-2.35,11.22c-4.36.14-8.74.65-13.1,1.54-14.87,3.02-28.22,10.13-38.81,20.5l-4.7-4.71,2.7-2.7-9.22-2.47,2.47,9.22,2.7-2.7,4.71,4.71c-3.36,3.46-6.42,7.25-9.14,11.36-8.11,12.25-12.51,26.21-12.91,40.54l-11.21,2.35,11.22,2.35c.14,4.36.65,8.74,1.54,13.1,3.02,14.87,10.13,28.22,20.5,38.8l-4.7,4.71-2.7-2.7-2.47,9.22,9.22-2.47-2.7-2.7,4.71-4.71c3.46,3.36,7.26,6.42,11.36,9.14,12.25,8.12,26.21,12.51,40.54,12.91l2.35,11.22,2.35-11.22c4.36-.14,8.74-.65,13.1-1.54,14.86-3.02,28.22-10.13,38.8-20.51l4.71,4.71-2.7,2.7,9.22,2.47-2.47-9.22-2.7,2.7-4.71-4.71c3.36-3.46,6.42-7.25,9.14-11.36,8.11-12.25,12.51-26.21,12.91-40.54Zm-1.36-2.35h-64.13c0-.66-.05-1.31-.16-1.95l.71-.71,5.08-5.08,3.73-3.73,6.91,1.45,2.17.45,7.4,1.55,2.04.43,16.54,3.46,1.95.41,2.21.46,1.86.39.91.19,1.86.39,6.12,1.28,1.93.4,1.52.32,1.35.28Zm-56.83,25.47l5.95,3.89c-4.13,3.59-9.08,6.35-14.62,7.95l1.62-7.75c2.55-1.07,4.91-2.45,7.05-4.09Zm-6.57,1.78l1.12-5.34,3.74,2.45c-1.51,1.11-3.13,2.08-4.86,2.89Zm27.87,12.17l-6.52-6.52-3.8-5.82c4.24-4.77,7.33-10.5,8.97-16.71l16.91-3.54c-1.51,12.36-7.07,23.8-15.55,32.6Zm17.55-33.02l2.22-.47c-1.36,13.81-7.43,26.62-16.88,36.39l-1.52-1.52c2.47-2.57,4.73-5.37,6.74-8.41,5.25-7.92,8.44-16.8,9.43-25.99Zm-28.97,19.01l-3.89-5.95c1.65-2.16,3.02-4.53,4.08-7.04l7.76-1.62c-1.57,5.4-4.29,10.38-7.94,14.61Zm-5.01-7.66l-2.44-3.73,5.32-1.11c-.81,1.7-1.78,3.32-2.88,4.84Zm2.73,12.69l5.83,3.81,6.51,6.51c-7.51,7.29-17.13,12.59-28.13,14.82-1.49.3-2.98.54-4.47.72l3.54-16.9c6.4-1.68,12.07-4.81,16.72-8.97Zm-15.41,27.02c11.14-2.26,21.17-7.58,29.13-15.32l1.52,1.52c-8.07,7.85-18.4,13.54-30.22,15.94-2.06.42-4.12.73-6.17.93l.47-2.25c1.76-.2,3.51-.47,5.27-.83Zm-4.18,5.66c.72-.08,1.44-.18,2.15-.3l.28,1.82c.72-.11,1.46-.24,2.2-.37l-.19-1.01-.16-.8c.29-.05.58-.11.88-.17.42-.08.84-.18,1.26-.27l.4,1.8c.72-.16,1.45-.34,2.17-.52l-.46-1.79c.7-.18,1.4-.38,2.09-.58l.52,1.77c.71-.21,1.43-.44,2.13-.67l-.58-1.75c.69-.23,1.37-.47,2.05-.72l.64,1.73c.69-.26,1.39-.53,2.08-.81l-.7-1.7c.67-.27,1.33-.56,1.99-.86l.76,1.67c.67-.3,1.35-.63,2.02-.95l-.81-1.64c.65-.32,1.29-.65,1.93-1l.87,1.61c.65-.35,1.31-.72,1.95-1.09l-.92-1.58c.63-.36,1.24-.74,1.85-1.12l.97,1.55c.62-.39,1.25-.8,1.87-1.22l-1.03-1.51c.6-.4,1.19-.82,1.77-1.25l1.08,1.48c.6-.44,1.19-.89,1.78-1.35l-1.13-1.44c.57-.44,1.13-.9,1.68-1.36l1.18,1.4c.57-.48,1.13-.97,1.68-1.46l-1.22-1.36c.54-.48,1.07-.98,1.59-1.48l1.27,1.32c.07-.07.14-.14.21-.21l4.29,4.28c-9.5,9.28-21.68,16.03-35.64,18.86-3.52.72-7.05,1.17-10.57,1.35l1.68-8.02.15,1.79c.74-.06,1.48-.14,2.22-.23l-.22-1.83Zm39.44-17.55s0-.01.01-.02l-.99-.96h-.01s-.01-.03-.01-.03h-.01s-.28-.29-.28-.29c.5-.52.99-1.04,1.48-1.58l1.36,1.23c.5-.55.99-1.12,1.47-1.68l-1.4-1.18c.46-.55.92-1.11,1.37-1.68l1.44,1.14c.46-.58.92-1.18,1.35-1.77l-1.48-1.09c.43-.58.85-1.17,1.25-1.77l1.52,1.04c.42-.61.83-1.24,1.23-1.87l-1.56-.99c.39-.61.77-1.23,1.13-1.85l1.59.94c.38-.64.75-1.3,1.1-1.94l-1.62-.88c.35-.64.68-1.28,1.01-1.93l1.65.82c.33-.66.66-1.34.97-2.02l-1.67-.77c.31-.66.6-1.32.88-1.99l1.69.71c.29-.69.56-1.38.83-2.08l-1.71-.65c.26-.68.51-1.36.74-2.04l1.73.59c.24-.7.47-1.42.68-2.13l-1.75-.53c.21-.69.41-1.39.59-2.09l1.77.47c.19-.72.37-1.45.54-2.17l-1.78-.4c.16-.71.31-1.42.45-2.13l1.8.34c.14-.73.27-1.47.39-2.2l-1.81-.28c.11-.72.21-1.44.3-2.16l1.82.22c.09-.74.17-1.49.23-2.23l-1.83-.16c0-.06.01-.13.01-.19l8.04-1.68c-.9,17.55-8.28,33.93-20.2,46.2l-4.29-4.29Zm18.03-53.26l-1.83.22c-.08-.72-.18-1.44-.3-2.15l1.82-.28c-.11-.73-.24-1.47-.38-2.2v-.08s-1.83.34-1.83.34c-.05-.27-.1-.54-.16-.81-.09-.44-.18-.88-.28-1.32l1.8-.4c-.16-.72-.34-1.46-.52-2.17l-1.79.47c-.18-.7-.37-1.4-.58-2.09l1.77-.52c-.21-.71-.44-1.43-.67-2.13l-1.74.58c-.23-.69-.47-1.37-.72-2.05l1.73-.65c-.26-.69-.53-1.39-.81-2.08l-1.7.7c-.27-.67-.56-1.33-.86-1.99l1.67-.76c-.3-.68-.63-1.35-.96-2.02l-1.64.81c-.32-.65-.65-1.29-1-1.93l1.61-.87c-.35-.65-.72-1.31-1.09-1.95l-1.58.92c-.36-.62-.74-1.24-1.12-1.85l1.55-.98c-.4-.63-.81-1.25-1.22-1.86l-1.51,1.03c-.4-.6-.82-1.19-1.25-1.77l1.47-1.08c-.44-.6-.89-1.19-1.35-1.78l-1.44,1.13c-.45-.57-.9-1.13-1.37-1.68l1.39-1.18c-.48-.57-.97-1.13-1.47-1.68l-1.36,1.23c-.48-.54-.97-1.06-1.48-1.58l1.32-1.27c-.05-.05-.11-.11-.16-.16l4.29-4.29c9.28,9.5,16.02,21.68,18.85,35.63.72,3.54,1.16,7.07,1.34,10.57l-7.94-1.66,1.71-.15c-.06-.74-.14-1.48-.23-2.22Zm-39.47-11.79l3.89-5.95c3.66,4.21,6.37,9.18,7.94,14.64l-7.74-1.62c-1.06-2.53-2.43-4.9-4.08-7.06Zm1.77,6.58l-5.35-1.12,2.46-3.75c1.11,1.53,2.08,3.16,2.89,4.87Zm3.2-14.2l3.78-5.79h0s6.52-6.52,6.52-6.52c7.29,7.51,12.59,17.13,14.82,28.13.3,1.49.54,2.98.72,4.47l-16.9-3.54c-1.64-6.29-4.71-11.99-8.96-16.75Zm11.69-13.7l1.55-1.55c8.04,8.27,13.56,18.67,15.92,30.24.42,2.06.73,4.12.93,6.17l-2.25-.47c-.19-1.76-.47-3.51-.83-5.27-2.26-11.14-7.58-21.16-15.32-29.13Zm3.42-6.13s-.04-.04-.06-.06l-1.27,1.32c-.52-.5-1.05-.99-1.59-1.48l1.23-1.36c-.55-.5-1.12-.99-1.68-1.47l-1.18,1.41c-.55-.47-1.11-.92-1.68-1.37l1.14-1.45c-.58-.46-1.18-.91-1.78-1.35l-1.09,1.48c-.58-.43-1.17-.84-1.77-1.25l1.04-1.52c-.61-.42-1.24-.83-1.86-1.23l-.99,1.56c-.61-.39-1.23-.77-1.85-1.13l.93-1.59c-.65-.38-1.3-.75-1.95-1.1l-.88,1.62c-.64-.35-1.28-.68-1.93-1l.82-1.65c-.66-.33-1.34-.66-2.02-.97l-.77,1.67c-.66-.31-1.32-.6-1.99-.87l.71-1.7c-.69-.28-1.39-.56-2.08-.82l-.65,1.71c-.68-.26-1.36-.5-2.05-.74l.59-1.73c-.71-.24-1.42-.47-2.13-.68l-.53,1.75c-.69-.21-1.39-.41-2.09-.59l.47-1.77c-.72-.19-1.45-.37-2.17-.53l-.4,1.78c-.71-.16-1.42-.31-2.13-.45l.34-1.79c-.73-.14-1.47-.27-2.21-.38l-.28,1.81c-.72-.11-1.44-.21-2.15-.3l.22-1.82c-.74-.09-1.49-.17-2.23-.23l-.16,1.82s-.08,0-.13,0l-1.68-8.04c17.55.9,33.93,8.28,46.2,20.2l-4.29,4.29Zm-11.98-3.79c3.16,2.09,6.08,4.44,8.75,7.02l-1.55,1.55c-2.57-2.47-5.38-4.73-8.41-6.74-7.93-5.25-16.8-8.44-25.99-9.43l-.47-2.25c9.78.94,19.25,4.27,27.67,9.86Zm5.82,9.94l-6.51,6.52-5.81,3.8c-1.56-1.39-3.25-2.67-5.04-3.82-3.66-2.36-7.61-4.09-11.7-5.16l-3.54-16.88c12.36,1.51,23.8,7.07,32.6,15.55Zm-18.4,8.11c1.56,1,3.03,2.11,4.41,3.3l-5.96,3.89c-.68-.52-1.39-1.02-2.12-1.49-1.58-1.02-3.23-1.89-4.93-2.6l-1.63-7.76c3.57,1.04,7.01,2.6,10.22,4.67Zm-3.25,8.31l-3.74,2.45-1.12-5.34c1.17.56,2.31,1.19,3.41,1.9.49.32.98.65,1.45,1Zm35.91-27.96c9.99,10.21,16.85,23.08,19.76,37.41.81,3.99,1.29,7.99,1.46,11.98l-1.53-.32c-.17-3.78-.64-7.57-1.41-11.35-2.85-14.03-9.56-26.64-19.34-36.64l1.07-1.07Zm-12.29-10.15c3.95,2.62,7.61,5.57,10.94,8.8l-1.08,1.08c-3.26-3.16-6.83-6.05-10.7-8.61-11.28-7.47-24.11-11.61-37.3-12.17l-.32-1.53c13.59.51,26.83,4.73,38.46,12.43Zm-44.06-1.06l.39-1.85,1.28-6.12.4-1.93.32-1.52.28-1.35v64.13c-.66,0-1.31.05-1.95.16h0l-.71-.71-5.09-5.09h0s-3.72-3.72-3.72-3.72l1.45-6.91.45-2.17,1.55-7.4.43-2.04,3.46-16.54.41-1.96.46-2.22.39-1.86.19-.91Zm-62.28,71.25l1.83-.22c.08.72.18,1.43.3,2.15l-1.82.28c.11.72.24,1.44.37,2.16v.05s1.82-.34,1.82-.34c.05.28.11.57.16.85.09.43.18.85.27,1.28l-1.8.4c.16.72.34,1.45.52,2.17l1.78-.46c.18.7.37,1.4.58,2.09l-1.77.52c.21.71.44,1.43.67,2.13l1.75-.58c.23.69.47,1.37.72,2.05l-1.73.64c.26.7.53,1.4.81,2.08l1.7-.7c.28.67.56,1.33.86,1.99l-1.67.75c.3.68.63,1.35.95,2.02l1.64-.81c.32.65.65,1.29,1,1.93l-1.61.87c.35.65.72,1.31,1.09,1.95l1.58-.92c.36.62.74,1.24,1.12,1.85l-1.55.97c.39.62.8,1.25,1.22,1.86l1.51-1.03c.4.6.82,1.19,1.25,1.77l-1.47,1.08c.44.6.89,1.2,1.35,1.78l1.44-1.13c.45.57.9,1.13,1.37,1.68l-1.4,1.18c.48.57.97,1.13,1.47,1.68l1.36-1.22c.48.54.98,1.06,1.48,1.58l-1.32,1.27c.06.07.13.13.19.2l-4.32,4.32c-9.52-9.74-16.05-22.01-18.82-35.67-.72-3.54-1.16-7.07-1.34-10.57l8.06,1.69s0,0,0,0l-1.83.16c.06.74.14,1.49.23,2.22Zm52.53,21.82l1.62,7.75c-5.4-1.57-10.38-4.29-14.61-7.95l5.95-3.89c2.16,1.65,4.53,3.02,7.04,4.08Zm-5.33-5.2l3.73-2.44,1.11,5.32c-1.7-.81-3.32-1.77-4.84-2.88Zm-6.61-6.59c-1.1-1.51-2.08-3.13-2.89-4.86l5.34,1.12-2.44,3.74Zm-1.12,1.7l-3.89,5.95c-3.59-4.14-6.35-9.08-7.95-14.62l7.75,1.62c1.07,2.55,2.45,4.91,4.09,7.05Zm-4.97,7.61l-3.81,5.82h0s-6.52,6.52-6.52,6.52c-7.29-7.52-12.59-17.13-14.82-28.13-.3-1.49-.54-2.98-.72-4.47l16.9,3.54c1.68,6.4,4.81,12.07,8.97,16.72Zm-11.7,13.72l-1.52,1.52c-7.84-8.07-13.54-18.4-15.94-30.22-.42-2.05-.73-4.11-.93-6.17l2.25.47c.2,1.76.47,3.51.83,5.27,2.26,11.14,7.58,21.16,15.32,29.13Zm-3.42,6.13s.02.02.03.03l1.27-1.32c.52.5,1.05,1,1.59,1.48l-1.23,1.36c.55.5,1.11.99,1.68,1.47l1.19-1.4c.55.47,1.11.92,1.68,1.37l-1.14,1.44c.58.46,1.18.91,1.78,1.35l1.09-1.48c.58.43,1.17.84,1.77,1.25l-1.04,1.52c.62.42,1.24.83,1.86,1.23l.99-1.56c.61.39,1.23.77,1.85,1.13l-.93,1.59c.64.38,1.29.75,1.94,1.1l.88-1.62c.64.35,1.28.68,1.93,1.01l-.82,1.65c.67.33,1.34.66,2.02.97l.77-1.67c.66.3,1.32.6,1.99.87l-.71,1.7c.69.28,1.39.56,2.08.83l.65-1.71c.68.26,1.36.5,2.05.74l-.59,1.73c.71.24,1.42.47,2.13.68l.53-1.75c.69.21,1.39.41,2.09.59l-.46,1.77c.72.19,1.45.37,2.17.53l.41-1.78c.71.16,1.42.31,2.13.45l-.34,1.79c.73.14,1.47.27,2.2.39l.28-1.81c.72.11,1.43.21,2.15.3l-.22,1.82c.74.09,1.49.17,2.23.23l.16-1.83c.05,0,.11.01.17.01l1.69,8.06c-12.67-.62-24.99-4.64-35.83-11.83-3.76-2.49-7.23-5.29-10.4-8.36l4.31-4.31Zm3.26-3.26l1.52-1.52c2.57,2.48,5.37,4.73,8.41,6.74,7.93,5.25,16.8,8.44,25.99,9.43l.47,2.22c-13.81-1.36-26.62-7.43-36.39-16.87Zm2.9-2.9l6.52-6.52h0l5.82-3.81c4.77,4.24,10.5,7.33,16.72,8.97l3.54,16.91c-12.36-1.5-23.8-7.07-32.61-15.55Zm19.93-66.26l-5.95-3.89c4.21-3.66,9.18-6.37,14.64-7.94l-1.62,7.74c-2.54,1.06-4.91,2.43-7.07,4.09Zm6.58-1.78l-1.12,5.35-3.76-2.46c1.53-1.12,3.16-2.08,4.88-2.89Zm-48.01,8.98c-.21.69-.41,1.39-.59,2.09l-1.76-.47c-.19.72-.37,1.45-.54,2.17l1.78.4c-.16.71-.31,1.42-.45,2.13l-1.8-.34c-.14.73-.27,1.47-.38,2.2l1.81.28c-.11.72-.21,1.44-.3,2.16l-1.82-.22c-.09.74-.17,1.48-.23,2.23l1.83.16s-.01.1-.01.15l-8.04,1.68c.9-17.55,8.28-33.93,20.2-46.2l4.28,4.28s-.03.03-.04.05l1.32,1.27c-.5.52-1,1.05-1.48,1.59l-1.36-1.23c-.49.55-.99,1.11-1.47,1.68l1.41,1.19c-.47.55-.92,1.11-1.37,1.68l-1.45-1.14c-.46.58-.91,1.18-1.35,1.78l1.49,1.09c-.43.58-.84,1.17-1.25,1.77l-1.52-1.04c-.42.61-.83,1.24-1.23,1.87l1.56.99c-.39.61-.77,1.23-1.13,1.85l-1.59-.93c-.38.64-.75,1.3-1.1,1.94l1.62.88c-.35.64-.68,1.28-1,1.93l-1.65-.82c-.33.66-.66,1.34-.97,2.02l1.67.77c-.31.66-.6,1.32-.87,1.99l-1.69-.71c-.29.68-.56,1.38-.83,2.08l1.71.65c-.26.68-.51,1.36-.74,2.05l-1.73-.59c-.24.7-.47,1.42-.68,2.13l1.75.53Zm49.24-39.19c-11.15,2.26-21.17,7.58-29.14,15.32l-1.55-1.55c8.26-8.05,18.67-13.57,30.24-15.92,2.06-.42,4.12-.73,6.17-.94l-.47,2.25c-1.76.2-3.51.47-5.26.83Zm4.85,1.15l-3.54,16.9c-6.29,1.64-12,4.71-16.75,8.96l-5.79-3.79-6.55-6.55c7.7-7.48,17.39-12.61,28.16-14.79,1.49-.3,2.98-.54,4.47-.72Zm-.71-6.8c-.72.08-1.43.18-2.15.3l-.28-1.82c-.71.11-1.43.23-2.14.37h-.06s.34,1.82.34,1.82c-.27.05-.55.11-.82.16-.43.09-.87.18-1.3.28l-.4-1.8c-.73.16-1.46.34-2.17.52l.46,1.79c-.7.18-1.4.38-2.09.58l-.53-1.77c-.71.21-1.42.43-2.13.67l.59,1.75c-.69.23-1.37.47-2.05.72l-.64-1.73c-.69.26-1.39.53-2.08.81l.7,1.7c-.67.27-1.33.56-1.99.86l-.76-1.67c-.67.3-1.35.63-2.02.95l.81,1.64c-.65.32-1.29.65-1.93,1l-.87-1.61c-.65.35-1.3.72-1.95,1.09l.92,1.58c-.62.36-1.24.74-1.85,1.12l-.97-1.55c-.63.39-1.25.81-1.87,1.22l1.03,1.51c-.6.4-1.19.82-1.77,1.25l-1.08-1.47c-.6.44-1.2.89-1.78,1.35l1.13,1.44c-.57.44-1.13.9-1.68,1.37l-1.18-1.4c-.57.47-1.13.97-1.68,1.47l1.23,1.36c-.54.48-1.07.98-1.59,1.48l-1.27-1.32c-.06.06-.12.12-.18.18l-4.29-4.29c9.5-9.28,21.68-16.03,35.64-18.86,3.54-.72,7.07-1.16,10.57-1.34l-1.69,8.06s-.02,0-.03,0l-.16-1.83c-.74.06-1.49.14-2.22.23l.22,1.83Zm-43.18,29.52c2.09-3.16,4.44-6.08,7.01-8.75l1.54,1.55c-2.47,2.57-4.73,5.37-6.74,8.41-5.25,7.92-8.44,16.8-9.43,25.99l-2.25.47c.94-9.78,4.28-19.25,9.86-27.67Zm3.42,2.27c1.94-2.93,4.11-5.64,6.5-8.11l6.54,6.54,3.8,5.81c-1.39,1.56-2.67,3.25-3.82,5.04-2.35,3.66-4.09,7.61-5.16,11.7l-16.91,3.54c1.04-8.66,4.09-17.03,9.05-24.52Zm14.63,10.32c1-1.56,2.1-3.03,3.3-4.41l3.89,5.95c-.52.68-1.02,1.39-1.49,2.12-1.02,1.58-1.89,3.23-2.6,4.93l-7.76,1.63c1.04-3.57,2.6-7.01,4.67-10.22Zm7.31,4.7c.32-.49.65-.98,1-1.45l2.45,3.74-5.34,1.12c.55-1.17,1.19-2.31,1.9-3.41Zm10.45-57.12c3.99-.81,7.99-1.29,11.98-1.46l-.32,1.54c-3.78.17-7.58.64-11.36,1.41-14.03,2.85-26.64,9.56-36.64,19.35l-1.07-1.07c10.21-10,23.08-16.85,37.41-19.76Zm-47.56,32.05c2.62-3.95,5.56-7.61,8.79-10.93l1.07,1.07c-3.16,3.26-6.04,6.83-8.6,10.7-7.47,11.28-11.61,24.11-12.17,37.3l-1.53.32c.51-13.59,4.73-26.83,12.44-38.46Zm-13.83,41.38h64.13c0,.66.05,1.32.16,1.95l-.71.71-5.09,5.09-3.72,3.72-6.9-1.45-2.17-.45-7.4-1.55-2.04-.43-16.54-3.46-1.95-.41-2.22-.46-1.86-.39-.91-.19-1.85-.39-6.12-1.28-1.93-.4-1.52-.32-1.35-.28Zm22.63,52.32c-10-10.21-16.85-23.08-19.76-37.41-.81-3.99-1.29-7.99-1.46-11.98l1.54.32c.17,3.78.64,7.58,1.41,11.36,2.85,14.03,9.56,26.64,19.35,36.64l-1.07,1.07Zm12.29,10.15c-3.95-2.62-7.61-5.56-10.94-8.79h0l1.08-1.08c3.26,3.16,6.83,6.04,10.7,8.6,11.29,7.48,24.11,11.61,37.3,12.17l.32,1.53c-13.59-.51-26.83-4.73-38.46-12.43Zm32.32-62.47c0-5.01,4.06-9.07,9.07-9.07s9.07,4.06,9.07,9.07-4.06,9.07-9.07,9.07-9.07-4.06-9.07-9.07Zm11.74,63.52l-.39,1.85-1.28,6.13-.4,1.92-.32,1.52-.28,1.35v-64.13c.66,0,1.31-.05,1.95-.16h0l.71.71,5.08,5.08h0s3.72,3.73,3.72,3.73l-1.45,6.9-.45,2.17-1.55,7.4-.43,2.04-3.46,16.54-.41,1.96-.46,2.21-.39,1.87-.19.91Zm12.23,9.91c-3.99.81-7.99,1.29-11.98,1.46l.32-1.54c3.78-.18,7.58-.64,11.35-1.41,14.03-2.85,26.64-9.56,36.64-19.35l1.07,1.07c-10.21,9.99-23.08,16.85-37.41,19.76Zm38.76-21.12l-1.08-1.08c3.16-3.26,6.04-6.83,8.6-10.7,7.48-11.29,11.61-24.11,12.17-37.3l1.53-.32c-.51,13.59-4.73,26.83-12.43,38.46-2.62,3.95-5.56,7.61-8.79,10.93Z"/>
        <path d="m222.57,208.27c1.05.35,2.19-.21,2.54-1.27.35-1.05-.22-2.19-1.27-2.54-1.05-.35-2.19.21-2.54,1.27-.35,1.05.21,2.19,1.27,2.54Z"/>
        <path d="m234.32,214.13c.91.63,2.16.4,2.79-.52.63-.91.4-2.16-.52-2.79-.91-.63-2.16-.4-2.79.52-.63.91-.4,2.16.52,2.79Z"/>
        <path d="m249.24,226.77c.91-.63,1.14-1.88.51-2.79-.63-.91-1.88-1.14-2.79-.51-.91.63-1.14,1.88-.51,2.79.63.91,1.88,1.14,2.79.51Z"/>
        <path d="m254.86,239.27c1.05-.35,1.62-1.49,1.26-2.54-.35-1.05-1.49-1.62-2.54-1.26-1.05.35-1.62,1.49-1.26,2.54.35,1.05,1.49,1.62,2.54,1.26Z"/>
        <path d="m192.79,208.27c1.05-.35,1.62-1.49,1.27-2.54-.35-1.05-1.49-1.62-2.54-1.27-1.05.35-1.62,1.49-1.27,2.54.35,1.05,1.49,1.62,2.54,1.27Z"/>
        <path d="m181.03,214.13c.91-.63,1.14-1.88.52-2.79-.63-.91-1.88-1.14-2.79-.52-.91.63-1.14,1.88-.52,2.79.63.91,1.88,1.14,2.79.52Z"/>
        <path d="m168.9,226.25c.63-.91.4-2.16-.51-2.79-.91-.63-2.16-.4-2.79.51-.63.91-.4,2.16.51,2.79.91.63,2.16.4,2.79-.51Z"/>
        <path d="m161.77,235.47c-1.05-.35-2.19.21-2.54,1.26-.35,1.05.21,2.19,1.26,2.54,1.05.35,2.19-.21,2.54-1.26.35-1.05-.21-2.19-1.26-2.54Z"/>
        <path d="m223.84,302.21c1.05-.35,1.62-1.49,1.27-2.54-.35-1.05-1.49-1.62-2.54-1.27-1.05.35-1.62,1.49-1.27,2.54.35,1.05,1.49,1.62,2.54,1.27Z"/>
        <path d="m236.6,295.84c.91-.63,1.14-1.88.52-2.79-.63-.91-1.88-1.14-2.79-.52-.91.63-1.14,1.88-.52,2.79.63.91,1.88,1.14,2.79.52Z"/>
        <path d="m246.97,283.21c.91.63,2.16.4,2.79-.51.63-.91.4-2.16-.51-2.79-.91-.63-2.16-.4-2.79.51s-.4,2.16.51,2.79Z"/>
        <path d="m253.59,271.2c1.05.35,2.19-.21,2.54-1.26.35-1.05-.21-2.19-1.26-2.54-1.05-.35-2.19.21-2.54,1.26s.21,2.19,1.26,2.54Z"/>
        <path d="m192.79,298.4c-1.05-.35-2.19.22-2.54,1.27-.35,1.05.21,2.19,1.27,2.54,1.05.35,2.19-.21,2.54-1.27.35-1.05-.21-2.19-1.27-2.54Z"/>
        <path d="m181.03,292.54c-.91-.63-2.16-.4-2.79.52-.63.91-.4,2.16.52,2.79.91.63,2.16.4,2.79-.52.63-.91.4-2.16-.52-2.79Z"/>
        <path d="m166.11,279.9c-.91.63-1.14,1.88-.51,2.79.63.91,1.88,1.14,2.79.51.91-.63,1.14-1.88.51-2.79-.63-.91-1.88-1.14-2.79-.51Z"/>
        <path d="m160.49,267.4c-1.05.35-1.62,1.49-1.26,2.54.35,1.05,1.49,1.62,2.54,1.26,1.05-.35,1.62-1.49,1.26-2.54s-1.49-1.62-2.54-1.26Z"/>
        <path d="m210.02,257.83c.54-.36,1-.82,1.35-1.35.02-.03.04-.06.06-.09.49-.77.78-1.68.78-2.66s-.28-1.89-.78-2.66c-.02-.03-.04-.06-.06-.09-.04-.07-.09-.13-.14-.2-.06-.08-.12-.16-.19-.24-.04-.04-.07-.09-.11-.13-.11-.12-.22-.24-.34-.34-.04-.04-.08-.08-.13-.11-.08-.07-.16-.13-.24-.19-.06-.05-.13-.1-.2-.14-.03-.02-.06-.04-.09-.06-.77-.49-1.68-.78-2.66-.78s-1.89.28-2.66.78c-.03.02-.06.04-.09.06-.54.36-1,.82-1.36,1.35-.02.03-.04.06-.06.1-.49.77-.78,1.68-.78,2.66s.28,1.89.78,2.66c.02.03.04.07.06.1.36.54.82,1,1.36,1.35.03.02.06.04.09.06.77.49,1.68.78,2.66.78s1.89-.28,2.66-.78c.03-.02.06-.04.09-.06Z"/>
      </g>
      <g>
        <path d="m213.18,41.32v12.22c0,1.01-.26,1.89-.79,2.64s-1.25,1.32-2.16,1.72c-.91.4-1.92.6-3.04.6-1.18,0-2.24-.22-3.19-.65-.95-.44-1.7-1.04-2.24-1.8-.54-.77-.81-1.62-.81-2.57,0-1.06.3-3.38.9-6.96l2.14.34c-.25,1.52-.45,2.89-.61,4.11-.16,1.22-.24,2.06-.24,2.5,0,.58.17,1.11.5,1.57s.82.83,1.44,1.1c.62.27,1.33.4,2.12.4,1.19,0,2.13-.27,2.8-.82.67-.54,1.01-1.27,1.01-2.19v-12.22h2.18Zm-6.98-2.25h2.09v2.25h-2.09v-2.25Z" fill="#231f20"/>
        <path d="m213.17,70.04c.8,1.19,1.21,2.58,1.21,4.17v5.76h-15.13v-1.95h1.24v-14.4h2.16v8.54c.69-.86,1.31-1.55,1.87-2.09.56-.54,1.21-.97,1.96-1.31.75-.34,1.61-.5,2.59-.5,1.93,0,3.29.59,4.1,1.78Zm-10.53,4.88v3.1h9.58v-3.44c0-1.24-.3-2.28-.9-3.11-.6-.83-1.46-1.25-2.59-1.25-2.1,0-4.13,1.57-6.08,4.71Zm3.56-10.82h2.09v2.25h-2.09v-2.25Z" fill="#231f20"/>
        <path d="m209.07,91.36c.9.53,1.61,1.37,2.15,2.54.54,1.16.8,2.66.8,4.48v4.18h-9.6v-1.95h7.44v-2.11c0-2.17-.42-3.71-1.26-4.6s-1.83-1.34-2.96-1.34h-2l-.16-1.63c.23-.08.6-.15,1.13-.23.52-.08,1.01-.11,1.47-.11,1.1,0,2.1.26,3,.79Zm-4.9-5.29h2.09v2.25h-2.09v-2.25Z" fill="#231f20"/>
        <path d="m209.66,112.68l-4.8.94-.23-.83,1.1-.3c-.28-.21-.48-.47-.62-.77-.14-.3-.21-.61-.21-.93,0-.58.21-1.09.62-1.52.41-.43.95-.64,1.61-.64.58,0,1.15.18,1.7.55l-.25,1.03c-.09-.08-.23-.15-.41-.23s-.38-.11-.6-.11c-.38,0-.7.13-.94.38-.25.25-.37.56-.37.91,0,.43.18.78.55,1.06l2.57-.69.28,1.15Zm-3.51,1.91h2.18v14.38h-2.18v-14.38Z" fill="#231f20"/>
      </g>
      <g>
        <path d="m203.9,387.5c0,1.03.29,1.82.87,2.38.58.56,1.46.84,2.64.84.46,0,1.08-.04,1.85-.13.77-.08,1.58-.2,2.42-.36l.25,1.7c-.78.18-1.62.35-2.53.49-.9.15-1.71.22-2.43.22-1.71,0-3.02-.46-3.93-1.38s-1.35-2.22-1.35-3.9c0-1.55.4-2.71,1.19-3.5.8-.79,1.98-1.18,3.56-1.18.77,0,1.49.08,2.16.24.67.16,1.21.35,1.61.56v-5.69c0-1.47-.74-2.2-2.23-2.2-.69,0-2.28.12-4.78.37l-.07-1.54c.84-.2,1.78-.37,2.8-.52,1.03-.15,1.88-.22,2.55-.22,1.21,0,2.16.29,2.85.88.69.59,1.03,1.59,1.03,3v7.83h-2.16c-.41-.2-.93-.38-1.55-.54-.62-.16-1.23-.24-1.83-.24-1.96,0-2.94.96-2.94,2.89Zm3.33-.55h1.93v2.18h-1.93v-2.18Z" fill="#231f20"/>
        <path d="m218.96,405.04c.14,1,.21,1.76.21,2.29v6.38h-4.41c-.93,0-1.79-.31-2.57-.92-.57.61-1.3.92-2.21.92h-2.59v.92c0,.93-.26,1.76-.77,2.49-.51.73-1.23,1.29-2.15,1.69-.92.4-1.97.6-3.15.6-1.29,0-2.4-.23-3.33-.7-.93-.47-1.64-1.09-2.12-1.86-.48-.77-.72-1.6-.72-2.49,0-.98.31-3.3.94-6.96l2.09.11c-.6,3.41-.9,5.56-.9,6.45,0,.63.16,1.21.49,1.75.33.54.8.96,1.4,1.26.6.31,1.3.46,2.08.46.73,0,1.4-.14,2.01-.42.6-.28,1.08-.67,1.42-1.16.34-.49.52-1.04.52-1.65v-10.82h2.18v8.38h1.88c.67,0,1.17-.28,1.48-.85.31-.57.47-1.28.47-2.14v-5.4h2.16v5.37c0,.89-.1,1.66-.3,2.32.21.18.48.34.79.48s.62.21.93.21h2.2v-4.43c0-1.07-.12-2.75-.37-5.03l1.84-.07c.18.87.34,1.81.48,2.81Zm-9.19-7.13h1.95v2.18h-1.95v-2.18Zm1.56-2.92h1.88v2.09h-1.88v-2.09Zm1.52,2.92h1.93v2.18h-1.93v-2.18Z" fill="#231f20"/>
        <path d="m215.74,426.62v12.06c0,.96-.21,1.83-.64,2.6-.43.77-1.06,1.37-1.91,1.8-.84.44-1.85.65-3.03.65h-6.45c-1.18,0-2.19-.22-3.02-.65-.83-.44-1.46-1.04-1.88-1.8-.42-.77-.63-1.64-.63-2.62,0-1.27.29-3.51.87-6.71l2.14.32c-.25,1.33-.44,2.58-.6,3.75-.15,1.17-.23,2.05-.23,2.63,0,1.03.28,1.8.85,2.33.57.53,1.4.79,2.5.79h6.45c1.1,0,1.94-.26,2.53-.79.58-.53.87-1.3.87-2.31v-.85h-3.17c-1.1,0-1.96-.15-2.58-.44-.62-.29-1.07-.82-1.35-1.58-.28-.77-.42-1.88-.42-3.35s.16-2.73.49-3.61.89-1.51,1.68-1.91c.79-.4,1.88-.6,3.27-.6,1.04,0,2.46.09,4.27.28Zm-2.18,9.25v-7.49c-.77-.05-1.46-.07-2.09-.07-.93,0-1.62.1-2.07.3-.44.2-.75.59-.93,1.16s-.26,1.47-.26,2.68c0,1.07.05,1.84.16,2.3s.31.76.6.91c.29.15.76.22,1.42.22h3.17Zm-4.41-13.89h2.09v2.25h-2.09v-2.25Zm3.21,0h2.07v2.25h-2.07v-2.25Z" fill="#231f20"/>
      </g>
      <g>
        <path d="m76.37,116.78c1.27.05,2.66.82,4.15,2.31l4.06,4.06-5.25,5.25c-1.2,1.2-1.06,2.54.42,4.03.35.35.74.69,1.19,1.02.44.34,1.12.83,2.03,1.48l.57.41-1.51,1.51c-1.79-1.16-3.06-2.12-3.82-2.87s-1.26-1.53-1.53-2.36c-.28-.83-.29-1.64-.06-2.44-1.23-.82-2.34-1.73-3.33-2.71-.68-.68-1.32-1.42-1.92-2.22-.6-.79-1.08-1.49-1.42-2.07.17-.41.47-.92.88-1.54.42-.61.92-1.21,1.52-1.81,1.41-1.41,2.75-2.09,4.02-2.04Zm1.58,10.24l3.7-3.7-2.68-2.68c-.78-.78-1.43-1.3-1.96-1.56-.53-.26-1.04-.3-1.54-.11-.5.18-1.07.6-1.72,1.25-.56.56-1.03,1.12-1.41,1.67.84,1.19,1.68,2.2,2.5,3.02.41.41.88.84,1.41,1.27.53.44,1.01.8,1.45,1.1l.26-.26Z" fill="#231f20"/>
        <path d="m97.16,136.84c1.41.27,2.67.97,3.8,2.09l4.08,4.08-10.7,10.7-1.38-1.38.88-.88-10.18-10.18,1.53-1.53,6.04,6.04c-.12-1.09-.17-2.03-.15-2.8.02-.77.17-1.55.46-2.31.29-.77.78-1.5,1.48-2.19,1.36-1.36,2.75-1.91,4.16-1.64Zm-3.99,10.9l2.19,2.19,6.77-6.77-2.44-2.44c-.88-.88-1.82-1.4-2.83-1.57-1.01-.17-1.92.15-2.72.95-1.48,1.48-1.81,4.03-.97,7.63Z" fill="#231f20"/>
        <path d="m109.51,153.84c1.01-.26,2.11-.17,3.31.28s2.45,1.31,3.73,2.6l2.96,2.96-6.79,6.79-1.38-1.38,5.26-5.26-1.49-1.49c-1.54-1.54-2.92-2.33-4.15-2.36-1.23-.04-2.24.34-3.04,1.14l-1.41,1.41-1.27-1.04c.11-.22.32-.54.63-.96.31-.42.63-.8.96-1.12.78-.78,1.67-1.3,2.68-1.56Z" fill="#231f20"/>
      </g>
      <g>
        <path d="m293.67,342.67l1.33-1.33,1.48,1.48-1.33,1.33-1.48-1.48Zm.96,3.17l1.38-1.38,1.54,1.54-1.38,1.38-1.54-1.54Zm8.48-5.39l8.12,8.12-6.35,6.35c-1,1-1.89,1.73-2.68,2.19-.79.47-1.55.66-2.27.57s-1.45-.49-2.18-1.22c-.46-.45-.96-1.06-1.52-1.83-.56-.76-1.07-1.51-1.53-2.23l1.82-1.2c.49.77.99,1.5,1.5,2.18.51.68.94,1.2,1.28,1.54.4.4.77.63,1.1.68.33.05.74-.08,1.2-.39.46-.31,1.1-.87,1.9-1.67l4.81-4.81-6.74-6.74,1.54-1.54Zm-6.3,3.21l1.36-1.36,1.54,1.54-1.36,1.36-1.54-1.54Z" fill="#231f20"/>
        <path d="m324.31,355.7c.81.61,1.39,1.1,1.76,1.47l4.51,4.51-3.12,3.12c-.66.66-1.48,1.05-2.47,1.17.03.83-.27,1.57-.91,2.21l-1.83,1.83.65.65c.66.66,1.07,1.43,1.22,2.31.15.88.04,1.78-.33,2.71s-.97,1.81-1.8,2.65c-.91.91-1.86,1.53-2.85,1.86-.99.33-1.93.39-2.82.19-.89-.21-1.65-.62-2.27-1.25-.69-.69-2.11-2.56-4.25-5.59l1.56-1.4c1.99,2.84,3.3,4.57,3.93,5.2.44.44.97.74,1.58.88s1.24.11,1.88-.1c.64-.21,1.24-.59,1.79-1.15.52-.52.89-1.09,1.12-1.72.23-.63.29-1.24.19-1.83-.1-.59-.37-1.1-.8-1.53l-7.65-7.65,1.54-1.54,5.93,5.93,1.33-1.33c.48-.48.63-1.03.45-1.65-.18-.62-.57-1.24-1.18-1.84l-3.82-3.82,1.53-1.53,3.8,3.8c.63.63,1.1,1.25,1.43,1.85.28-.02.58-.1.9-.22.32-.12.59-.3.8-.51l1.56-1.56-3.13-3.13c-.76-.76-2.03-1.86-3.82-3.3l1.25-1.35c.75.49,1.52,1.04,2.33,1.65Z" fill="#231f20"/>
        <path d="m337.61,371.28l7.92,7.92-9.92,9.92c-1.01,1.01-1.9,1.74-2.69,2.2-.78.46-1.54.65-2.26.56-.73-.09-1.46-.5-2.19-1.23-.46-.46-.96-1.07-1.53-1.83-.56-.77-1.07-1.52-1.51-2.24l1.8-1.19c.44.73.93,1.44,1.45,2.13.53.7.97,1.23,1.32,1.58.4.4.77.63,1.11.69s.74-.07,1.2-.37c.46-.31,1.1-.87,1.91-1.68l3.38-3.38c-.76-.32-1.67-1.02-2.74-2.1s-1.82-2.05-2.2-2.9c-.38-.85-.44-1.69-.16-2.53.28-.84.91-1.75,1.89-2.74.74-.74,1.81-1.68,3.21-2.83Zm-7.03.44l1.48-1.48,1.59,1.59-1.48,1.48-1.59-1.59Zm12.03,7.65l-5.29-5.29c-.57.51-1.08.99-1.53,1.43-.66.66-1.08,1.22-1.25,1.67-.17.46-.12.95.16,1.48.28.53.85,1.22,1.7,2.08.76.76,1.34,1.26,1.74,1.51.4.25.75.32,1.06.22.31-.1.7-.39,1.16-.85l2.24-2.24Z" fill="#231f20"/>
        <path d="m352.33,408.25c-.96.39-1.92.52-2.88.38s-1.8-.57-2.52-1.29c-.65-.65-1.67-1.95-3.05-3.9l1.67-1.22c1.28,1.71,2.15,2.8,2.63,3.28s1.04.79,1.67.93c.63.13,1.26.09,1.9-.13.64-.22,1.22-.58,1.74-1.1l4.33-4.34c.73-.73,1.06-1.49.99-2.29-.07-.8-.48-1.59-1.25-2.35-.54-.54-1.13-.78-1.77-.73-.64.05-1.49.42-2.55,1.09-1.08.67-2,1.13-2.74,1.36s-1.43.27-2.06.1c-.63-.17-1.26-.58-1.9-1.22-1.03-1.03-1.49-2.11-1.39-3.26.1-1.14.76-2.31,1.96-3.52.44-.44.95-.89,1.51-1.35.56-.45,1.34-1.04,2.32-1.77l1.15,1.41c-1.75,1.39-2.92,2.37-3.49,2.94-1.48,1.48-1.68,2.77-.6,3.85.4.4.8.63,1.19.69.39.06.84-.02,1.34-.24.5-.22,1.23-.61,2.19-1.18.96-.57,1.79-.95,2.49-1.13.7-.18,1.35-.17,1.96.04.61.21,1.22.62,1.83,1.23,1.24,1.24,1.9,2.53,1.96,3.86.06,1.33-.5,2.57-1.66,3.74l-4.35,4.35c-.78.78-1.65,1.36-2.62,1.75Zm3.74-.54l1.48-1.48,1.59,1.59-1.48,1.48-1.59-1.59Zm2.27-2.27l1.46-1.46,1.59,1.59-1.46,1.46-1.59-1.59Z" fill="#231f20"/>
      </g>
      <g>
        <path d="m338.92,101.76l.84-.52,4.38,4.38-.52.84-.86.54-4.38-4.38.54-.86Z" fill="#231f20"/>
        <path d="m360,107.42c.42,1.2.44,2.45.08,3.75-.36,1.3-1.18,2.59-2.44,3.86l-3.43,3.43-11.77-11.77.54-.86.84-.52,1.98,1.98,1.01-1.01c.54-.54,1.18-.91,1.93-1.1.75-.19,1.5-.2,2.24-.02.75.18,1.4.56,1.96,1.12.56.56.94,1.22,1.13,1.96.19.74.18,1.48-.02,2.23-.2.74-.58,1.39-1.13,1.94l-1.01,1.01,2.13,2.13,2.03-2.03c1.56-1.56,2.25-3.05,2.06-4.48-.18-1.43-.86-2.72-2.01-3.88-.75-.75-2.07-1.78-3.98-3.1l1.09-1.31c1.95,1.12,3.47,2.24,4.58,3.34,1.04,1.04,1.77,2.16,2.18,3.35Zm-9.99-.38c-.6.01-1.12.24-1.56.68l-1.1,1.1,3.05,3.05,1.12-1.12c.43-.43.65-.95.67-1.54,0-.6-.2-1.11-.63-1.54s-.95-.64-1.54-.63Z" fill="#231f20"/>
        <path d="m328.66,132.75c.58.47,1.21.94,1.89,1.4l-1.02,1.38c-.65-.39-1.34-.85-2.06-1.38-.73-.53-1.34-1.04-1.84-1.54-1.21-1.21-1.81-2.46-1.8-3.75s.62-2.53,1.82-3.73c.69-.69,1.44-1.18,2.25-1.45.81-.28,1.65-.22,2.54.17.14-.62.38-1.22.73-1.82.35-.59.78-1.15,1.3-1.67.78-.78,1.62-1.31,2.51-1.6.89-.29,1.77-.32,2.62-.09.86.23,1.62.68,2.31,1.36.4.4.78.88,1.15,1.45.36.57.64,1.13.84,1.7l-1.46,1.33c-.1-.36-.31-.83-.65-1.43-.33-.59-.7-1.09-1.1-1.49-.66-.66-1.4-.97-2.23-.93-.82.04-1.66.49-2.5,1.33-.99.99-1.51,2.08-1.56,3.28.54.56.99,1.14,1.36,1.73.36.59.61,1.09.74,1.5l-1.35,1.35c-.13-.41-.38-.92-.75-1.51-.37-.6-.77-1.11-1.2-1.54-.66-.66-1.34-1-2.03-1.02-.69-.02-1.39.31-2.08,1.01-.73.73-1.08,1.49-1.07,2.29,0,.8.44,1.63,1.3,2.48.33.33.78.72,1.36,1.19Z" fill="#231f20"/>
        <path d="m308.9,146.11c-.13-.16-.25-.3-.35-.41l-.31-.37,1.36-1.36c.45.54.74.87.84.97.48.48,1.03.64,1.66.5s1.28-.55,1.96-1.23l8.59-8.59,1.53,1.53-8.28,8.28c-2.58,2.58-4.76,2.97-6.54,1.19-.17-.17-.33-.34-.46-.5Z" fill="#231f20"/>
        <path d="m311.39,156.82l-8.12,8.12-6.35-6.35c-1-1-1.73-1.89-2.19-2.68-.46-.79-.65-1.55-.57-2.27.09-.73.49-1.45,1.22-2.18.45-.45,1.06-.96,1.83-1.52.76-.56,1.51-1.07,2.23-1.53l1.2,1.82c-.77.49-1.49.98-2.18,1.49-.68.51-1.2.94-1.54,1.28-.4.4-.63.77-.68,1.1-.05.34.08.74.39,1.2.31.47.87,1.1,1.67,1.9l4.81,4.81,6.74-6.74,1.54,1.54Zm-15.3,3.54l1.48,1.48-1.59,1.59-1.48-1.48,1.59-1.59Z" fill="#231f20"/>
      </g>
      <g>
        <path d="m102.31,348.34c-.72.73-1.08,1.49-1.06,2.3.02.8.44,1.63,1.27,2.46.32.32.79.73,1.4,1.22s1.26.97,1.97,1.46l-1.02,1.38c-.68-.42-1.39-.9-2.13-1.44-.74-.54-1.37-1.06-1.88-1.57-1.21-1.21-1.81-2.46-1.8-3.75.01-1.29.61-2.53,1.8-3.72,1.09-1.09,2.2-1.64,3.32-1.63,1.12,0,2.24.57,3.35,1.68.54.54.99,1.11,1.36,1.7.36.59.61,1.1.74,1.53l4.03-4.03c1.04-1.04,1.03-2.08-.02-3.13-.49-.49-1.7-1.53-3.64-3.12l1.04-1.14c.74.45,1.52.99,2.35,1.62.83.62,1.48,1.17,1.96,1.65.86.86,1.32,1.74,1.39,2.64.07.9-.39,1.85-1.39,2.85l-5.54,5.54-1.53-1.53c-.15-.43-.39-.93-.71-1.48-.33-.55-.7-1.04-1.12-1.46-1.39-1.39-2.76-1.4-4.12-.03Z" fill="#231f20"/>
        <path d="m97.49,374.92l-8.3-8.3-.65.65c-.66.66-1.43,1.07-2.31,1.22-.88.15-1.78.04-2.71-.32-.93-.37-1.81-.96-2.63-1.79-.91-.91-1.53-1.86-1.86-2.85s-.4-1.93-.2-2.82c.2-.89.6-1.64,1.22-2.26.71-.71,2.59-2.14,5.62-4.29l1.4,1.56c-1.09.79-2.16,1.57-3.19,2.33-1.03.76-1.7,1.3-2.01,1.6-.44.44-.74.97-.88,1.59s-.11,1.25.1,1.9c.21.65.58,1.25,1.12,1.79s1.09.89,1.72,1.12c.63.23,1.24.29,1.83.18.59-.11,1.11-.38,1.54-.81l8.46-8.46,1.54,1.54-2.6,2.6c1.09-.12,2.03-.17,2.8-.15.77.02,1.54.17,2.31.46.77.29,1.5.79,2.19,1.48,1.36,1.36,1.91,2.75,1.64,4.16-.27,1.41-.97,2.67-2.09,3.8l-4.08,4.08Zm-4.73-11.87l-2.19,2.19,6.76,6.76,2.44-2.44c.88-.88,1.4-1.82,1.57-2.83.17-1.01-.14-1.91-.93-2.7-1.48-1.48-4.03-1.81-7.63-.98Z" fill="#231f20"/>
        <path d="m87.75,377.21l-11.56,11.56-6.06-6.06c-1-1-1.73-1.89-2.19-2.68-.47-.79-.66-1.55-.57-2.27.09-.73.49-1.45,1.22-2.18.68-.68,1.85-1.57,3.49-2.68l1.2,1.33-.58.45c-1.17.87-1.96,1.51-2.37,1.92-.63.63-.87,1.29-.73,1.98.14.69.75,1.58,1.83,2.66l4.6,4.6,10.18-10.18,1.54,1.54Zm-8.77,1.62l-4.06-2.73.42-.75.99.57c-.04-.35,0-.67.11-.98s.28-.58.51-.8c.41-.41.92-.62,1.51-.63.59-.01,1.13.22,1.59.68.41.41.68.94.81,1.59l-.91.55c-.01-.12-.05-.27-.13-.45-.08-.18-.19-.35-.34-.5-.27-.27-.58-.4-.93-.4-.35,0-.65.13-.9.38-.3.3-.42.68-.36,1.14l2.3,1.33-.62,1.01Z" fill="#231f20"/>
      </g>
      <g>
        <path d="m354.27,244.82v11.48h-8.98c-1.41,0-2.56-.11-3.44-.34-.89-.23-1.56-.63-2.01-1.21-.45-.57-.68-1.37-.68-2.4,0-.64.07-1.43.22-2.37s.31-1.82.49-2.66l2.14.44c-.2.89-.36,1.75-.48,2.59-.12.84-.18,1.51-.18,2,0,.57.1.99.3,1.26.2.28.57.47,1.13.57.55.11,1.39.16,2.53.16h6.8v-9.53h2.18Zm-9.92-2.23h2.09v2.25h-2.09v-2.25Zm3.21,0h2.07v2.25h-2.07v-2.25Z" fill="#231f20"/>
        <path d="m366.02,261.98c-.21-.02-.39-.03-.54-.05l-.48-.05v-1.93c.7.06,1.13.09,1.29.09.67,0,1.18-.27,1.53-.82s.52-1.3.52-2.26v-12.15h2.16v11.71c0,3.64-1.26,5.47-3.79,5.47-.25,0-.47,0-.68-.02Zm2.33-21.54h2.09v2.25h-2.09v-2.25Z" fill="#231f20"/>
        <path d="m391.94,261.52c.74-.08,1.52-.19,2.33-.34l.25,1.7c-.73.18-1.55.34-2.43.48-.89.14-1.68.21-2.39.21-1.71,0-3.02-.46-3.93-1.38s-1.35-2.23-1.35-3.93c0-.98.19-1.85.56-2.62.38-.77,1.01-1.32,1.92-1.68-.34-.54-.59-1.14-.77-1.8-.18-.67-.26-1.37-.26-2.1,0-1.1.21-2.07.64-2.91.43-.83,1.03-1.47,1.79-1.92.76-.44,1.63-.67,2.59-.67.57,0,1.18.07,1.84.22.66.15,1.25.35,1.79.61l-.09,1.97c-.32-.18-.81-.37-1.47-.55-.66-.18-1.27-.28-1.84-.28-.93,0-1.68.31-2.23.92-.55.61-.83,1.52-.83,2.71,0,1.39.41,2.53,1.22,3.42.78.02,1.51.1,2.18.26.67.16,1.2.34,1.58.54v1.91c-.38-.2-.92-.38-1.6-.54-.68-.16-1.33-.24-1.94-.24-.93,0-1.65.24-2.16.71-.51.47-.76,1.2-.76,2.18s.29,1.82.86,2.38c.57.56,1.47.84,2.68.84.46,0,1.06-.04,1.8-.11Zm-2.54-21.08h2.09v2.25h-2.09v-2.25Z" fill="#231f20"/>
        <path d="m415.97,244.82v10.06c0,2.43-.3,4.23-.91,5.39-.6,1.16-1.65,1.73-3.13,1.73-.4,0-.99-.03-1.77-.1-.78-.07-1.49-.15-2.14-.24v-1.93c2,.21,3.31.32,3.9.32s1.02-.28,1.31-.83c.29-.55.47-1.52.53-2.92h-3.05c-1.7,0-2.86-.52-3.49-1.56-.63-1.04-.94-2.42-.94-4.13,0-2.28.44-3.9,1.33-4.86.89-.96,2.25-1.44,4.09-1.44,1.16,0,2.59.17,4.27.51Zm-7.3,8.06c.14.54.37.92.69,1.14.32.22.77.33,1.35.33h3.08v-7.9c-.69-.12-1.39-.18-2.09-.18-.84,0-1.49.13-1.95.38-.46.25-.79.69-.99,1.31-.2.62-.3,1.5-.3,2.65,0,.98.07,1.74.21,2.27Z" fill="#231f20"/>
      </g>
      <g>
        <path d="m29.91,239.37v17.09c0,1.01-.26,1.89-.79,2.64s-1.25,1.32-2.16,1.72c-.91.4-1.92.6-3.04.6-1.18,0-2.24-.22-3.19-.65-.95-.44-1.7-1.04-2.24-1.8-.54-.77-.81-1.62-.81-2.57,0-1.06.3-3.38.9-6.96l2.14.34c-.25,1.52-.45,2.89-.61,4.11-.16,1.22-.24,2.06-.24,2.5,0,.58.17,1.11.5,1.57s.82.83,1.44,1.1c.62.27,1.33.4,2.12.4,1.19,0,2.13-.27,2.8-.82.67-.54,1.01-1.27,1.01-2.19v-17.09h2.18Z" fill="#231f20"/>
        <path d="m61.85,255.72h-11.73v.92c0,.93-.26,1.76-.77,2.49-.51.73-1.23,1.29-2.15,1.69-.92.4-1.96.6-3.12.6-1.29,0-2.4-.23-3.33-.7-.93-.47-1.65-1.08-2.14-1.85s-.73-1.58-.73-2.46c0-1.01.31-3.34.94-7l2.09.11c-.21,1.33-.42,2.63-.61,3.9-.19,1.27-.29,2.12-.29,2.55,0,.63.17,1.21.5,1.75.34.54.81.96,1.41,1.27.6.31,1.29.47,2.06.47s1.4-.14,2.01-.42c.6-.28,1.08-.67,1.42-1.17s.52-1.05.52-1.66v-11.96h2.18v3.67c.69-.86,1.31-1.55,1.87-2.09.56-.54,1.21-.97,1.96-1.31.75-.34,1.62-.5,2.59-.5,1.93,0,3.3.59,4.1,1.78.8,1.19,1.21,2.58,1.21,4.17v5.76Zm-11.73-5.05v3.1h9.55v-3.44c0-1.24-.3-2.28-.9-3.11-.6-.83-1.45-1.25-2.57-1.25-2.1,0-4.13,1.57-6.09,4.71Zm3.93-10.82h2.09v2.25h-2.09v-2.25Z" fill="#231f20"/>
        <path d="m71.41,257.84c0,1.03.29,1.82.87,2.38.58.56,1.46.84,2.64.84.46,0,1.08-.04,1.85-.13.77-.08,1.58-.2,2.42-.36l.25,1.7c-.78.18-1.62.35-2.53.49-.9.15-1.71.22-2.43.22-1.71,0-3.02-.46-3.93-1.38s-1.35-2.22-1.35-3.9c0-1.55.4-2.71,1.19-3.5.8-.79,1.98-1.18,3.56-1.18.77,0,1.49.08,2.16.24.67.16,1.21.35,1.61.56v-5.69c0-1.47-.74-2.2-2.23-2.2-.69,0-2.28.12-4.78.37l-.07-1.54c.84-.2,1.78-.37,2.8-.52,1.03-.15,1.88-.22,2.55-.22,1.21,0,2.16.29,2.85.88.69.59,1.03,1.59,1.03,3v7.83h-2.16c-.41-.2-.93-.38-1.55-.54-.62-.16-1.23-.24-1.83-.24-1.96,0-2.94.96-2.94,2.89Zm2.39-17.98h2.09v2.25h-2.09v-2.25Z" fill="#231f20"/>
      </g>
    </g>
  </g>
</svg>