<?xml version="1.0" encoding="UTF-8"?>
<svg id="Layer_2" data-name="Layer 2" xmlns="http://www.w3.org/2000/svg" viewBox="0 0 299.74 352.95">
<style>
path, rect, circle, polygon, ellipse {
  fill: black;
}

@media (prefers-color-scheme: dark) {
  path, rect, circle, polygon, ellipse {
    fill: white;
  }
}
</style>
  <g id="Layer_1-2" data-name="Layer 1">
    <g>
      <g>
        <path d="m153.87,352.95c-2.17,0-3.55-.03-4-.04-3.86.09-78.79,1.53-116.99-25.99C-12.46,294.25,2.08,13.81,2.72,1.89l.1-1.89h294.09l.1,1.89c.64,11.92,15.18,292.36-30.16,325.02-33.8,24.35-96.35,26.03-112.99,26.03ZM6.62,4c-.59,11.94-3.64,78.46-2.1,147.47,2.22,99.79,12.84,159.33,30.7,172.2,37.3,26.87,113.83,25.26,114.6,25.24h.05s.05,0,.05,0c.77.02,77.32,1.62,114.6-25.24,17.86-12.87,28.47-72.41,30.7-172.2,1.54-69.01-1.51-135.53-2.1-147.47H6.62Z"/>
        <path d="m156.96,114.3c-87.1,0-154.16-9.75-155.17-9.9l.59-3.96c1.5.22,151.85,22.08,294.97,0l.61,3.95c-48.15,7.43-97.12,9.9-141,9.9Z"/>
        <path d="m200.81,62.03l-.16-4c34.21-1.38,66.74-4.43,96.7-9.05l.61,3.95c-30.11,4.64-62.79,7.7-97.15,9.09Z"/>
        <path d="m98.89,61.52C41.76,58.82,2.18,53,1.79,52.94l.59-3.96c.39.06,39.79,5.85,96.7,8.54l-.19,4Z"/>
        <path d="m156.96,173.49c-87.1,0-154.16-9.75-155.17-9.9l.59-3.96c1.5.22,151.85,22.08,294.97,0l.61,3.95c-48.15,7.43-97.12,9.9-141,9.9Z"/>
        <path d="m156.78,232.67c-84.94,0-150.35-9.75-151.33-9.9l.6-3.96c1.46.22,148.07,22.07,287.62,0l.62,3.95c-46.96,7.43-94.72,9.9-137.52,9.9Z"/>
        <path d="m156.4,291.92c-80.31,0-142.16-9.9-143.08-10.06l.65-3.95c1.38.23,139.92,22.4,271.78,0l.67,3.94c-44.4,7.54-89.56,10.06-130.02,10.06Z"/>
        <path d="m162.76,352.91h-25.78c-22.06,0-40-17.94-40-40V40C96.98,17.94,114.92,0,136.98,0h25.78c22.06,0,40,17.94,40,40v272.91c0,22.06-17.94,40-40,40ZM136.98,4c-19.85,0-36,16.15-36,36v272.91c0,19.85,16.15,36,36,36h25.78c19.85,0,36-16.15,36-36V40c0-19.85-16.15-36-36-36h-25.78Z"/>
        <rect x="109.4" y="13.74" width="80.94" height="88.99" rx="23" ry="23"/>
      </g>
      <path d="m67.68,86.1h-6c0-1.79-2.86-3.79-6.68-3.79h-7.98c-3.82,0-6.68,2-6.68,3.79h-6c0-5.49,5.57-9.79,12.68-9.79h7.98c7.11,0,12.68,4.3,12.68,9.79Z"/>
      <path d="m62.98,32.86h-23.93c-1.66,0-3-1.34-3-3s1.34-3,3-3h23.93c1.66,0,3,1.34,3,3s-1.34,3-3,3Z"/>
      <path d="m260.68,32.86h-23.93c-1.66,0-3-1.34-3-3s1.34-3,3-3h23.93c1.66,0,3,1.34,3,3s-1.34,3-3,3Z"/>
      <g>
        <path d="m265.38,86.1h-6c0-1.79-2.86-3.79-6.68-3.79h-7.98c-3.82,0-6.68,2-6.68,3.79h-6c0-5.49,5.57-9.79,12.68-9.79h7.98c7.11,0,12.68,4.3,12.68,9.79Z"/>
        <path d="m253.75,86.48h-10.08c-.62,0-1.12-.5-1.12-1.12s.5-1.12,1.12-1.12h10.08c.62,0,1.12.5,1.12,1.12s-.5,1.12-1.12,1.12Z"/>
      </g>
      <g>
        <path d="m147.97,240.33h3.62l5.68,16.82h-3.64l-3.75-13.51h-.05l-2.29,8.56-1.33,4.94h-3.75l5.5-16.82Z" fill="#231f20"/>
        <g>
          <path d="m125.11,268.5c.62.67.93,1.76.93,3.28v4.12h-5.33c-1.22,0-1.83.75-1.83,2.26,0,.35.03.73.08,1.12s.15.99.28,1.78l.08.49h-1.53c-.32-1.5-.48-2.63-.48-3.4s.14-1.42.42-1.98.68-.98,1.21-1.27c-.21-1.04-.31-2.07-.31-3.07,0-.69.05-1.39.15-2.1.1-.71.21-1.3.33-1.77.3-.12.71-.23,1.23-.33.52-.1,1.09-.15,1.69-.15,1.43,0,2.45.33,3.08,1.01Zm-4.4,6h3.76v-2.72c0-.79-.07-1.39-.21-1.79-.14-.4-.38-.68-.73-.84-.35-.16-.85-.24-1.51-.24-.57,0-1.09.04-1.57.13-.18,1.03-.26,1.97-.26,2.8,0,.42.02.87.07,1.36s.1.92.18,1.29h.26Z" fill="#231f20"/>
          <path d="m136.76,264.16v12.27c0,.73-.19,1.36-.57,1.9-.38.54-.9.95-1.55,1.24-.65.29-1.38.43-2.19.43-.85,0-1.61-.16-2.29-.47-.68-.31-1.22-.75-1.61-1.29-.39-.55-.59-1.17-.59-1.85,0-.76.21-2.42.64-5l1.53.25c-.18,1.09-.32,2.07-.44,2.95-.12.88-.17,1.48-.17,1.8,0,.42.12.79.36,1.13.24.34.59.6,1.03.79s.95.29,1.53.29c.86,0,1.53-.2,2.01-.59.48-.39.73-.92.73-1.58v-12.27h1.57Z" fill="#231f20"/>
          <path d="m149.85,264.16v11.74h-6.15c-1.01,0-1.84-.08-2.47-.25-.64-.17-1.12-.45-1.44-.87-.32-.41-.49-.99-.49-1.72,0-.69.14-1.74.41-3.13l1.29.07-.07.53c-.15,1.03-.23,1.76-.23,2.18,0,.64.21,1.1.63,1.38s1.18.42,2.28.42h4.67v-10.34h1.57Zm-3.63,5.28l-3.45.68-.17-.59.79-.21c-.2-.15-.35-.34-.45-.55-.1-.21-.15-.44-.15-.67,0-.42.15-.78.45-1.09s.68-.46,1.15-.46c.42,0,.82.13,1.22.4l-.18.74c-.07-.06-.17-.11-.3-.17-.13-.06-.27-.08-.43-.08-.27,0-.5.09-.68.27s-.26.4-.26.65c0,.31.13.56.4.76l1.85-.5.2.82Z" fill="#231f20"/>
          <path d="m164.89,267.85v8.66c0,.69-.15,1.31-.46,1.86-.31.55-.76.98-1.37,1.29-.6.31-1.33.47-2.18.47h-4.63c-.85,0-1.57-.16-2.17-.47-.6-.31-1.05-.75-1.35-1.29-.3-.55-.45-1.18-.45-1.88,0-.91.21-2.52.63-4.82l1.53.23c-.18.96-.32,1.86-.43,2.7-.11.84-.17,1.47-.17,1.89,0,.74.2,1.29.61,1.67s1.01.57,1.8.57h4.63c.79,0,1.4-.19,1.81-.57.42-.38.63-.93.63-1.66v-.61h-2.28c-.79,0-1.41-.1-1.85-.31s-.77-.59-.97-1.14-.31-1.35-.31-2.41.12-1.96.35-2.59c.24-.63.64-1.08,1.2-1.37.57-.29,1.35-.43,2.35-.43.75,0,1.77.07,3.07.2Zm-1.57,6.65v-5.38c-.55-.03-1.05-.05-1.5-.05-.67,0-1.17.07-1.48.21-.32.14-.54.42-.67.83s-.19,1.05-.19,1.92c0,.77.04,1.32.12,1.65.08.33.22.55.43.65.21.1.55.16,1.02.16h2.28Zm-3.17-9.98h1.5v1.62h-1.5v-1.62Zm2.31,0h1.48v1.62h-1.48v-1.62Z" fill="#231f20"/>
          <path d="m181.46,267.85v8.05h-10.08c-1.02,0-1.85-.08-2.48-.25-.63-.17-1.11-.45-1.44-.87s-.49-.99-.49-1.74c0-.46.05-1.03.16-1.71.1-.68.23-1.31.37-1.91l1.52.31c-.14.59-.26,1.2-.35,1.82-.09.62-.13,1.11-.13,1.48,0,.41.07.71.21.92.14.2.41.34.8.42.39.08,1,.12,1.82.12h3.43c-.22-.55-.33-1.37-.33-2.46s.12-1.96.35-2.59c.24-.63.64-1.08,1.2-1.37.57-.29,1.35-.43,2.35-.43.75,0,1.77.07,3.07.2Zm-1.57,6.65v-5.38c-.55-.03-1.05-.05-1.5-.05-.67,0-1.17.07-1.48.21-.32.14-.54.42-.67.83-.13.41-.19,1.05-.19,1.92,0,.77.04,1.32.12,1.65.08.33.22.55.43.65.21.1.55.16,1.02.16h2.28Zm-2.23-9.99h1.5v1.62h-1.5v-1.62Z" fill="#231f20"/>
        </g>
      </g>
      <g>
        <path d="m144.54,195.39c-1.04-1.66-1.57-3.63-1.57-5.93s.5-4.2,1.49-5.96c.99-1.77,2.79-2.65,5.39-2.65s4.42.88,5.42,2.65c.99,1.77,1.49,3.76,1.49,5.96s-.53,4.27-1.58,5.93-2.83,2.48-5.33,2.48-4.27-.83-5.31-2.48Zm8.02-2.18c.53-1.05.79-2.31.79-3.77s-.25-2.68-.75-3.81c-.5-1.13-1.41-1.69-2.74-1.69s-2.21.57-2.71,1.69c-.5,1.13-.75,2.4-.75,3.81s.26,2.72.79,3.77,1.42,1.58,2.68,1.58,2.17-.53,2.7-1.58Z" fill="#231f20"/>
        <g>
          <path d="m136.44,220.6c-.15-.01-.28-.02-.39-.03l-.35-.03v-1.38c.51.04.81.07.92.07.48,0,.85-.2,1.1-.59.25-.39.37-.93.37-1.62v-8.72h1.55v8.41c0,2.62-.91,3.92-2.72,3.92-.18,0-.34,0-.49-.02Zm1.67-15.47h1.5v1.62h-1.5v-1.62Z" fill="#231f20"/>
          <path d="m142.49,220.6c-.15-.01-.28-.02-.39-.03l-.35-.03v-1.38c.51.04.81.07.92.07.48,0,.85-.2,1.1-.59.25-.39.37-.93.37-1.62v-8.72h1.55v8.41c0,2.62-.91,3.92-2.72,3.92-.18,0-.34,0-.49-.02Z" fill="#231f20"/>
          <path d="m152.58,208.49c.64.38,1.16.99,1.54,1.82.38.83.58,1.91.58,3.22v3h-6.89v-1.4h5.34v-1.52c0-1.56-.3-2.66-.91-3.31-.6-.64-1.31-.96-2.13-.96h-1.43l-.12-1.17c.16-.05.43-.11.81-.16.37-.06.73-.08,1.06-.08.79,0,1.51.19,2.15.57Zm-3.52-3.8h1.5v1.62h-1.5v-1.62Z" fill="#231f20"/>
          <path d="m161.19,208.49c.64.38,1.16.99,1.54,1.82.38.83.58,1.91.58,3.22v3h-6.89v-1.4h5.34v-1.52c0-1.56-.3-2.66-.91-3.31-.6-.64-1.31-.96-2.13-.96h-1.43l-.12-1.17c.16-.05.43-.11.81-.16.37-.06.73-.08,1.06-.08.79,0,1.51.19,2.15.57Z" fill="#231f20"/>
        </g>
      </g>
      <g>
        <path d="m145.42,121.58h3.42v3.08c0,.82.14,1.42.43,1.8.29.38.82.57,1.58.57.63,0,1.09-.21,1.39-.62.3-.42.45-.96.45-1.62v-3.21h3.42v3.26c0,.99-.2,1.88-.6,2.69-.4.81-.98,1.45-1.75,1.92-.76.48-1.67.71-2.73.71-.51,0-.94-.05-1.27-.14-.34-.09-.65-.23-.92-.42v8.79h-3.42v-16.82Z" fill="#231f20"/>
        <g>
          <path d="m141.32,148.91v8.25h-6.45c-1.01,0-1.84-.08-2.47-.25s-1.12-.45-1.44-.87-.49-.99-.49-1.72c0-.46.05-1.03.16-1.7.1-.67.22-1.31.35-1.91l1.53.31c-.14.64-.26,1.26-.35,1.86-.09.61-.13,1.08-.13,1.43,0,.41.07.71.21.91.14.2.41.34.81.41.4.08,1,.12,1.81.12h4.88v-6.84h1.57Zm-7.04-1.57h1.4v1.57h-1.4v-1.57Zm1.12-2.09h1.35v1.5h-1.35v-1.5Zm1.09,2.09h1.39v1.57h-1.39v-1.57Z" fill="#231f20"/>
          <path d="m154.66,148.91v8.25h-6.45c-1.01,0-1.84-.08-2.47-.25s-1.12-.45-1.44-.87-.49-.99-.49-1.72c0-.46.05-1.03.16-1.7.1-.67.22-1.31.35-1.91l1.53.31c-.14.64-.26,1.26-.35,1.86-.09.61-.13,1.08-.13,1.43,0,.41.07.71.21.91.14.2.41.34.81.41.4.08,1,.12,1.81.12h4.88v-6.84h1.57Zm-7.12-1.6h1.5v1.62h-1.5v-1.62Zm2.31,0h1.48v1.62h-1.48v-1.62Z" fill="#231f20"/>
          <path d="m168,148.91v8.25h-6.45c-1.01,0-1.84-.08-2.47-.25s-1.12-.45-1.44-.87-.49-.99-.49-1.72c0-.46.05-1.03.16-1.7.1-.67.22-1.31.35-1.91l1.53.31c-.14.64-.26,1.26-.35,1.86-.09.61-.13,1.08-.13,1.43,0,.41.07.71.21.91.14.2.41.34.81.41.4.08,1,.12,1.81.12h4.88v-6.84h1.57Zm-5.97,9.56h1.5v1.62h-1.5v-1.62Z" fill="#231f20"/>
        </g>
      </g>
      <g>
        <path d="m248.62,246.12c-.82.15-1.65.23-2.5.23-1.9,0-3.44-.4-4.63-1.21-1.18-.81-1.77-2.09-1.77-3.86,0-1.65.58-2.97,1.73-3.96s2.95-1.49,5.38-1.49c.85,0,1.76.06,2.73.19.97.13,1.79.27,2.47.42v16.21h-3.42v-6.52Zm0-3.26v-3.62c-.61-.14-1.3-.2-2.06-.2-1.41,0-2.33.19-2.77.57s-.65.84-.65,1.36c0,.61.2,1.13.61,1.54.41.42,1.21.62,2.4.62.75,0,1.57-.09,2.47-.28Z" fill="#231f20"/>
        <g>
          <path d="m232.57,275.15c.53-.05,1.09-.14,1.67-.25l.18,1.22c-.53.13-1.11.25-1.75.35-.64.1-1.21.15-1.71.15-1.23,0-2.17-.33-2.82-.99-.65-.66-.97-1.6-.97-2.82,0-.7.13-1.33.4-1.88s.73-.95,1.38-1.2c-.24-.38-.43-.82-.55-1.29s-.19-.98-.19-1.51c0-.79.15-1.49.46-2.09.31-.6.74-1.06,1.29-1.38.55-.32,1.17-.48,1.86-.48.41,0,.85.05,1.32.16s.9.25,1.29.44l-.07,1.42c-.23-.13-.58-.26-1.06-.4-.47-.13-.91-.2-1.32-.2-.67,0-1.2.22-1.6.66-.4.44-.59,1.09-.59,1.95,0,1,.29,1.82.87,2.46.56.01,1.08.07,1.57.19.48.12.86.24,1.14.39v1.37c-.27-.14-.66-.27-1.15-.39-.49-.12-.95-.17-1.39-.17-.67,0-1.19.17-1.55.51-.36.34-.54.86-.54,1.57s.21,1.3.62,1.71,1.05.6,1.92.6c.33,0,.76-.03,1.29-.08Zm-1.82-15.14h1.5v1.62h-1.5v-1.62Z" fill="#231f20"/>
          <path d="m241.46,275.15c.53-.05,1.09-.14,1.67-.25l.18,1.22c-.53.13-1.11.25-1.75.35-.64.1-1.21.15-1.71.15-1.23,0-2.17-.33-2.82-.99-.65-.66-.97-1.6-.97-2.82,0-.7.13-1.33.4-1.88s.73-.95,1.38-1.2c-.24-.38-.43-.82-.55-1.29s-.19-.98-.19-1.51c0-.79.15-1.49.46-2.09.31-.6.74-1.06,1.29-1.38.55-.32,1.17-.48,1.86-.48.41,0,.85.05,1.32.16s.9.25,1.29.44l-.07,1.42c-.23-.13-.58-.26-1.06-.4-.47-.13-.91-.2-1.32-.2-.67,0-1.2.22-1.6.66-.4.44-.59,1.09-.59,1.95,0,1,.29,1.82.87,2.46.56.01,1.08.07,1.57.19.48.12.86.24,1.14.39v1.37c-.27-.14-.66-.27-1.15-.39-.49-.12-.95-.17-1.39-.17-.67,0-1.19.17-1.55.51-.36.34-.54.86-.54,1.57s.21,1.3.62,1.71,1.05.6,1.92.6c.33,0,.76-.03,1.29-.08Z" fill="#231f20"/>
          <path d="m254.62,264.27c.58.85.87,1.85.87,2.99v4.14h-10.87v-1.4h.89v-10.34h1.55v6.13c.49-.62.94-1.12,1.34-1.5s.87-.7,1.41-.94c.54-.24,1.16-.36,1.86-.36,1.39,0,2.37.43,2.94,1.28Zm-7.56,3.5v2.23h6.88v-2.47c0-.89-.21-1.64-.64-2.24-.43-.6-1.05-.9-1.86-.9-1.51,0-2.96,1.13-4.37,3.38Zm2.56-7.77h1.5v1.62h-1.5v-1.62Z" fill="#231f20"/>
          <path d="m267.13,264.27c.58.85.87,1.85.87,2.99v4.14h-10.87v-1.4h.89v-10.34h1.55v6.13c.49-.62.94-1.12,1.34-1.5s.87-.7,1.41-.94c.54-.24,1.16-.36,1.86-.36,1.39,0,2.37.43,2.94,1.28Zm-7.56,3.5v2.23h6.88v-2.47c0-.89-.21-1.64-.64-2.24-.43-.6-1.05-.9-1.86-.9-1.51,0-2.96,1.13-4.37,3.38Z" fill="#231f20"/>
        </g>
      </g>
      <g>
        <path d="m248.62,179.67h-5.79v-3.21h9.2v16.82h-3.42v-13.61Z" fill="#231f20"/>
        <g>
          <path d="m235.68,213.55c0,.74.21,1.3.63,1.71.42.4,1.05.6,1.9.6.33,0,.77-.03,1.33-.09s1.14-.15,1.74-.26l.18,1.22c-.56.13-1.17.25-1.81.35-.65.1-1.23.16-1.75.16-1.23,0-2.17-.33-2.82-.99-.65-.66-.97-1.59-.97-2.8,0-1.11.29-1.95.86-2.51s1.42-.85,2.56-.85c.55,0,1.07.06,1.55.17.48.12.87.25,1.15.4v-4.09c0-1.05-.53-1.58-1.6-1.58-.49,0-1.64.09-3.43.26l-.05-1.11c.6-.14,1.27-.27,2.01-.37.74-.1,1.35-.16,1.83-.16.87,0,1.55.21,2.04.63s.74,1.14.74,2.15v5.62h-1.55c-.3-.14-.67-.27-1.11-.39s-.88-.17-1.31-.17c-1.41,0-2.11.69-2.11,2.08Zm1.72-12.91h1.5v1.62h-1.5v-1.62Z" fill="#231f20"/>
          <path d="m245.33,213.55c0,.74.21,1.3.63,1.71.42.4,1.05.6,1.9.6.33,0,.77-.03,1.33-.09s1.14-.15,1.74-.26l.18,1.22c-.56.13-1.17.25-1.81.35-.65.1-1.23.16-1.75.16-1.23,0-2.17-.33-2.82-.99-.65-.66-.97-1.59-.97-2.8,0-1.11.29-1.95.86-2.51s1.42-.85,2.56-.85c.55,0,1.07.06,1.55.17.48.12.87.25,1.15.4v-4.09c0-1.05-.53-1.58-1.6-1.58-.49,0-1.64.09-3.43.26l-.05-1.11c.6-.14,1.27-.27,2.01-.37.74-.1,1.35-.16,1.83-.16.87,0,1.55.21,2.04.63s.74,1.14.74,2.15v5.62h-1.55c-.3-.14-.67-.27-1.11-.39s-.88-.17-1.31-.17c-1.41,0-2.11.69-2.11,2.08Z" fill="#231f20"/>
          <path d="m254.98,213.55c0,.74.21,1.3.63,1.71.42.4,1.05.6,1.9.6.33,0,.77-.03,1.33-.09s1.14-.15,1.74-.26l.18,1.22c-.56.13-1.17.25-1.81.35-.65.1-1.23.16-1.75.16-1.23,0-2.17-.33-2.82-.99-.65-.66-.97-1.59-.97-2.8,0-1.11.29-1.95.86-2.51s1.42-.85,2.56-.85c.55,0,1.07.06,1.55.17.48.12.87.25,1.15.4v-4.09c0-1.05-.53-1.58-1.6-1.58-.49,0-1.64.09-3.43.26l-.05-1.11c.6-.14,1.27-.27,2.01-.37.74-.1,1.35-.16,1.83-.16.87,0,1.55.21,2.04.63s.74,1.14.74,2.15v5.62h-1.55c-.3-.14-.67-.27-1.11-.39s-.88-.17-1.31-.17c-1.41,0-2.11.69-2.11,2.08Zm2.39-.4h1.39v1.57h-1.39v-1.57Z" fill="#231f20"/>
        </g>
      </g>
      <g>
        <path d="m241.46,117.08h3.47v3.19c0,.7.1,1.24.29,1.63s.4.59.62.59c.2,0,.39-.19.56-.56.17-.37.25-.9.25-1.58v-3.26h2.6v3.26c0,.71.06,1.25.17,1.61.11.36.36.54.75.54s.66-.19.8-.56c.14-.37.22-.91.22-1.61v-3.24h3.13v3.29c0,1.65-.36,2.93-1.07,3.85-.71.92-1.72,1.38-3.03,1.38-.56,0-1.01-.09-1.34-.28-.33-.19-.66-.49-.98-.92-.31.41-.61.71-.9.9-.3.2-.64.29-1.03.29-.24,0-.44-.03-.6-.1-.16-.07-.33-.16-.5-.28v8.69h-3.42v-16.82Z" fill="#231f20"/>
        <path d="m248.64,140.96l-3.45.68-.17-.59.79-.21c-.2-.15-.35-.34-.45-.55-.1-.21-.15-.44-.15-.67,0-.42.15-.78.44-1.09s.68-.46,1.15-.46c.42,0,.82.13,1.22.4l-.18.74c-.07-.05-.16-.11-.3-.16-.13-.06-.27-.08-.43-.08-.27,0-.5.09-.68.27-.18.18-.26.4-.26.65,0,.31.13.56.4.76l1.85-.5.2.82Zm-2.52,1.37h1.57v10.32h-1.57v-10.32Z" fill="#231f20"/>
      </g>
      <g>
        <path d="m44.27,235.83h3.75l1.33,4.94,2.29,8.56h.05l3.75-13.51h3.64l-5.68,16.82h-3.62l-5.5-16.82Z" fill="#231f20"/>
        <g>
          <path d="m29.75,275.05c-.69-.29-1.24-.71-1.66-1.27s-.63-1.2-.63-1.94c0-.66.14-1.84.43-3.53l1.47.23c-.22,1.52-.33,2.52-.33,3s.13.93.38,1.32.6.68,1.03.9c.43.21.92.32,1.44.32h4.4c.74,0,1.29-.22,1.67-.66.37-.44.56-1.05.56-1.83,0-.55-.18-.97-.53-1.27-.35-.3-.97-.54-1.85-.74-.89-.21-1.59-.44-2.09-.7-.5-.26-.87-.59-1.1-1-.23-.41-.35-.93-.35-1.58,0-1.04.32-1.83.95-2.36.63-.53,1.56-.79,2.78-.79.45,0,.93.03,1.45.08.52.06,1.21.15,2.08.28l-.13,1.3c-1.59-.19-2.68-.28-3.27-.28-1.51,0-2.26.55-2.26,1.65,0,.41.08.73.26.96.17.23.44.42.8.56.36.14.93.31,1.71.51.78.2,1.39.43,1.84.69s.77.6.97,1.01c.2.41.3.93.3,1.56,0,1.26-.32,2.25-.96,2.95s-1.56,1.06-2.75,1.06h-4.42c-.79,0-1.53-.15-2.22-.44Zm2.17,1.62h1.5v1.62h-1.5v-1.62Zm2.31,0h1.48v1.62h-1.48v-1.62Z" fill="#231f20"/>
          <path d="m48.62,263.16v7.22c0,1.75-.22,3.04-.65,3.87s-1.18,1.25-2.25,1.25c-.29,0-.71-.02-1.27-.07-.56-.05-1.07-.11-1.53-.17v-1.39c1.44.15,2.37.23,2.8.23s.73-.2.94-.59c.21-.4.34-1.09.38-2.09h-2.19c-1.22,0-2.06-.37-2.51-1.12-.45-.75-.68-1.74-.68-2.97,0-1.64.32-2.8.96-3.49.64-.69,1.62-1.03,2.94-1.03.84,0,1.86.12,3.07.36Zm-5.24,5.79c.1.38.26.66.5.82.23.16.55.24.97.24h2.21v-5.67c-.49-.09-1-.13-1.5-.13-.6,0-1.07.09-1.4.27-.33.18-.57.5-.71.94-.14.45-.21,1.08-.21,1.9,0,.7.05,1.25.15,1.63Z" fill="#231f20"/>
          <path d="m50.71,270.69l.16-.69h4.45l.17.69-.17.71h-4.45l-.16-.71Z" fill="#231f20"/>
          <path d="m64.29,262.86c.82.4,1.47,1.02,1.95,1.86.48.85.72,1.91.72,3.2v3.48h-11.96l-.16-.71.16-.69h2.01v-1.02c0-.55.14-1.06.42-1.54.28-.48.66-.86,1.13-1.15s1-.43,1.57-.43,1.09.14,1.57.42.85.66,1.12,1.14c.27.48.41,1,.41,1.56v1.02h2.16v-2.06c0-1.58-.41-2.69-1.23-3.32-.82-.63-1.82-.95-2.99-.95-.76,0-1.96.15-3.6.45l-.12-1.22c1.56-.42,2.9-.63,4.02-.63,1.06,0,1.99.2,2.81.59Zm-5.27,4.88c-.3.31-.45.69-.45,1.14v1.12h3.1v-1.14c0-.44-.15-.81-.45-1.12s-.67-.46-1.1-.46-.81.15-1.1.46Z" fill="#231f20"/>
          <path d="m77.25,263.16v8.77c0,.73-.19,1.36-.57,1.9-.38.54-.9.95-1.55,1.24-.65.29-1.38.43-2.19.43-.85,0-1.61-.16-2.29-.47-.68-.31-1.22-.75-1.61-1.29-.39-.55-.59-1.17-.59-1.85,0-.76.21-2.42.64-5l1.53.25c-.18,1.09-.32,2.07-.44,2.95-.12.88-.17,1.48-.17,1.8,0,.42.12.79.36,1.13.24.34.59.6,1.03.79s.95.29,1.53.29c.86,0,1.53-.2,2.01-.59.48-.39.73-.92.73-1.58v-8.77h1.57Zm-5.01-1.62h1.5v1.62h-1.5v-1.62Z" fill="#231f20"/>
        </g>
      </g>
      <g>
        <path d="m58.06,190.17v3.11h-4.03c-.76,0-1.53-.11-2.29-.34-.76-.23-1.41-.62-1.94-1.16-.53-.54-.79-1.24-.79-2.09s.23-1.58.7-2.29c.47-.71,1.01-1.31,1.63-1.8.62-.48,1.18-.83,1.67-1.03-1.21-.19-2.09-.65-2.66-1.4-.57-.75-.85-1.55-.85-2.42s.27-1.61.82-2.28c.54-.67,1.29-1.19,2.24-1.57.95-.37,2-.56,3.16-.56.48,0,.98.03,1.5.1l-.43,2.78c-.51-.05-.91-.08-1.2-.08-.75,0-1.38.19-1.9.56-.52.37-.78.84-.78,1.4,0,.39.12.76.37,1.11.25.35.62.52,1.13.52h2.52l-.23,2.37c-1.16.32-2.16.8-3.01,1.43-.85.63-1.27,1.31-1.27,2.04,0,.54.23.95.7,1.21s.98.39,1.54.39h3.39Z" fill="#231f20"/>
        <g>
          <path d="m32,212.03h-8.43v.66c0,.67-.18,1.27-.55,1.79-.37.52-.88.93-1.54,1.21-.66.29-1.41.43-2.24.43-.92,0-1.72-.17-2.39-.5-.67-.34-1.18-.78-1.53-1.33-.35-.55-.53-1.14-.53-1.76,0-.73.23-2.4.68-5.03l1.5.08c-.15.96-.3,1.89-.44,2.8-.14.91-.21,1.52-.21,1.83,0,.45.12.87.36,1.25.24.38.58.69,1.01.92.43.23.93.34,1.48.34s1.01-.1,1.44-.31c.43-.2.77-.48,1.02-.84.25-.36.37-.76.37-1.2v-8.59h1.57v2.64c.49-.62.94-1.12,1.34-1.5.4-.38.87-.7,1.41-.94.54-.24,1.16-.36,1.86-.36,1.39,0,2.37.43,2.94,1.28.58.85.87,1.85.87,2.99v4.14Zm-8.43-3.63v2.23h6.86v-2.47c0-.89-.21-1.64-.64-2.24-.43-.6-1.04-.9-1.85-.9-1.51,0-2.96,1.13-4.37,3.38Zm2.82-7.77h1.5v1.62h-1.5v-1.62Z" fill="#231f20"/>
          <path d="m51.2,212.03h-8.43v.66c0,.67-.18,1.27-.55,1.79-.37.52-.88.93-1.54,1.21-.66.29-1.41.43-2.24.43-.92,0-1.72-.17-2.39-.5-.67-.34-1.18-.78-1.53-1.33-.35-.55-.53-1.14-.53-1.76,0-.73.23-2.4.68-5.03l1.5.08c-.15.96-.3,1.89-.44,2.8-.14.91-.21,1.52-.21,1.83,0,.45.12.87.36,1.25.24.38.58.69,1.01.92.43.23.93.34,1.48.34s1.01-.1,1.44-.31c.43-.2.77-.48,1.02-.84.25-.36.37-.76.37-1.2v-8.59h1.57v2.64c.49-.62.94-1.12,1.34-1.5.4-.38.87-.7,1.41-.94.54-.24,1.16-.36,1.86-.36,1.39,0,2.37.43,2.94,1.28.58.85.87,1.85.87,2.99v4.14Zm-8.43-3.63v2.23h6.86v-2.47c0-.89-.21-1.64-.64-2.24-.43-.6-1.04-.9-1.85-.9-1.51,0-2.96,1.13-4.37,3.38Z" fill="#231f20"/>
          <path d="m70.28,205.8c.1.72.15,1.27.15,1.64v4.58h-3.17c-.67,0-1.29-.22-1.85-.66-.41.44-.93.66-1.58.66h-1.86v.66c0,.67-.18,1.27-.55,1.79-.37.52-.88.93-1.54,1.21-.66.29-1.41.43-2.26.43-.92,0-1.72-.17-2.39-.5-.67-.34-1.18-.78-1.53-1.34-.35-.56-.52-1.15-.52-1.79,0-.7.23-2.37.68-5l1.5.08c-.43,2.45-.64,4-.64,4.63,0,.45.12.87.35,1.25s.57.69,1.01.91c.43.22.93.33,1.49.33.53,0,1.01-.1,1.44-.31.43-.2.77-.48,1.02-.83.25-.35.37-.75.37-1.19v-7.77h1.57v6.02h1.35c.48,0,.84-.2,1.06-.61.23-.41.34-.92.34-1.53v-3.88h1.55v3.86c0,.64-.07,1.19-.21,1.67.15.13.34.25.57.35.23.1.45.15.67.15h1.58v-3.18c0-.77-.09-1.97-.26-3.61l1.32-.05c.13.63.25,1.3.35,2.02Zm-6.6-5.12h1.4v1.57h-1.4v-1.57Zm1.12-2.09h1.35v1.5h-1.35v-1.5Zm1.09,2.09h1.39v1.57h-1.39v-1.57Z" fill="#231f20"/>
          <path d="m89.62,205.8c.1.72.15,1.27.15,1.64v4.58h-3.17c-.67,0-1.29-.22-1.85-.66-.41.44-.93.66-1.58.66h-1.86v.66c0,.67-.18,1.27-.55,1.79-.37.52-.88.93-1.54,1.21-.66.29-1.41.43-2.26.43-.92,0-1.72-.17-2.39-.5-.67-.34-1.18-.78-1.53-1.34-.35-.56-.52-1.15-.52-1.79,0-.7.23-2.37.68-5l1.5.08c-.43,2.45-.64,4-.64,4.63,0,.45.12.87.35,1.25s.57.69,1.01.91c.43.22.93.33,1.49.33.53,0,1.01-.1,1.44-.31.43-.2.77-.48,1.02-.83.25-.35.37-.75.37-1.19v-7.77h1.57v6.02h1.35c.48,0,.84-.2,1.06-.61.23-.41.34-.92.34-1.53v-3.88h1.55v3.86c0,.64-.07,1.19-.21,1.67.15.13.34.25.57.35.23.1.45.15.67.15h1.58v-3.18c0-.77-.09-1.97-.26-3.61l1.32-.05c.13.63.25,1.3.35,2.02Z" fill="#231f20"/>
        </g>
      </g>
      <g>
        <path d="m53.37,117.08h3.42v16.82h-3.42v-16.82Z" fill="#231f20"/>
        <path d="m52.67,150.51h1.67v2.14h-1.67v-2.14Z" fill="#231f20"/>
      </g>
      <path d="m148.03,315.74h3.67v4.23h-3.67v-4.23Z" fill="#231f20"/>
      <path d="m235.5,316.18h-2.45v-2.85h2.45v-3.21h-2.45v-2.85h2.45v-4.1h2.96v4.1h2.65v-4.1h2.96v4.1h2.45v2.85h-2.45v3.21h2.45v2.85h-2.45v3.8h-2.96v-3.8h-2.65v3.8h-2.96v-3.8Zm5.61-2.85v-3.21h-2.65v3.21h2.65Z" fill="#231f20"/>
      <path d="m58.36,313.73l-2.62,2.01-1.2-1.5,2.68-1.99-2.6-1.86,1.17-1.61,2.57,1.86.99-3.08,1.91.64-.97,3.11h3.13v1.89h-3.13l.97,3.06-1.86.56-1.04-3.08Z" fill="#231f20"/>
    </g>
  </g>
</svg>