<?xml version="1.0" encoding="UTF-8"?>
<svg id="Layer_2" data-name="Layer 2" xmlns="http://www.w3.org/2000/svg" viewBox="0 0 410.09 414.09">
<style>
path, rect, circle, polygon, ellipse {
  fill: black;
}

@media (prefers-color-scheme: dark) {
  path, rect, circle, polygon, ellipse {
    fill: white;
  }
}
</style>
  <g id="Layer_1-2" data-name="Layer 1">
    <g>
      <g opacity=".5">
        <path d="m204.04,383.95c-95.88,0-173.89-78.01-173.89-173.89S108.15,36.16,204.04,36.16s173.89,78.01,173.89,173.89-78.01,173.89-173.89,173.89Zm0-341.79c-92.58,0-167.89,75.32-167.89,167.89s75.32,167.89,167.89,167.89,167.89-75.32,167.89-167.89S296.62,42.16,204.04,42.16Z" fill="#d1d3d4"/>
      </g>
      <g opacity=".5">
        <path d="m204.04,414.09C91.53,414.09,0,322.56,0,210.05S91.53,6.01,204.04,6.01s204.04,91.53,204.04,204.04-91.53,204.04-204.04,204.04Zm0-402.08C94.84,12.01,6,100.85,6,210.05s88.84,198.04,198.04,198.04,198.04-88.84,198.04-198.04S313.24,12.01,204.04,12.01Z" fill="#e6e7e8"/>
      </g>
      <g opacity=".5">
        <path d="m204.04,352.27c-78.42,0-142.22-63.8-142.22-142.22S125.62,67.84,204.04,67.84s142.22,63.8,142.22,142.22-63.8,142.22-142.22,142.22Zm0-278.43c-75.11,0-136.22,61.11-136.22,136.22s61.11,136.22,136.22,136.22,136.22-61.11,136.22-136.22-61.11-136.22-136.22-136.22Z" fill="#bcbec0"/>
      </g>
      <g>
        <path d="m204.04,106.43c27.68,0,53.7,10.78,73.27,30.35,19.57,19.57,30.35,45.59,30.35,73.27s-10.78,53.7-30.35,73.27c-19.57,19.57-45.59,30.35-73.27,30.35s-53.7-10.78-73.27-30.35c-19.57-19.57-30.35-45.59-30.35-73.27s10.78-53.7,30.35-73.27c19.57-19.57,45.59-30.35,73.27-30.35h0Zm0-10.36c-62.95,0-113.98,51.03-113.98,113.98s51.03,113.98,113.98,113.98,113.98-51.03,113.98-113.98-51.03-113.98-113.98-113.98h0Z"/>
        <g>
          <path d="m254.03,141.16v3.02h-10.14v-3.02h3.55v-7.57c-.15.2-.39.4-.71.61-.32.21-.68.4-1.06.59-.38.18-.78.33-1.19.45-.41.12-.77.17-1.09.17v-3.12c.3,0,.67-.1,1.1-.29.43-.19.86-.42,1.27-.69.42-.27.78-.53,1.09-.79.31-.26.5-.46.59-.61h3.42v11.24h3.17Z"/>
          <path d="m273.98,176.32c0-.75.06-1.43.17-2.04.12-.61.32-1.17.61-1.69.29-.52.69-1,1.2-1.45.51-.45,1.15-.89,1.94-1.32.68-.37,1.29-.69,1.81-.96.52-.27.96-.53,1.31-.76.35-.23.62-.47.8-.71.18-.24.27-.52.27-.84,0-.5-.2-.93-.6-1.29-.4-.36-.97-.54-1.72-.54-.4,0-.77.05-1.1.16-.33.11-.65.25-.94.44-.29.18-.56.39-.8.61-.24.22-.46.46-.66.71l-2.15-2.47c.22-.23.52-.49.92-.76.4-.27.87-.53,1.41-.77.54-.24,1.14-.44,1.8-.6.66-.16,1.36-.24,2.11-.24.85,0,1.61.1,2.27.31.67.21,1.23.5,1.69.87.46.37.81.82,1.05,1.35.24.52.36,1.09.36,1.71,0,.58-.11,1.1-.32,1.55-.22.45-.49.85-.82,1.2-.33.35-.69.65-1.09.91-.39.26-.77.49-1.14.69-.3.17-.64.36-1.02.57-.38.22-.76.45-1.14.71-.37.26-.72.52-1.04.8-.32.28-.56.55-.72.81h7.57v3.02h-12.04Z"/>
          <path d="m293.61,210.69c1.03.18,1.87.68,2.51,1.49.64.81.96,1.79.96,2.96,0,.78-.15,1.49-.46,2.12-.31.63-.74,1.17-1.3,1.61-.56.44-1.24.78-2.04,1.02-.8.24-1.7.36-2.7.36-1.27,0-2.38-.2-3.36-.61-.97-.41-1.79-1-2.43-1.79l1.9-2.37c.43.55.95.97,1.55,1.27.6.3,1.35.45,2.25.45,1.02,0,1.79-.2,2.32-.6.53-.4.8-1.02.8-1.85s-.31-1.53-.92-2c-.62-.47-1.55-.7-2.8-.7h-.7v-2.5h.77c1.03,0,1.83-.23,2.4-.69.57-.46.85-1.04.85-1.76s-.23-1.19-.7-1.52c-.47-.33-1.07-.5-1.82-.5s-1.45.17-2.06.52c-.61.35-1.1.84-1.49,1.47l-2.1-2.35c.25-.38.58-.73,1-1.04.42-.31.89-.57,1.41-.8.52-.22,1.09-.4,1.71-.52.62-.12,1.25-.19,1.9-.19.85,0,1.62.11,2.32.32.7.22,1.3.52,1.81.9.51.38.9.85,1.17,1.39.28.54.41,1.14.41,1.81,0,.5-.07.97-.22,1.42-.15.45-.37.86-.65,1.22-.28.37-.62.67-1.01.92-.39.25-.82.42-1.29.5Z"/>
          <path d="m280.05,260.18v-3.72h-7.29v-2.97l8.37-10.74h2.27v10.71h2.2v3h-2.2v3.72h-3.35Zm-3.95-6.72h4.32v-5.64l-4.32,5.64Z"/>
          <path d="m248.14,281.58c.83,0,1.61.14,2.32.41.72.27,1.33.66,1.85,1.16.52.5.92,1.1,1.21,1.8.29.7.44,1.47.44,2.32,0,.9-.16,1.71-.49,2.45-.32.73-.78,1.36-1.36,1.89-.58.53-1.27.93-2.07,1.22-.8.29-1.66.44-2.6.44-1.3,0-2.46-.27-3.48-.82-1.02-.55-1.8-1.3-2.33-2.25l1.92-2c.47.65,1.05,1.17,1.75,1.55.7.38,1.42.58,2.17.58.9,0,1.64-.27,2.21-.81.57-.54.86-1.26.86-2.16s-.27-1.56-.81-2.1c-.54-.53-1.23-.8-2.06-.8-.55,0-1.06.12-1.54.37-.47.25-.85.59-1.14,1.02h-2.92s.03-.24.1-.56c.07-.32.15-.74.25-1.25.1-.51.21-1.07.32-1.7.12-.63.24-1.26.38-1.91.3-1.53.63-3.25,1-5.15h8.74v3.05h-6.32l-.72,3.97c.2-.22.5-.39.89-.52.39-.13.87-.2,1.44-.2Z"/>
          <path d="m210.26,298.8c0,.87-.17,1.67-.5,2.42-.33.75-.79,1.4-1.37,1.96-.58.56-1.27.99-2.06,1.31-.79.32-1.64.47-2.56.47-1,0-1.9-.18-2.71-.55-.81-.37-1.49-.9-2.06-1.6-.57-.7-1-1.55-1.3-2.56-.3-1.01-.45-2.15-.45-3.43,0-1.61.16-3.04.47-4.28.32-1.24.77-2.28,1.37-3.12.6-.84,1.32-1.48,2.17-1.91.85-.43,1.8-.65,2.85-.65,1.12,0,2.14.24,3.08.72.94.48,1.74,1.17,2.38,2.07l-1.92,2.1c-.4-.63-.92-1.12-1.55-1.47-.63-.35-1.32-.52-2.05-.52-1.12,0-2.01.44-2.67,1.32-.67.88-1.02,2.13-1.05,3.75.35-.6.85-1.07,1.49-1.42.64-.35,1.39-.53,2.24-.53s1.68.15,2.44.45c.76.3,1.42.72,1.97,1.25.56.53.99,1.16,1.31,1.89.32.72.47,1.5.47,2.33Zm-6.47,3.35c.43,0,.85-.09,1.25-.26.4-.18.75-.42,1.05-.72.3-.31.54-.67.71-1.07.17-.41.26-.84.26-1.29s-.09-.87-.26-1.26c-.17-.39-.41-.74-.71-1.04-.3-.3-.65-.53-1.04-.7-.39-.17-.81-.25-1.26-.25s-.87.08-1.27.25c-.4.17-.75.4-1.05.7-.3.3-.53.65-.7,1.04-.17.39-.25.81-.25,1.26s.09.88.26,1.29c.17.41.41.76.71,1.06.3.3.65.54,1.04.72.39.18.81.27,1.26.27Z"/>
          <path d="m163.7,278.03h-8.07v-3.05h13.34l-8.79,17.73h-3.8l7.32-14.69Z"/>
          <path d="m136.11,256.92c0,.83-.17,1.58-.51,2.25-.34.67-.81,1.24-1.4,1.72-.59.48-1.28.85-2.06,1.11-.78.26-1.61.39-2.5.39s-1.71-.14-2.5-.41c-.78-.27-1.47-.66-2.05-1.16-.58-.5-1.04-1.09-1.37-1.77-.33-.68-.5-1.43-.5-2.25,0-.5.08-.96.25-1.39.17-.42.38-.81.65-1.16.27-.35.56-.66.89-.92.32-.27.65-.48.99-.65-.62-.3-1.14-.75-1.57-1.35-.43-.6-.65-1.26-.65-1.97,0-.8.18-1.5.54-2.11.36-.61.82-1.12,1.4-1.54.57-.42,1.21-.73,1.9-.95.69-.22,1.38-.32,2.06-.32s1.35.1,2.06.31c.71.21,1.34.52,1.91.94.57.42,1.03.93,1.4,1.53.37.61.55,1.31.55,2.11,0,.35-.06.7-.17,1.04-.12.34-.28.66-.49.95-.21.29-.45.55-.74.79-.28.23-.58.42-.9.57.37.18.72.41,1.05.69.33.27.63.59.9.95.27.36.48.75.64,1.19.16.43.24.91.24,1.42Zm-3.4-.2c0-.42-.09-.79-.26-1.12-.17-.33-.41-.61-.7-.84-.29-.23-.62-.39-.99-.51-.37-.12-.74-.18-1.12-.18s-.78.06-1.15.19c-.37.12-.69.3-.96.54-.27.23-.5.51-.66.84-.17.32-.25.69-.25,1.09s.09.76.26,1.09c.18.32.4.6.69.84.28.23.61.41.97.54.37.12.74.19,1.12.19s.78-.07,1.15-.2c.37-.13.69-.32.97-.55.28-.23.51-.51.67-.84.17-.32.25-.68.25-1.06Zm-5.54-7.27c0,.35.07.65.22.91.15.26.35.47.59.65.24.18.51.31.8.4.29.09.59.14.89.14.28,0,.57-.04.87-.14.3-.09.57-.23.81-.41.24-.18.44-.4.59-.66.15-.26.22-.56.22-.91,0-.62-.25-1.11-.74-1.47-.49-.37-1.09-.55-1.79-.55s-1.27.19-1.75.56c-.48.37-.72.87-.72,1.49Z"/>
          <path d="m111.37,207.71c0-.87.17-1.67.5-2.42.33-.75.79-1.4,1.36-1.96.57-.56,1.26-.99,2.05-1.31.79-.32,1.64-.47,2.56-.47,1,0,1.9.18,2.71.55.81.37,1.49.9,2.06,1.6.57.7,1,1.55,1.31,2.56.31,1.01.46,2.15.46,3.43,0,1.61-.16,3.04-.49,4.28-.32,1.24-.78,2.28-1.37,3.12-.59.84-1.31,1.48-2.16,1.91-.85.43-1.8.65-2.85.65-1.12,0-2.15-.24-3.1-.72-.95-.48-1.75-1.17-2.4-2.07l1.92-2.1c.4.63.92,1.12,1.55,1.47.63.35,1.32.53,2.07.53,1.12,0,2-.44,2.66-1.32.66-.88,1-2.13,1.04-3.75-.33.6-.82,1.07-1.47,1.42-.65.35-1.4.52-2.25.52s-1.7-.15-2.45-.45c-.75-.3-1.4-.72-1.95-1.25-.55-.53-.98-1.16-1.3-1.89-.32-.72-.47-1.5-.47-2.34Zm6.47-3.35c-.45,0-.87.09-1.26.26-.39.18-.74.42-1.04.72-.3.31-.54.67-.71,1.07-.17.41-.26.84-.26,1.29s.09.87.26,1.26c.17.39.41.74.7,1.04.29.3.64.53,1.04.7.4.17.82.25,1.27.25s.87-.08,1.27-.25c.4-.17.75-.4,1.04-.7.29-.3.52-.64.7-1.04.17-.39.26-.81.26-1.26s-.09-.88-.26-1.29c-.17-.41-.41-.76-.71-1.06-.3-.3-.65-.54-1.04-.72-.39-.18-.81-.27-1.26-.27Z"/>
          <g>
            <path d="m133.19,173.3v3.02h-10.14v-3.02h3.55v-7.57c-.15.2-.39.4-.71.61-.32.21-.68.4-1.06.59-.38.18-.78.33-1.19.45-.41.12-.77.17-1.09.17v-3.12c.3,0,.67-.09,1.1-.29.43-.19.86-.42,1.27-.69.42-.27.78-.53,1.09-.79.31-.26.5-.46.59-.61h3.42v11.24h3.17Z"/>
            <path d="m147.9,169c0,1.1-.16,2.11-.49,3.03-.33.92-.77,1.72-1.35,2.4-.57.67-1.26,1.2-2.05,1.57-.79.37-1.64.56-2.56.56s-1.79-.19-2.57-.56c-.78-.37-1.46-.9-2.04-1.57-.57-.67-1.02-1.47-1.35-2.4-.32-.92-.49-1.94-.49-3.03s.16-2.11.49-3.03c.32-.92.77-1.72,1.35-2.4.57-.67,1.25-1.2,2.04-1.59.78-.38,1.64-.57,2.57-.57s1.77.19,2.56.57c.79.38,1.47.91,2.05,1.59.57.67,1.02,1.47,1.35,2.4.32.92.49,1.94.49,3.03Zm-3.37,0c0-.67-.07-1.28-.22-1.84-.15-.56-.36-1.04-.64-1.44-.28-.4-.6-.71-.97-.92-.37-.22-.79-.32-1.24-.32s-.89.11-1.26.32c-.37.22-.7.52-.97.92-.27.4-.49.88-.64,1.44-.15.56-.22,1.17-.22,1.84s.07,1.27.22,1.82c.15.55.36,1.02.64,1.42.27.4.6.71.97.92.37.22.79.32,1.26.32s.86-.11,1.24-.32c.37-.22.7-.52.97-.92.27-.4.49-.87.64-1.42.15-.55.22-1.16.22-1.82Z"/>
          </g>
          <g>
            <path d="m164.45,141.16v3.02h-10.14v-3.02h3.55v-7.57c-.15.2-.39.4-.71.61-.32.21-.68.4-1.06.59-.38.18-.78.33-1.19.45-.41.12-.77.17-1.09.17v-3.12c.3,0,.67-.09,1.1-.29.43-.19.86-.42,1.27-.69.42-.27.78-.53,1.09-.79.31-.26.5-.46.59-.61h3.42v11.24h3.17Z"/>
            <path d="m176.78,141.16v3.02h-10.14v-3.02h3.55v-7.57c-.15.2-.39.4-.71.61-.32.21-.68.4-1.06.59-.38.18-.78.33-1.19.45-.41.12-.77.17-1.09.17v-3.12c.3,0,.67-.09,1.1-.29.43-.19.86-.42,1.27-.69.42-.27.78-.53,1.09-.79.31-.26.5-.46.59-.61h3.42v11.24h3.17Z"/>
          </g>
          <g>
            <path d="m202.61,130.45v3.02h-10.14v-3.02h3.55v-7.57c-.15.2-.39.4-.71.61-.32.21-.68.4-1.06.59-.38.18-.78.33-1.19.45-.41.12-.77.17-1.09.17v-3.12c.3,0,.67-.1,1.1-.29.43-.19.86-.42,1.27-.69.42-.27.78-.53,1.09-.79.31-.26.5-.46.59-.61h3.42v11.24h3.17Z"/>
            <path d="m204.16,133.48c0-.75.06-1.43.17-2.04.12-.61.32-1.17.61-1.69.29-.52.69-1,1.2-1.45.51-.45,1.15-.89,1.94-1.32.68-.37,1.29-.69,1.81-.96.52-.27.96-.53,1.31-.76.35-.23.62-.47.8-.71.18-.24.27-.52.27-.84,0-.5-.2-.93-.6-1.29-.4-.36-.97-.54-1.72-.54-.4,0-.77.05-1.1.16-.33.11-.65.25-.94.44-.29.18-.56.39-.8.61-.24.22-.46.46-.66.71l-2.15-2.47c.22-.23.52-.49.92-.76.4-.27.87-.53,1.41-.77.54-.24,1.14-.44,1.8-.6.66-.16,1.36-.24,2.11-.24.85,0,1.61.1,2.27.31.67.21,1.23.5,1.69.87.46.37.81.82,1.05,1.35.24.52.36,1.1.36,1.71,0,.58-.11,1.1-.32,1.55-.22.45-.49.85-.82,1.2-.33.35-.69.65-1.09.91-.39.26-.77.49-1.14.69-.3.17-.64.36-1.02.57-.38.22-.76.45-1.14.71-.37.26-.72.52-1.04.8-.32.28-.56.55-.72.81h7.57v3.02h-12.04Z"/>
          </g>
        </g>
        <path d="m270.97,210.12l-5.75-3.25c-.89-.5-2,.13-2.02,1.16l-.03,1.7h-80.05c-.91,0-1.65.74-1.65,1.65h0c0,.91.74,1.65,1.65,1.65h80.03l-.02,1.6c-.02,1.05,1.12,1.71,2.02,1.19l5.82-3.35c.91-.52.9-1.83,0-2.35Z"/>
        <path d="m212.31,162.67l-4.3,5.01c-.67.78-.26,1.99.74,2.2l1.67.35-10.89,55.29c-.18.89.4,1.76,1.3,1.93h0c.89.18,1.76-.4,1.93-1.3l10.88-55.27,1.57.33c1.03.22,1.9-.76,1.56-1.76l-2.16-6.36c-.34-.99-1.62-1.24-2.3-.45Z"/>
        <path d="m211,211.16c0,3.84-3.12,6.96-6.96,6.96s-6.96-3.12-6.96-6.96,3.12-6.96,6.96-6.96,6.96,3.12,6.96,6.96Z"/>
      </g>
      <g>
        <g>
          <path d="m351.25,199.72v10h-7.82c-1.23,0-2.23-.1-3-.3s-1.36-.55-1.75-1.05-.59-1.2-.59-2.09c0-.56.06-1.25.19-2.06.13-.81.27-1.59.43-2.32l1.86.38c-.17.77-.31,1.53-.42,2.26s-.16,1.31-.16,1.74c0,.49.09.86.26,1.1.17.24.5.41.98.5.48.09,1.21.14,2.2.14h5.92v-8.3h1.9Zm-8.54-1.9h1.7v1.9h-1.7v-1.9Zm1.36-2.54h1.64v1.82h-1.64v-1.82Zm1.32,2.54h1.68v1.9h-1.68v-1.9Z" fill="#231f20"/>
          <path d="m378.52,201.07c.7,1.03,1.05,2.24,1.05,3.63v5.02h-13.18v-1.7h1.08v-12.54h1.88v7.44c.6-.75,1.14-1.35,1.63-1.82.49-.47,1.06-.85,1.71-1.14s1.41-.44,2.26-.44c1.68,0,2.87.52,3.57,1.55Zm-9.17,4.25v2.7h8.34v-3c0-1.08-.26-1.98-.78-2.71-.52-.73-1.27-1.09-2.26-1.09-1.83,0-3.59,1.37-5.3,4.1Z" fill="#231f20"/>
          <path d="m397.54,214.15c-.83-.35-1.5-.87-2.01-1.54-.51-.67-.76-1.46-.76-2.35,0-.8.17-2.23.52-4.28l1.78.28c-.27,1.84-.4,3.05-.4,3.64s.15,1.13.46,1.6c.31.47.72.83,1.25,1.09.53.26,1.11.39,1.75.39h5.34c.89,0,1.57-.27,2.02-.8s.68-1.27.68-2.22c0-.67-.21-1.18-.64-1.54-.43-.36-1.17-.66-2.24-.9-1.08-.25-1.92-.54-2.53-.85s-1.05-.72-1.33-1.21-.42-1.13-.42-1.92c0-1.27.38-2.22,1.15-2.86.77-.64,1.89-.96,3.37-.96.55,0,1.13.03,1.76.1.63.07,1.47.18,2.52.34l-.16,1.58c-1.93-.23-3.25-.34-3.96-.34-1.83,0-2.74.67-2.74,2,0,.49.1.88.31,1.16.21.28.53.51.97.68.44.17,1.13.38,2.08.62.95.24,1.69.52,2.23.84.54.32.93.73,1.18,1.23.25.5.37,1.13.37,1.89,0,1.53-.39,2.73-1.17,3.58s-1.89,1.28-3.33,1.28h-5.36c-.96,0-1.86-.18-2.69-.53Zm2.63,1.97h1.82v1.96h-1.82v-1.96Zm2.8,0h1.8v1.96h-1.8v-1.96Z" fill="#231f20"/>
        </g>
        <g>
          <path d="m38.39,195.48v14.24h-7.46c-1.23,0-2.23-.1-3-.3-.77-.2-1.36-.55-1.75-1.05-.39-.5-.59-1.2-.59-2.09,0-.84.17-2.11.5-3.8l1.56.08-.08.64c-.19,1.25-.28,2.13-.28,2.64,0,.77.26,1.33.77,1.67.51.34,1.44.51,2.77.51h5.66v-12.54h1.9Zm-4.4,6.4l-4.18.82-.2-.72.96-.26c-.24-.19-.42-.41-.54-.67s-.18-.53-.18-.81c0-.51.18-.95.54-1.32.36-.37.83-.56,1.4-.56.51,0,1,.16,1.48.48l-.22.9c-.08-.07-.2-.13-.36-.2s-.33-.1-.52-.1c-.33,0-.61.11-.82.33-.21.22-.32.48-.32.79,0,.37.16.68.48.92l2.24-.6.24,1Z" fill="#231f20"/>
          <path d="m63.82,214.66c-.18-.01-.34-.03-.47-.04l-.42-.04v-1.68c.61.05.99.08,1.12.08.59,0,1.03-.24,1.33-.71s.45-1.13.45-1.97v-10.58h1.88v10.2c0,3.17-1.1,4.76-3.3,4.76-.21,0-.41,0-.59-.02Z" fill="#231f20"/>
        </g>
        <g>
          <path d="m56.02,276.83l5.25,9.09c.42.73.63,1.47.65,2.24.01.76-.21,1.49-.65,2.19-.45.7-1.11,1.3-2,1.81l-4.87,2.81c-.89.51-1.74.79-2.56.82-.82.04-1.55-.14-2.21-.54s-1.19-.96-1.62-1.7c-.55-.96-1.31-2.77-2.26-5.44l1.75-.69c.4,1.11.79,2.14,1.18,3.09.39.95.72,1.64.97,2.08.45.77,1,1.24,1.66,1.39.66.15,1.4-.01,2.23-.49l4.87-2.81c.83-.48,1.35-1.05,1.56-1.7.21-.65.09-1.36-.35-2.12l-.37-.64-2.39,1.38c-.83.48-1.54.75-2.14.8-.59.05-1.17-.15-1.71-.6s-1.14-1.24-1.78-2.34c-.67-1.15-1.07-2.13-1.2-2.93s.01-1.52.43-2.17c.42-.64,1.16-1.27,2.21-1.88.79-.45,1.9-1,3.34-1.65Zm-6.99-.63l1.58-.91.98,1.7-1.58.91-.98-1.7Zm2.42-1.4l1.56-.9.98,1.7-1.56.9-.98-1.7Zm6.95,9.96l-3.26-5.65c-.6.3-1.13.58-1.61.86-.7.41-1.18.78-1.43,1.13-.25.34-.31.77-.2,1.28s.44,1.22.97,2.13c.47.81.84,1.36,1.12,1.66.28.3.56.44.85.42.28-.02.67-.17,1.17-.46l2.39-1.38Z" fill="#231f20"/>
          <path d="m72.13,262.22l1.58-.91.98,1.7-1.58.91-.98-1.7Zm6,1.86c.91,0,1.81.33,2.72.98.91.64,1.76,1.65,2.56,3.03l1.82,3.15-7.24,4.18-.85-1.47,5.61-3.24-.92-1.59c-.95-1.64-1.93-2.61-2.96-2.92-1.02-.31-1.96-.22-2.82.28l-1.51.87-.83-1.16c.14-.16.39-.38.75-.66.36-.28.71-.53,1.06-.73.83-.48,1.7-.72,2.61-.71Z" fill="#231f20"/>
        </g>
        <g>
          <path d="m322.79,275.75c-.45.77-.57,1.5-.38,2.17.19.67.74,1.27,1.63,1.78.35.2.83.44,1.45.71.62.27,1.28.54,1.98.79l-.55,1.39c-.67-.2-1.38-.45-2.12-.73-.74-.28-1.39-.58-1.93-.89-1.29-.75-2.08-1.66-2.36-2.75-.28-1.09-.06-2.26.68-3.54.67-1.17,1.48-1.87,2.43-2.12.94-.25,2.01-.03,3.2.66.58.33,1.08.71,1.52,1.12.44.41.76.79.97,1.12l2.48-4.29c.64-1.11.4-1.99-.72-2.63-.52-.3-1.77-.9-3.76-1.8l.62-1.19c.72.21,1.5.49,2.34.83.84.34,1.51.65,2.02.94.91.53,1.5,1.16,1.76,1.91.26.74.09,1.65-.53,2.71l-3.41,5.91-1.63-.94c-.22-.33-.54-.69-.93-1.08-.4-.39-.82-.72-1.27-.98-1.48-.85-2.64-.55-3.48.9Zm2.75,1.04l1.45.84-.95,1.64-1.45-.84.95-1.64Z" fill="#231f20"/>
          <path d="m361.56,286.02c.09,1.25-.21,2.47-.91,3.67l-2.51,4.35-11.41-6.59.85-1.47.94.54,6.27-10.86,1.63.94-3.72,6.44c.89-.35,1.67-.6,2.32-.76.65-.16,1.34-.21,2.05-.13.71.07,1.44.32,2.18.75,1.46.84,2.23,1.88,2.32,3.13Zm-10.07-.9l-1.35,2.34,7.22,4.17,1.5-2.6c.54-.94.77-1.85.68-2.74-.09-.89-.56-1.58-1.41-2.07-1.58-.91-3.8-.61-6.64.9Zm7.39-6.61l1.58.91-.98,1.7-1.58-.91.98-1.7Z" fill="#231f20"/>
        </g>
        <g>
          <path d="m328.35,132.95l5,8.66-6.77,3.91c-1.06.61-1.98,1.03-2.75,1.24-.77.21-1.45.2-2.04-.03s-1.11-.74-1.56-1.52c-.28-.48-.57-1.11-.87-1.88s-.56-1.51-.79-2.22l1.8-.6c.24.76.49,1.48.77,2.17.28.69.52,1.22.73,1.59.25.43.5.7.78.82.27.12.64.1,1.1-.06.46-.16,1.12-.49,1.98-.98l5.13-2.96-4.15-7.19,1.65-.95Zm-8.45,2.64l1.58-.91.98,1.7-1.58.91-.98-1.7Zm2.43-1.4l1.56-.9.98,1.7-1.56.9-.98-1.7Z" fill="#231f20"/>
          <path d="m364.89,123.4l-8.85,5.11.4.69c.41.7.58,1.44.51,2.21-.07.77-.37,1.51-.88,2.21-.52.7-1.22,1.3-2.1,1.81-.97.56-1.91.87-2.82.92s-1.71-.1-2.42-.46c-.7-.36-1.24-.87-1.62-1.53-.44-.76-1.22-2.66-2.34-5.69l1.63-.82c.42,1.1.83,2.17,1.24,3.21.41,1.04.71,1.72.89,2.05.27.47.65.84,1.14,1.1.49.26,1.03.37,1.62.35.59-.03,1.18-.21,1.75-.54.55-.32,1-.72,1.33-1.2.33-.48.52-.98.56-1.5.04-.53-.07-1.02-.34-1.48l-5.21-9.02,1.65-.95,1.6,2.77c.15-.95.31-1.74.5-2.39.19-.65.49-1.26.91-1.84.42-.58,1-1.09,1.74-1.51,1.46-.84,2.74-.99,3.87-.44,1.12.55,2.03,1.42,2.72,2.62l2.51,4.35Zm-12.8-8.57l1.58-.91.98,1.7-1.58.91-.98-1.7Zm1.75,9.87l1.35,2.34,7.21-4.16-1.5-2.6c-.54-.94-1.22-1.59-2.03-1.96-.81-.37-1.64-.31-2.49.18-1.58.91-2.43,2.98-2.54,6.2Z" fill="#231f20"/>
          <path d="m380.36,102.92l4.38,7.59c1.06,1.84,1.61,3.32,1.66,4.46.05,1.14-.49,2.03-1.61,2.67-.3.17-.76.4-1.38.69s-1.19.54-1.71.75l-.84-1.46c1.61-.71,2.63-1.2,3.08-1.46.44-.25.65-.65.63-1.19-.02-.54-.31-1.35-.87-2.43l-2.3,1.33c-1.28.74-2.38.85-3.31.34-.93-.51-1.76-1.41-2.51-2.71-.99-1.72-1.36-3.13-1.11-4.24.25-1.11,1.07-2.06,2.46-2.86.88-.51,2.03-1,3.44-1.48Zm-2,9.26c.34.35.68.53,1.02.56.34.03.73-.08,1.17-.34l2.32-1.34-3.44-5.96c-.57.21-1.12.46-1.66.77-.64.37-1.07.75-1.31,1.14-.24.39-.29.86-.18,1.42.12.55.43,1.26.93,2.13.43.74.81,1.28,1.15,1.62Z" fill="#231f20"/>
        </g>
        <g>
          <path d="m60.88,121.06l-7.44,12.89c-.44.76-1.02,1.31-1.75,1.65-.72.33-1.52.46-2.38.36-.86-.1-1.71-.39-2.55-.88-.89-.51-1.6-1.14-2.12-1.88s-.83-1.52-.9-2.33c-.08-.81.09-1.58.51-2.29.46-.8,1.7-2.42,3.71-4.86l1.46,1.19c-.85,1.04-1.59,1.98-2.25,2.84-.65.85-1.08,1.45-1.27,1.78-.25.44-.35.91-.3,1.41.05.5.25.98.6,1.46.35.47.83.88,1.43,1.23.9.52,1.72.72,2.47.61.75-.12,1.32-.52,1.72-1.21l7.44-12.89,1.65.95Z" fill="#231f20"/>
          <path d="m73.31,150.39c-.15-.1-.28-.19-.39-.27l-.34-.25.84-1.46c.5.35.81.56.93.63.51.29,1.01.31,1.51.05.5-.26.96-.75,1.38-1.48l5.29-9.16,1.63.94-5.1,8.83c-1.59,2.75-3.33,3.57-5.24,2.47-.18-.11-.35-.21-.5-.31Zm11.14-15.23l1.58.91-.98,1.7-1.58-.91.98-1.7Z" fill="#231f20"/>
        </g>
      </g>
      <g>
        <g>
          <path d="m208.69,1.96v10.64c0,.88-.23,1.65-.69,2.3-.46.65-1.09,1.15-1.88,1.5-.79.35-1.68.52-2.65.52-1.03,0-1.95-.19-2.78-.57-.83-.38-1.48-.9-1.95-1.57-.47-.67-.71-1.41-.71-2.24,0-.92.26-2.94.78-6.06l1.86.3c-.21,1.32-.39,2.51-.53,3.58-.14,1.07-.21,1.79-.21,2.18,0,.51.15.96.44,1.37.29.41.71.73,1.25.96s1.16.35,1.85.35c1.04,0,1.85-.24,2.44-.71s.88-1.11.88-1.91V1.96h1.9Zm-6.08-1.96h1.82v1.96h-1.82V0Z" fill="#231f20"/>
          <path d="m213.55,36.41c.12.87.18,1.54.18,1.99v5.56h-3.84c-.81,0-1.56-.27-2.24-.8-.49.53-1.13.8-1.92.8h-2.26v.8c0,.81-.22,1.54-.67,2.17-.45.63-1.07,1.12-1.87,1.47-.8.35-1.71.52-2.74.52-1.12,0-2.09-.2-2.9-.61-.81-.41-1.43-.95-1.85-1.62-.42-.67-.63-1.4-.63-2.17,0-.85.27-2.87.82-6.06l1.82.1c-.52,2.97-.78,4.85-.78,5.62,0,.55.14,1.05.43,1.52s.69.83,1.22,1.1c.53.27,1.13.4,1.81.4.64,0,1.22-.12,1.75-.37.53-.25.94-.58,1.24-1.01.3-.43.45-.91.45-1.44v-9.42h1.9v7.3h1.64c.59,0,1.02-.25,1.29-.74.27-.49.41-1.11.41-1.86v-4.7h1.88v4.68c0,.77-.09,1.45-.26,2.02.19.16.42.3.69.42.27.12.54.18.81.18h1.92v-3.86c0-.93-.11-2.39-.32-4.38l1.6-.06c.16.76.3,1.58.42,2.45Zm-8-6.21h1.7v1.9h-1.7v-1.9Zm1.36-2.54h1.64v1.82h-1.64v-1.82Zm1.32,2.54h1.68v1.9h-1.68v-1.9Z" fill="#231f20"/>
          <path d="m205.62,61.78l-4.18.82-.2-.72.96-.26c-.24-.19-.42-.41-.54-.67s-.18-.53-.18-.81c0-.51.18-.95.54-1.32.36-.37.83-.56,1.4-.56.51,0,1,.16,1.48.48l-.22.9c-.08-.07-.2-.13-.36-.2-.16-.07-.33-.1-.52-.1-.33,0-.61.11-.82.33-.21.22-.32.48-.32.79,0,.37.16.68.48.92l2.24-.6.24,1Zm-3.06,1.66h1.9v12.52h-1.9v-12.52Z" fill="#231f20"/>
        </g>
        <g>
          <path d="m200.61,353.47c0,.89.25,1.58.76,2.07.51.49,1.27.73,2.3.73.4,0,.94-.04,1.61-.11.67-.07,1.38-.18,2.11-.31l.22,1.48c-.68.16-1.41.3-2.2.43-.79.13-1.49.19-2.12.19-1.49,0-2.63-.4-3.42-1.2-.79-.8-1.18-1.93-1.18-3.4,0-1.35.35-2.36,1.04-3.05s1.73-1.03,3.1-1.03c.67,0,1.29.07,1.88.21.59.14,1.05.3,1.4.49v-4.96c0-1.28-.65-1.92-1.94-1.92-.6,0-1.99.11-4.16.32l-.06-1.34c.73-.17,1.55-.32,2.44-.45s1.63-.19,2.22-.19c1.05,0,1.88.26,2.48.77.6.51.9,1.38.9,2.61v6.82h-1.88c-.36-.17-.81-.33-1.35-.47-.54-.14-1.07-.21-1.59-.21-1.71,0-2.56.84-2.56,2.52Zm2.08-15.66h1.82v1.96h-1.82v-1.96Z" fill="#231f20"/>
          <path d="m205.7,384.17c.65-.07,1.32-.17,2.03-.3l.22,1.48c-.64.16-1.35.3-2.12.42-.77.12-1.47.18-2.08.18-1.49,0-2.63-.4-3.42-1.2-.79-.8-1.18-1.94-1.18-3.42,0-.85.16-1.61.49-2.28.33-.67.88-1.15,1.67-1.46-.29-.47-.52-.99-.67-1.57s-.23-1.19-.23-1.83c0-.96.19-1.8.56-2.53.37-.73.89-1.28,1.56-1.67s1.42-.58,2.26-.58c.49,0,1.03.06,1.6.19.57.13,1.09.3,1.56.53l-.08,1.72c-.28-.16-.71-.32-1.28-.48s-1.11-.24-1.6-.24c-.81,0-1.46.27-1.94.8-.48.53-.72,1.32-.72,2.36,0,1.21.35,2.21,1.06,2.98.68.01,1.31.09,1.9.23.59.14,1.05.3,1.38.47v1.66c-.33-.17-.8-.33-1.39-.47-.59-.14-1.16-.21-1.69-.21-.81,0-1.44.21-1.88.62-.44.41-.66,1.05-.66,1.9s.25,1.58.75,2.07c.5.49,1.28.73,2.33.73.4,0,.92-.03,1.57-.1Zm-2.21-18.36h1.82v1.96h-1.82v-1.96Z" fill="#231f20"/>
        </g>
        <g>
          <path d="m276.73,338.82c.45.77,1.01,1.24,1.69,1.41.68.17,1.47,0,2.36-.52.35-.2.79-.5,1.34-.9.55-.4,1.1-.84,1.67-1.32l.93,1.17c-.51.48-1.07.97-1.69,1.47-.62.5-1.2.91-1.74,1.22-1.29.75-2.48.97-3.56.67-1.08-.3-1.99-1.08-2.72-2.35-.67-1.17-.88-2.22-.62-3.16.26-.94.98-1.75,2.17-2.44.58-.33,1.15-.59,1.73-.76s1.06-.26,1.46-.28l-2.48-4.29c-.64-1.11-1.52-1.34-2.64-.69-.52.3-1.67,1.09-3.44,2.36l-.72-1.13c.55-.52,1.18-1.05,1.89-1.61s1.32-.98,1.83-1.28c.91-.53,1.76-.72,2.53-.57.78.14,1.47.75,2.08,1.81l3.41,5.91-1.63.94c-.4.03-.87.12-1.4.27-.54.15-1.03.35-1.48.61-1.48.85-1.8,2.01-.96,3.46Z" fill="#231f20"/>
          <path d="m296.49,362.86c.53-.38,1.06-.81,1.61-1.27l.93,1.17c-.47.46-1.02.93-1.63,1.42-.61.49-1.18.89-1.71,1.2-1.29.75-2.48.97-3.56.67-1.08-.3-1.99-1.09-2.73-2.37-.43-.74-.67-1.48-.72-2.22-.05-.74.19-1.44.72-2.1-.49-.26-.94-.6-1.37-1.03-.42-.43-.79-.92-1.12-1.47-.48-.83-.74-1.66-.78-2.47-.04-.82.13-1.56.52-2.23.38-.67.94-1.21,1.67-1.63.43-.25.92-.46,1.48-.64.56-.18,1.1-.28,1.62-.32l.79,1.53c-.32,0-.77.08-1.35.22s-1.08.35-1.51.59c-.71.41-1.13.96-1.28,1.66-.15.7.04,1.5.56,2.4.61,1.05,1.41,1.74,2.41,2.05.6-.33,1.18-.58,1.76-.75.58-.17,1.05-.27,1.43-.28l.83,1.44c-.38.02-.86.11-1.44.29-.58.17-1.11.4-1.57.66-.7.41-1.14.9-1.32,1.48-.17.58-.05,1.24.38,1.98.45.77,1.01,1.25,1.68,1.42.68.17,1.47,0,2.38-.53.35-.2.78-.49,1.31-.87Z" fill="#231f20"/>
        </g>
        <g>
          <path d="m302.35,38.89l.59-.63,4.68,2.7-.25.83-.6.64-4.68-2.7.26-.84Z" fill="#231f20"/>
          <path d="m321.36,38.89c.62.91.92,1.96.91,3.14s-.41,2.44-1.19,3.8l-2.11,3.65-12.56-7.25.26-.84.59-.63,2.11,1.22.62-1.07c.33-.58.79-1.03,1.38-1.36.58-.33,1.21-.51,1.88-.52s1.3.15,1.9.5c.6.35,1.06.81,1.39,1.39.33.58.49,1.21.49,1.88,0,.67-.17,1.3-.51,1.89l-.62,1.07,2.27,1.31,1.25-2.17c.96-1.66,1.2-3.07.72-4.24-.48-1.16-1.33-2.1-2.57-2.81-.8-.46-2.15-1.03-4.05-1.71l.62-1.35c1.89.51,3.43,1.1,4.61,1.78,1.11.64,1.97,1.42,2.59,2.33Zm-8.49,1.93c-.5.14-.88.45-1.16.93l-.68,1.18,3.26,1.88.69-1.2c.27-.46.34-.94.21-1.45-.13-.5-.42-.89-.88-1.15-.46-.27-.94-.33-1.44-.19Z" fill="#231f20"/>
          <path d="m304.47,76.9l-8.85-5.11-.4.69c-.41.7-.96,1.22-1.67,1.54-.7.33-1.49.44-2.35.34-.87-.1-1.74-.4-2.61-.91-.97-.56-1.71-1.22-2.21-1.98-.5-.76-.77-1.53-.81-2.32-.04-.79.13-1.52.52-2.17.44-.76,1.69-2.39,3.76-4.87l1.53,1c-.74.91-1.46,1.8-2.16,2.68-.7.88-1.14,1.47-1.33,1.8-.27.47-.4.99-.38,1.54.02.55.19,1.08.51,1.58.32.5.77.92,1.35,1.25.55.32,1.12.5,1.7.55.58.05,1.11-.04,1.58-.26.48-.23.85-.57,1.11-1.03l5.21-9.02,1.65.95-1.6,2.77c.89-.35,1.67-.6,2.32-.76.65-.16,1.34-.21,2.05-.13s1.44.32,2.18.75c1.46.84,2.23,1.88,2.32,3.13.09,1.25-.21,2.47-.91,3.67l-2.51,4.35Zm-6.65-8.92l-1.35,2.34,7.21,4.16,1.5-2.6c.54-.94.77-1.85.68-2.74-.09-.89-.55-1.58-1.4-2.06-1.58-.91-3.79-.61-6.64.9Z" fill="#231f20"/>
          <path d="m290.6,93.14l-5,8.66-6.77-3.91c-1.06-.61-1.88-1.2-2.45-1.76s-.9-1.15-.99-1.78c-.09-.63.09-1.33.53-2.11.28-.48.68-1.05,1.19-1.69.52-.64,1.03-1.24,1.53-1.79l1.42,1.26c-.54.58-1.04,1.17-1.49,1.75s-.79,1.06-1.01,1.43c-.25.43-.36.79-.33,1.08.03.29.23.6.6.92.37.32.98.73,1.84,1.22l5.13,2.96,4.15-7.19,1.65.95Zm-12.07,6.42l1.58.91-.98,1.7-1.58-.91.98-1.7Z" fill="#231f20"/>
        </g>
        <g>
          <path d="m109.94,63.41c1.06.33,2.05,1.29,2.97,2.88l2.5,4.33-5.59,3.23c-1.28.74-1.47,1.9-.55,3.48.21.37.47.75.77,1.13s.76.95,1.37,1.7l.39.47-1.61.93c-1.24-1.38-2.1-2.47-2.56-3.28-.46-.8-.71-1.58-.76-2.33-.04-.76.12-1.45.5-2.07-.85-.97-1.58-1.98-2.19-3.03-.42-.73-.79-1.49-1.12-2.3s-.57-1.49-.73-2.06c.24-.31.6-.67,1.09-1.09.49-.42,1.05-.81,1.68-1.18,1.5-.87,2.78-1.14,3.84-.81Zm-.98,8.97l3.95-2.28-1.65-2.86c-.48-.83-.91-1.42-1.3-1.75-.39-.34-.81-.49-1.27-.44-.46.04-1.04.26-1.73.66-.6.35-1.12.71-1.56,1.09.44,1.19.92,2.23,1.42,3.1.25.44.55.9.89,1.39.34.49.67.9.98,1.25l.28-.16Z" fill="#231f20"/>
          <path d="m129.87,85.89c.54.7.92,1.24,1.15,1.63l2.78,4.81-3.33,1.92c-.7.41-1.48.55-2.34.43-.16.71-.58,1.26-1.26,1.65l-1.96,1.13.4.69c.41.71.57,1.44.5,2.21-.07.77-.37,1.51-.88,2.21-.52.7-1.22,1.31-2.11,1.82-.97.56-1.91.87-2.82.92-.91.06-1.71-.1-2.41-.48s-1.24-.89-1.63-1.56c-.43-.74-1.2-2.62-2.32-5.66l1.63-.82c1.04,2.84,1.75,4.59,2.13,5.26.27.47.65.84,1.13,1.1s1.02.38,1.61.34c.59-.03,1.18-.22,1.77-.56.55-.32,1-.72,1.33-1.2.33-.48.52-.97.57-1.49s-.06-1.01-.33-1.47l-4.71-8.16,1.65-.95,3.65,6.32,1.42-.82c.51-.29.76-.72.75-1.29,0-.56-.2-1.17-.57-1.82l-2.35-4.07,1.63-.94,2.34,4.05c.39.67.65,1.3.79,1.88.24.05.51.05.81.02s.56-.12.79-.25l1.66-.96-1.93-3.34c-.47-.81-1.29-2.02-2.47-3.63l1.36-.85c.52.58,1.05,1.22,1.59,1.91Z" fill="#231f20"/>
        </g>
        <g>
          <path d="m135.97,328.11c.45.79.62,1.74.51,2.85-.1,1.11-.55,2.35-1.34,3.73l-1.82,3.15-7.24-4.18.85-1.47,5.61,3.24.92-1.59c.95-1.64,1.3-2.98,1.05-4.02-.25-1.04-.79-1.81-1.65-2.3l-1.51-.87.59-1.3c.21.04.52.15.95.32.43.17.81.35,1.16.55.83.48,1.47,1.11,1.91,1.9Z" fill="#231f20"/>
          <path d="m128.07,355.87l-4.88,8.45-10.58-6.11c-1.07-.62-1.89-1.21-2.46-1.76-.56-.56-.89-1.15-.98-1.78-.09-.63.09-1.34.54-2.12.28-.48.68-1.05,1.2-1.7.52-.65,1.03-1.24,1.54-1.78l1.4,1.25c-.51.54-1,1.11-1.47,1.71-.47.6-.81,1.09-1.03,1.47-.25.43-.36.79-.33,1.09s.22.61.58.93c.36.32.98.73,1.84,1.23l3.6,2.08c.1-.71.48-1.64,1.14-2.78.67-1.15,1.31-1.99,1.94-2.51.63-.51,1.33-.75,2.09-.71.77.04,1.68.37,2.73.97.79.45,1.82,1.14,3.1,2.07Zm-5.67,6.03l3.26-5.65c-.56-.37-1.07-.69-1.55-.96-.7-.41-1.27-.63-1.69-.67-.42-.04-.82.11-1.21.47s-.84.99-1.37,1.9c-.47.81-.76,1.41-.88,1.8-.12.39-.1.71.05.94.16.24.48.5.98.79l2.39,1.38Zm3.72-11.85l1.58.91-.98,1.7-1.58-.91.98-1.7Z" fill="#231f20"/>
        </g>
      </g>
    </g>
  </g>
</svg>