<?xml version="1.0" encoding="UTF-8"?>
<svg id="Layer_2" data-name="Layer 2" xmlns="http://www.w3.org/2000/svg" viewBox="0 0 407.55 403.81">
<style>
path, rect, circle, polygon, ellipse {
  fill: black;
}

@media (prefers-color-scheme: dark) {
  path, rect, circle, polygon, ellipse {
    fill: white;
  }
}
</style>
  <g id="Layer_1-2" data-name="Layer 1">
    <g>
      <path d="m233.52,63.23h-63.23L201.91,0l31.62,63.23Zm-56.76-4h50.29l-25.14-50.29-25.14,50.29Z"/>
      <path d="m403.81,403.81h-62.01v-60.77h31.62l30.39,60.77Zm-58.01-4h51.53l-26.38-52.77h-25.15v52.77Z"/>
      <path d="m345.81,403.81h-60.76v-60.77h60.76v60.77Zm-56.76-4h52.76v-52.77h-52.76v52.77Z"/>
      <path d="m289.05,403.81h-60.76v-60.77h60.76v60.77Zm-56.76-4h52.76v-52.77h-52.76v52.77Z"/>
      <path d="m232.29,403.81h-60.76v-60.77h60.76v60.77Zm-56.76-4h52.76v-52.77h-52.76v52.77Z"/>
      <path d="m175.53,403.81h-60.76v-60.77h60.76v60.77Zm-56.76-4h52.76v-52.77h-52.76v52.77Z"/>
      <path d="m118.77,403.81h-60.76v-60.77h60.76v60.77Zm-56.76-4h52.76v-52.77h-52.76v52.77Z"/>
      <path d="m62.01,403.81H0l30.39-60.77h31.62v60.77Zm-55.53-4h51.53v-52.77h-25.15l-26.38,52.77Z"/>
      <path d="m261.91,120h-62.01v-60.77h31.62l30.38,60.77Zm-58.01-4h51.53l-26.38-52.77h-25.15v52.77Z"/>
      <path d="m203.9,120h-62l30.38-60.77h31.61v60.77Zm-55.52-4h51.52v-52.77h-25.14l-26.38,52.77Z"/>
      <path d="m290.29,176.76h-62.01v-60.76h31.63l30.38,60.76Zm-58.01-4h51.53l-26.38-52.76h-25.15v52.76Z"/>
      <path d="m175.52,176.76h-62l30.38-60.76h31.62v60.76Zm-55.52-4h51.52v-52.76h-25.14l-26.38,52.76Z"/>
      <path d="m232.28,176.76h-60.76v-60.76h60.76v60.76Zm-56.76-4h52.76v-52.76h-52.76v52.76Z"/>
      <path d="m318.67,233.52h-62.01v-60.76h31.63l30.38,60.76Zm-58.01-4h51.53l-26.38-52.76h-25.15v52.76Z"/>
      <path d="m147.14,233.52h-62l30.38-60.76h31.62v60.76Zm-55.52-4h51.52v-52.76h-25.14l-26.38,52.76Z"/>
      <path d="m203.9,233.52h-60.76v-60.76h60.76v60.76Zm-56.76-4h52.76v-52.76h-52.76v52.76Z"/>
      <path d="m260.66,233.52h-60.76v-60.76h60.76v60.76Zm-56.76-4h52.76v-52.76h-52.76v52.76Z"/>
      <path d="m347.05,290.28h-62.01v-60.76h31.63l30.38,60.76Zm-58.01-4h51.53l-26.38-52.76h-25.15v52.76Z"/>
      <path d="m175.52,290.28h-60.76v-60.76h60.76v60.76Zm-56.76-4h52.76v-52.76h-52.76v52.76Z"/>
      <path d="m118.76,290.28h-62l30.38-60.76h31.62v60.76Zm-55.52-4h51.52v-52.76h-25.14l-26.38,52.76Z"/>
      <path d="m232.28,290.28h-60.76v-60.76h60.76v60.76Zm-56.76-4h52.76v-52.76h-52.76v52.76Z"/>
      <path d="m289.04,290.28h-60.76v-60.76h60.76v60.76Zm-56.76-4h52.76v-52.76h-52.76v52.76Z"/>
      <path d="m375.43,347.04h-62.01v-60.76h31.63l30.38,60.76Zm-58.01-4h51.53l-26.38-52.76h-25.15v52.76Z"/>
      <path d="m90.38,347.04H28.39l30.38-60.76h31.62v60.76Zm-55.52-4h51.52v-52.76h-25.14l-26.38,52.76Z"/>
      <path d="m147.14,347.04h-60.76v-60.76h60.76v60.76Zm-56.76-4h52.76v-52.76h-52.76v52.76Z"/>
      <path d="m203.9,347.04h-60.76v-60.76h60.76v60.76Zm-56.76-4h52.76v-52.76h-52.76v52.76Z"/>
      <path d="m260.66,347.04h-60.76v-60.76h60.76v60.76Zm-56.76-4h52.76v-52.76h-52.76v52.76Z"/>
      <path d="m317.42,347.04h-60.76v-60.76h60.76v60.76Zm-56.76-4h52.76v-52.76h-52.76v52.76Z"/>
      <path d="m204.4,34.2l-5.02.98-.24-.86,1.15-.31c-.29-.22-.5-.49-.65-.8-.14-.31-.22-.64-.22-.97,0-.61.22-1.14.65-1.58.43-.45.99-.67,1.68-.67.61,0,1.2.19,1.78.58l-.26,1.08c-.1-.08-.24-.16-.43-.24-.19-.08-.4-.12-.62-.12-.4,0-.73.13-.98.4s-.38.58-.38.95c0,.45.19.82.58,1.1l2.69-.72.29,1.2Zm-3.67,1.99h2.28v15.02h-2.28v-15.02Z" fill="#231f20"/>
      <path d="m231.49,85.21v12h-9.38c-1.47,0-2.67-.12-3.6-.36-.93-.24-1.63-.66-2.1-1.26-.47-.6-.71-1.44-.71-2.51,0-.67.08-1.5.23-2.47.15-.98.32-1.9.52-2.78l2.23.46c-.21.93-.38,1.83-.5,2.71-.13.88-.19,1.58-.19,2.09,0,.59.1,1.03.31,1.32.21.29.6.49,1.18.6.58.11,1.46.17,2.64.17h7.1v-9.96h2.28Zm-8.69,13.92h2.18v2.35h-2.18v-2.35Z" fill="#231f20"/>
      <path d="m187.99,85.21v12h-9.38c-1.47,0-2.67-.12-3.6-.36-.93-.24-1.63-.66-2.1-1.26-.47-.6-.71-1.44-.71-2.51,0-.67.08-1.5.23-2.47.15-.98.32-1.9.52-2.78l2.23.46c-.21.93-.38,1.83-.5,2.71-.13.88-.19,1.58-.19,2.09,0,.59.1,1.03.31,1.32.21.29.6.49,1.18.6.58.11,1.46.17,2.64.17h7.1v-9.96h2.28Zm-10.37-2.33h2.18v2.35h-2.18v-2.35Zm3.36,0h2.16v2.35h-2.16v-2.35Z" fill="#231f20"/>
      <path d="m259.65,138.69v12h-9.38c-1.47,0-2.67-.12-3.6-.36-.93-.24-1.63-.66-2.1-1.26-.47-.6-.71-1.44-.71-2.51,0-.67.08-1.5.23-2.47.15-.98.32-1.9.52-2.78l2.23.46c-.21.93-.38,1.83-.5,2.71-.13.88-.19,1.58-.19,2.09,0,.59.1,1.03.31,1.32.21.29.6.49,1.18.6.58.11,1.46.17,2.64.17h7.1v-9.96h2.28Zm-10.25-2.28h2.04v2.28h-2.04v-2.28Zm1.63-3.05h1.97v2.18h-1.97v-2.18Zm1.58,3.05h2.02v2.28h-2.02v-2.28Z" fill="#231f20"/>
      <path d="m198.39,152.9c0,1.07.3,1.9.91,2.48.61.58,1.53.88,2.76.88.48,0,1.12-.04,1.93-.13.81-.09,1.65-.21,2.53-.37l.26,1.78c-.82.19-1.7.36-2.64.52-.94.15-1.79.23-2.54.23-1.79,0-3.16-.48-4.1-1.44-.94-.96-1.42-2.32-1.42-4.08,0-1.62.42-2.84,1.25-3.66.83-.82,2.07-1.24,3.72-1.24.8,0,1.55.08,2.26.25.7.17,1.26.36,1.68.59v-5.95c0-1.54-.78-2.3-2.33-2.3-.72,0-2.38.13-4.99.38l-.07-1.61c.88-.21,1.86-.39,2.93-.54,1.07-.15,1.96-.23,2.66-.23,1.26,0,2.26.31,2.98.92.72.62,1.08,1.66,1.08,3.13v8.18h-2.26c-.43-.21-.97-.4-1.62-.56s-1.28-.25-1.91-.25c-2.05,0-3.07,1.01-3.07,3.02Zm3.48-.58h2.02v2.28h-2.02v-2.28Z" fill="#231f20"/>
      <path d="m148.39,152.9c0,1.07.3,1.9.91,2.48.61.58,1.53.88,2.76.88.48,0,1.12-.04,1.93-.13.81-.09,1.65-.21,2.53-.37l.26,1.78c-.82.19-1.7.36-2.64.52-.94.15-1.79.23-2.54.23-1.79,0-3.16-.48-4.1-1.44-.94-.96-1.42-2.32-1.42-4.08,0-1.62.42-2.84,1.25-3.66.83-.82,2.07-1.24,3.72-1.24.8,0,1.55.08,2.26.25.7.17,1.26.36,1.68.59v-5.95c0-1.54-.78-2.3-2.33-2.3-.72,0-2.38.13-4.99.38l-.07-1.61c.88-.21,1.86-.39,2.93-.54,1.07-.15,1.96-.23,2.66-.23,1.26,0,2.26.31,2.98.92.72.62,1.08,1.66,1.08,3.13v8.18h-2.26c-.43-.21-.97-.4-1.62-.56s-1.28-.25-1.91-.25c-2.05,0-3.07,1.01-3.07,3.02Z" fill="#231f20"/>
      <path d="m277.84,209.66c0,1.07.3,1.9.91,2.48.61.58,1.53.88,2.76.88.48,0,1.12-.04,1.93-.13.81-.09,1.65-.21,2.53-.37l.26,1.78c-.82.19-1.7.36-2.64.52-.94.15-1.79.23-2.54.23-1.79,0-3.16-.48-4.1-1.44-.94-.96-1.42-2.32-1.42-4.08,0-1.62.42-2.84,1.25-3.66.83-.82,2.07-1.24,3.72-1.24.8,0,1.55.08,2.26.25.7.17,1.26.36,1.68.59v-5.95c0-1.54-.78-2.3-2.33-2.3-.72,0-2.38.13-4.99.38l-.07-1.61c.88-.21,1.86-.39,2.93-.54,1.07-.15,1.96-.23,2.66-.23,1.26,0,2.26.31,2.98.92.72.62,1.08,1.66,1.08,3.13v8.18h-2.26c-.43-.21-.97-.4-1.62-.56s-1.28-.25-1.91-.25c-2.05,0-3.07,1.01-3.07,3.02Zm2.5-18.79h2.18v2.35h-2.18v-2.35Z" fill="#231f20"/>
      <path d="m232.17,195.75c.94.55,1.68,1.44,2.24,2.65s.84,2.78.84,4.68v4.37h-10.03v-2.04h7.78v-2.21c0-2.27-.44-3.88-1.32-4.81-.88-.94-1.91-1.4-3.1-1.4h-2.09l-.17-1.7c.24-.08.63-.16,1.18-.24.54-.08,1.06-.12,1.54-.12,1.15,0,2.2.28,3.13.83Z" fill="#231f20"/>
      <path d="m175.41,195.75c.94.55,1.68,1.44,2.24,2.65s.84,2.78.84,4.68v4.37h-10.03v-2.04h7.78v-2.21c0-2.27-.44-3.88-1.32-4.81-.88-.94-1.91-1.4-3.1-1.4h-2.09l-.17-1.7c.24-.08.63-.16,1.18-.24.54-.08,1.06-.12,1.54-.12,1.15,0,2.2.28,3.13.83Zm-5.12-5.53h2.18v2.35h-2.18v-2.35Z" fill="#231f20"/>
      <path d="m122.08,213.38c-.22-.02-.4-.03-.56-.05l-.5-.05v-2.02c.74.06,1.18.1,1.34.1.7,0,1.24-.28,1.6-.85.36-.57.54-1.36.54-2.36v-12.7h2.26v12.24c0,3.81-1.32,5.71-3.96,5.71-.26,0-.49,0-.71-.02Z" fill="#231f20"/>
      <path d="m305.26,270.14c-.22-.02-.4-.03-.56-.05l-.5-.05v-2.02c.74.06,1.18.1,1.34.1.7,0,1.24-.28,1.6-.85.36-.57.54-1.36.54-2.36v-12.7h2.26v12.24c0,3.81-1.32,5.71-3.96,5.71-.26,0-.49,0-.71-.02Zm2.44-22.51h2.18v2.35h-2.18v-2.35Z" fill="#231f20"/>
      <path d="m270.67,255.15c.14,1.05.22,1.84.22,2.39v6.67h-4.61c-.98,0-1.87-.32-2.69-.96-.59.64-1.36.96-2.3.96h-2.71v.96c0,.98-.27,1.84-.8,2.6-.54.76-1.28,1.35-2.24,1.76s-2.06.62-3.29.62c-1.34,0-2.5-.24-3.48-.73-.98-.49-1.72-1.14-2.22-1.94-.5-.81-.76-1.68-.76-2.6,0-1.02.33-3.45.98-7.27l2.18.12c-.62,3.57-.94,5.82-.94,6.74,0,.66.17,1.26.52,1.82.34.56.83,1,1.46,1.32.63.32,1.36.48,2.17.48.77,0,1.47-.15,2.1-.44.63-.3,1.13-.7,1.49-1.21.36-.51.54-1.09.54-1.73v-11.3h2.28v8.76h1.97c.7,0,1.22-.3,1.55-.89.33-.59.49-1.34.49-2.23v-5.64h2.26v5.62c0,.93-.1,1.74-.31,2.42.22.19.5.36.83.5.33.14.65.22.97.22h2.3v-4.63c0-1.12-.13-2.87-.38-5.26l1.92-.07c.19.91.36,1.89.5,2.94Z" fill="#231f20"/>
      <path d="m213.91,255.15c.14,1.05.22,1.84.22,2.39v6.67h-4.61c-.98,0-1.87-.32-2.69-.96-.59.64-1.36.96-2.3.96h-2.71v.96c0,.98-.27,1.84-.8,2.6-.54.76-1.28,1.35-2.24,1.76s-2.06.62-3.29.62c-1.34,0-2.5-.24-3.48-.73-.98-.49-1.72-1.14-2.22-1.94-.5-.81-.76-1.68-.76-2.6,0-1.02.33-3.45.98-7.27l2.18.12c-.62,3.57-.94,5.82-.94,6.74,0,.66.17,1.26.52,1.82.34.56.83,1,1.46,1.32.63.32,1.36.48,2.17.48.77,0,1.47-.15,2.1-.44.63-.3,1.13-.7,1.49-1.21.36-.51.54-1.09.54-1.73v-11.3h2.28v8.76h1.97c.7,0,1.22-.3,1.55-.89.33-.59.49-1.34.49-2.23v-5.64h2.26v5.62c0,.93-.1,1.74-.31,2.42.22.19.5.36.83.5.33.14.65.22.97.22h2.3v-4.63c0-1.12-.13-2.87-.38-5.26l1.92-.07c.19.91.36,1.89.5,2.94Zm-9.6-7.45h2.04v2.28h-2.04v-2.28Zm1.63-3.05h1.97v2.18h-1.97v-2.18Zm1.58,3.05h2.02v2.28h-2.02v-2.28Z" fill="#231f20"/>
      <path d="m157.43,264.21h-12.26v.96c0,.98-.27,1.84-.8,2.6-.54.76-1.28,1.35-2.24,1.76s-2.05.62-3.26.62c-1.34,0-2.5-.24-3.48-.73-.98-.49-1.72-1.13-2.23-1.93-.51-.8-.77-1.66-.77-2.57,0-1.06.33-3.5.98-7.32l2.18.12c-.22,1.39-.44,2.75-.64,4.08-.2,1.33-.3,2.22-.3,2.66,0,.66.18,1.26.53,1.82.35.56.84,1,1.48,1.33s1.35.49,2.15.49,1.47-.15,2.1-.44c.63-.3,1.13-.7,1.49-1.22.36-.52.54-1.1.54-1.74v-12.5h2.28v3.84c.72-.9,1.37-1.62,1.96-2.18.58-.56,1.27-1.02,2.05-1.37.78-.35,1.69-.53,2.71-.53,2.02,0,3.44.62,4.28,1.86.84,1.24,1.26,2.69,1.26,4.36v6.02Zm-12.26-5.28v3.24h9.98v-3.6c0-1.3-.31-2.38-.94-3.25s-1.52-1.31-2.69-1.31c-2.19,0-4.31,1.64-6.36,4.92Z" fill="#231f20"/>
      <path d="m108.55,264.21h-12.26v.96c0,.98-.27,1.84-.8,2.6-.54.76-1.28,1.35-2.24,1.76s-2.05.62-3.26.62c-1.34,0-2.5-.24-3.48-.73-.98-.49-1.72-1.13-2.23-1.93-.51-.8-.77-1.66-.77-2.57,0-1.06.33-3.5.98-7.32l2.18.12c-.22,1.39-.44,2.75-.64,4.08-.2,1.33-.3,2.22-.3,2.66,0,.66.18,1.26.53,1.82.35.56.84,1,1.48,1.33s1.35.49,2.15.49,1.47-.15,2.1-.44c.63-.3,1.13-.7,1.49-1.22.36-.52.54-1.1.54-1.74v-12.5h2.28v3.84c.72-.9,1.37-1.62,1.96-2.18.58-.56,1.27-1.02,2.05-1.37.78-.35,1.69-.53,2.71-.53,2.02,0,3.44.62,4.28,1.86.84,1.24,1.26,2.69,1.26,4.36v6.02Zm-12.26-5.28v3.24h9.98v-3.6c0-1.3-.31-2.38-.94-3.25s-1.52-1.31-2.69-1.31c-2.19,0-4.31,1.64-6.36,4.92Zm4.1-11.3h2.18v2.35h-2.18v-2.35Z" fill="#231f20"/>
      <path d="m342.01,310.59c.84,1.24,1.26,2.69,1.26,4.36v6.02h-15.82v-2.04h1.3v-15.05h2.26v8.93c.72-.9,1.37-1.62,1.96-2.18.58-.56,1.27-1.02,2.05-1.37.78-.35,1.69-.53,2.71-.53,2.02,0,3.44.62,4.28,1.86Zm-11,5.1v3.24h10.01v-3.6c0-1.3-.31-2.38-.94-3.25s-1.53-1.31-2.71-1.31c-2.19,0-4.31,1.64-6.36,4.92Z" fill="#231f20"/>
      <path d="m293.21,310.59c.84,1.24,1.26,2.69,1.26,4.36v6.02h-15.82v-2.04h1.3v-15.05h2.26v8.93c.72-.9,1.37-1.62,1.96-2.18.58-.56,1.27-1.02,2.05-1.37.78-.35,1.69-.53,2.71-.53,2.02,0,3.44.62,4.28,1.86Zm-11,5.1v3.24h10.01v-3.6c0-1.3-.31-2.38-.94-3.25s-1.53-1.31-2.71-1.31c-2.19,0-4.31,1.64-6.36,4.92Zm3.72-11.3h2.18v2.35h-2.18v-2.35Z" fill="#231f20"/>
      <path d="m232.95,326.42c.78-.08,1.59-.2,2.44-.36l.26,1.78c-.77.19-1.62.36-2.54.5-.93.14-1.76.21-2.5.21-1.79,0-3.16-.48-4.1-1.44-.94-.96-1.42-2.33-1.42-4.1,0-1.03.2-1.94.59-2.74.39-.8,1.06-1.38,2-1.75-.35-.56-.62-1.19-.8-1.88-.18-.7-.28-1.43-.28-2.2,0-1.15.22-2.16.67-3.04.45-.87,1.07-1.54,1.87-2,.8-.46,1.7-.7,2.71-.7.59,0,1.23.08,1.92.23s1.31.36,1.87.63l-.1,2.06c-.34-.19-.85-.38-1.54-.58-.69-.19-1.33-.29-1.92-.29-.98,0-1.75.32-2.33.96-.58.64-.86,1.58-.86,2.83,0,1.46.42,2.65,1.27,3.58.82.02,1.58.11,2.28.28.7.17,1.26.36,1.66.56v1.99c-.4-.21-.96-.4-1.67-.56s-1.39-.25-2.03-.25c-.98,0-1.73.25-2.26.74-.53.5-.79,1.26-.79,2.28s.3,1.9.9,2.48c.6.58,1.53.88,2.8.88.48,0,1.11-.04,1.88-.12Z" fill="#231f20"/>
      <path d="m176.19,326.42c.78-.08,1.59-.2,2.44-.36l.26,1.78c-.77.19-1.62.36-2.54.5-.93.14-1.76.21-2.5.21-1.79,0-3.16-.48-4.1-1.44-.94-.96-1.42-2.33-1.42-4.1,0-1.03.2-1.94.59-2.74.39-.8,1.06-1.38,2-1.75-.35-.56-.62-1.19-.8-1.88-.18-.7-.28-1.43-.28-2.2,0-1.15.22-2.16.67-3.04.45-.87,1.07-1.54,1.87-2,.8-.46,1.7-.7,2.71-.7.59,0,1.23.08,1.92.23s1.31.36,1.87.63l-.1,2.06c-.34-.19-.85-.38-1.54-.58-.69-.19-1.33-.29-1.92-.29-.98,0-1.75.32-2.33.96-.58.64-.86,1.58-.86,2.83,0,1.46.42,2.65,1.27,3.58.82.02,1.58.11,2.28.28.7.17,1.26.36,1.66.56v1.99c-.4-.21-.96-.4-1.67-.56s-1.39-.25-2.03-.25c-.98,0-1.73.25-2.26.74-.53.5-.79,1.26-.79,2.28s.3,1.9.9,2.48c.6.58,1.53.88,2.8.88.48,0,1.11-.04,1.88-.12Zm-2.65-22.03h2.18v2.35h-2.18v-2.35Z" fill="#231f20"/>
      <path d="m127.09,309.26v11.71h-14.66c-1.49,0-2.69-.12-3.61-.36s-1.62-.66-2.09-1.26c-.47-.6-.71-1.44-.71-2.53,0-.67.08-1.5.23-2.48.15-.98.33-1.91.54-2.77l2.21.46c-.21.86-.38,1.75-.5,2.65-.13.9-.19,1.62-.19,2.15,0,.59.1,1.04.31,1.33.21.3.6.5,1.16.61s1.45.17,2.65.17h4.99c-.32-.8-.48-1.99-.48-3.58s.17-2.86.52-3.77c.34-.91.93-1.58,1.75-1.99.82-.42,1.96-.62,3.42-.62,1.09,0,2.58.1,4.46.29Zm-2.28,9.67v-7.82c-.8-.05-1.53-.07-2.18-.07-.98,0-1.7.1-2.16.31-.46.21-.79.61-.97,1.21-.18.6-.28,1.53-.28,2.8,0,1.12.06,1.92.17,2.4.11.48.32.79.62.95.3.15.8.23,1.49.23h3.31Zm-3.24-14.54h2.18v2.35h-2.18v-2.35Z" fill="#231f20"/>
      <path d="m77.07,309.26v12.6c0,1.01-.22,1.91-.67,2.71-.45.8-1.11,1.43-1.99,1.88s-1.94.68-3.17.68h-6.74c-1.23,0-2.28-.23-3.16-.68s-1.53-1.08-1.97-1.88c-.44-.8-.66-1.71-.66-2.74,0-1.33.3-3.66.91-7.01l2.23.34c-.26,1.39-.46,2.7-.62,3.92-.16,1.22-.24,2.14-.24,2.75,0,1.07.3,1.88.89,2.44.59.55,1.46.83,2.62.83h6.74c1.15,0,2.03-.28,2.64-.83.61-.55.91-1.36.91-2.41v-.89h-3.31c-1.15,0-2.05-.15-2.7-.46s-1.12-.86-1.42-1.66c-.3-.8-.44-1.97-.44-3.5s.17-2.86.52-3.77c.34-.91.93-1.58,1.75-1.99.82-.42,1.96-.62,3.42-.62,1.09,0,2.58.1,4.46.29Zm-2.28,9.67v-7.82c-.8-.05-1.53-.07-2.18-.07-.98,0-1.7.1-2.16.31s-.79.61-.97,1.21c-.18.6-.28,1.53-.28,2.8,0,1.12.06,1.92.17,2.4.11.48.32.8.62.95.3.15.8.23,1.49.23h3.31Zm-4.61-14.52h2.18v2.35h-2.18v-2.35Zm3.36,0h2.16v2.35h-2.16v-2.35Z" fill="#231f20"/>
      <path d="m371.37,360.65v17.09h-8.95c-1.47,0-2.67-.12-3.6-.36-.93-.24-1.63-.66-2.1-1.26-.47-.6-.71-1.44-.71-2.51,0-1.01.2-2.53.6-4.56l1.87.1-.1.77c-.22,1.5-.34,2.56-.34,3.17,0,.93.31,1.6.92,2,.62.41,1.72.61,3.32.61h6.79v-15.05h2.28Zm-5.28,7.68l-5.02.98-.24-.86,1.15-.31c-.29-.22-.5-.49-.65-.8-.14-.31-.22-.64-.22-.97,0-.61.22-1.14.65-1.58.43-.45.99-.67,1.68-.67.61,0,1.2.19,1.78.58l-.26,1.08c-.1-.08-.24-.16-.43-.24s-.4-.12-.62-.12c-.4,0-.73.13-.98.4-.26.26-.38.58-.38.95,0,.45.19.82.58,1.1l2.69-.72.29,1.2Z" fill="#231f20"/>
      <path d="m321.2,360.65v17.86c0,1.06-.28,1.98-.83,2.76-.55.78-1.3,1.38-2.26,1.8-.95.42-2.01.62-3.18.62-1.23,0-2.34-.23-3.34-.68s-1.77-1.08-2.34-1.88c-.57-.8-.85-1.7-.85-2.69,0-1.1.31-3.53.94-7.27l2.23.36c-.26,1.58-.47,3.02-.64,4.3s-.25,2.15-.25,2.62c0,.61.18,1.16.53,1.64.35.49.85.87,1.5,1.15.65.28,1.39.42,2.22.42,1.25,0,2.22-.28,2.93-.85.7-.57,1.06-1.33,1.06-2.29v-17.86h2.28Z" fill="#231f20"/>
      <path d="m263.47,366.96c.9.98,1.36,2.57,1.36,4.78v6h-7.75c-1.78,0-2.66,1.1-2.66,3.29,0,.51.04,1.06.12,1.63s.22,1.44.41,2.59l.12.72h-2.23c-.46-2.18-.7-3.82-.7-4.95s.2-2.06.61-2.88c.41-.82,1-1.43,1.76-1.85-.3-1.52-.46-3.01-.46-4.46,0-1.01.07-2.03.22-3.06.14-1.03.3-1.89.48-2.58.43-.18,1.03-.34,1.79-.48.76-.14,1.58-.21,2.46-.21,2.08,0,3.57.49,4.48,1.46Zm-6.4,8.74h5.47v-3.96c0-1.15-.1-2.02-.3-2.6-.2-.58-.55-.99-1.06-1.22s-1.24-.35-2.2-.35c-.83,0-1.59.06-2.28.19-.26,1.5-.38,2.86-.38,4.08,0,.61.03,1.27.1,1.98.06.71.15,1.34.26,1.88h.38Z" fill="#231f20"/>
      <path d="m208.1,365.74v12.77c0,1.06-.28,1.98-.83,2.76-.55.78-1.3,1.38-2.26,1.8-.95.42-2.01.62-3.18.62-1.23,0-2.34-.23-3.34-.68-.99-.46-1.77-1.08-2.34-1.88-.57-.8-.85-1.7-.85-2.69,0-1.1.31-3.53.94-7.27l2.23.36c-.26,1.58-.47,3.02-.64,4.3-.17,1.28-.25,2.15-.25,2.62,0,.61.18,1.16.53,1.64.35.49.85.87,1.5,1.15.65.28,1.39.42,2.22.42,1.25,0,2.22-.29,2.93-.85.7-.57,1.06-1.33,1.06-2.29v-12.77h2.28Zm-7.3-2.35h2.18v2.35h-2.18v-2.35Z" fill="#231f20"/>
      <g>
        <path d="m132.35,376.7l.24-1.01h6.48l.24,1.01-.24,1.03h-6.48l-.24-1.03Z" fill="#231f20"/>
        <path d="m152.12,365.3c1.19.57,2.14,1.48,2.83,2.71.7,1.23,1.04,2.79,1.04,4.66v5.06h-17.4l-.24-1.03.24-1.01h2.93v-1.49c0-.8.2-1.55.61-2.24.41-.7.96-1.25,1.64-1.67.69-.41,1.45-.62,2.28-.62s1.59.2,2.28.61,1.23.96,1.63,1.66c.4.7.6,1.45.6,2.27v1.49h3.14v-3c0-2.3-.6-3.92-1.79-4.84s-2.64-1.38-4.36-1.38c-1.1,0-2.85.21-5.23.65l-.17-1.78c2.27-.61,4.22-.91,5.86-.91,1.54,0,2.9.29,4.09.87Zm-7.67,7.1c-.43.45-.65,1-.65,1.66v1.63h4.51v-1.66c0-.64-.22-1.18-.65-1.63s-.97-.67-1.61-.67-1.18.22-1.61.67Z" fill="#231f20"/>
      </g>
      <path d="m93.25,365.74v10.51c0,2.54-.32,4.42-.95,5.63-.63,1.21-1.72,1.81-3.28,1.81-.42,0-1.03-.04-1.85-.11-.82-.07-1.56-.16-2.23-.25v-2.02c2.1.22,3.46.34,4.08.34s1.06-.29,1.37-.86c.3-.58.49-1.59.55-3.05h-3.19c-1.78,0-2.99-.54-3.65-1.63s-.98-2.53-.98-4.32c0-2.38.46-4.08,1.39-5.08.93-1,2.35-1.5,4.27-1.5,1.22,0,2.7.18,4.46.53Zm-7.63,8.42c.14.56.38.96.72,1.19.34.23.81.35,1.42.35h3.22v-8.26c-.72-.13-1.45-.19-2.18-.19-.88,0-1.56.13-2.04.4-.48.26-.82.72-1.03,1.37-.21.65-.31,1.57-.31,2.77,0,1.02.07,1.82.22,2.38Z" fill="#231f20"/>
      <path d="m34.43,383.05c-1-.42-1.8-1.04-2.41-1.85-.61-.81-.91-1.75-.91-2.82,0-.96.21-2.67.62-5.14l2.14.34c-.32,2.21-.48,3.66-.48,4.37s.18,1.36.55,1.92c.37.56.87,1,1.5,1.31.63.31,1.33.47,2.1.47h6.41c1.07,0,1.88-.32,2.42-.96.54-.64.82-1.53.82-2.66,0-.8-.26-1.42-.77-1.85-.51-.43-1.41-.79-2.69-1.08-1.3-.3-2.31-.64-3.04-1.02s-1.26-.86-1.6-1.45c-.34-.59-.5-1.36-.5-2.3,0-1.52.46-2.66,1.38-3.43.92-.77,2.27-1.15,4.04-1.15.66,0,1.36.04,2.11.12s1.76.22,3.02.41l-.19,1.9c-2.32-.27-3.9-.41-4.75-.41-2.19,0-3.29.8-3.29,2.4,0,.59.12,1.06.37,1.39s.64.61,1.16.82,1.36.46,2.5.74c1.14.29,2.03.62,2.68,1.01s1.12.88,1.42,1.48c.3.6.44,1.36.44,2.27,0,1.84-.47,3.27-1.4,4.3-.94,1.02-2.27,1.54-4,1.54h-6.43c-1.15,0-2.23-.21-3.23-.64Zm3.16,2.36h2.18v2.35h-2.18v-2.35Zm3.36,0h2.16v2.35h-2.16v-2.35Z" fill="#231f20"/>
      <path d="m236.15,31.37h3.22v15.84h-3.22v-15.84Z" fill="#231f20"/>
      <path d="m258.99,81.37h3.22v2.9c0,.77.14,1.33.41,1.69.27.36.77.54,1.49.54.59,0,1.03-.2,1.31-.59.28-.39.42-.9.42-1.52v-3.02h3.22v3.07c0,.93-.19,1.77-.56,2.53-.38.76-.92,1.36-1.64,1.81-.72.45-1.58.67-2.57.67-.48,0-.88-.04-1.2-.13-.32-.09-.61-.22-.86-.4v8.28h-3.22v-15.84Z" fill="#231f20"/>
      <path d="m284.2,134.85h3.26v3c0,.66.09,1.17.28,1.54.18.37.38.55.59.55.19,0,.37-.18.53-.53.16-.35.24-.85.24-1.49v-3.07h2.45v3.07c0,.67.05,1.18.16,1.51s.34.5.71.5.62-.18.76-.53c.14-.35.2-.86.2-1.51v-3.05h2.95v3.1c0,1.55-.34,2.76-1.01,3.62-.67.86-1.62,1.3-2.86,1.3-.53,0-.95-.09-1.26-.26s-.62-.46-.92-.86c-.29.38-.57.67-.85.85-.28.18-.6.28-.97.28-.22,0-.41-.03-.56-.1-.15-.06-.31-.15-.47-.26v8.18h-3.22v-15.84Z" fill="#231f20"/>
      <path d="m321.81,204.52v2.93h-3.79c-.72,0-1.44-.11-2.16-.32-.72-.22-1.33-.58-1.82-1.09-.5-.51-.74-1.17-.74-1.97s.22-1.49.66-2.16c.44-.67.95-1.24,1.54-1.69.58-.46,1.11-.78,1.57-.97-1.14-.18-1.97-.62-2.51-1.32-.54-.7-.8-1.46-.8-2.28s.26-1.52.77-2.15c.51-.63,1.22-1.12,2.11-1.48.9-.35,1.89-.53,2.98-.53.45,0,.92.03,1.42.1l-.41,2.62c-.48-.05-.86-.07-1.13-.07-.7,0-1.3.18-1.79.53-.49.35-.73.79-.73,1.32,0,.37.12.72.35,1.04s.59.49,1.07.49h2.38l-.22,2.23c-1.09.3-2.03.75-2.83,1.34-.8.59-1.2,1.23-1.2,1.92,0,.51.22.89.66,1.14s.92.37,1.45.37h3.19Z" fill="#231f20"/>
      <path d="m340.42,261.97c-.98-1.56-1.48-3.42-1.48-5.58s.47-3.95,1.4-5.62c.94-1.66,2.63-2.5,5.08-2.5s4.16.83,5.1,2.5c.94,1.67,1.4,3.54,1.4,5.62s-.5,4.02-1.49,5.58c-.99,1.56-2.66,2.34-5.02,2.34s-4.02-.78-5-2.34Zm7.55-2.05c.5-.99.74-2.18.74-3.55s-.24-2.52-.71-3.59c-.47-1.06-1.33-1.6-2.58-1.6s-2.08.53-2.56,1.6c-.47,1.06-.71,2.26-.71,3.59s.25,2.56.74,3.55,1.34,1.49,2.52,1.49,2.05-.5,2.54-1.49Z" fill="#231f20"/>
      <path d="m374.47,308.15h-5.45v-3.02h8.66v15.84h-3.22v-12.82Z" fill="#231f20"/>
      <path d="m393.6,361.9h3.53l1.25,4.66,2.16,8.06h.05l3.53-12.72h3.43l-5.35,15.84h-3.41l-5.18-15.84Z" fill="#231f20"/>
    </g>
  </g>
</svg>