<?xml version="1.0" encoding="UTF-8"?>
<svg id="Layer_2" data-name="Layer 2" xmlns="http://www.w3.org/2000/svg" viewBox="0 0 473.6 266.07">
<style>
path, rect, circle, polygon, ellipse {
  fill: black;
}

@media (prefers-color-scheme: dark) {
  path, rect, circle, polygon, ellipse {
    fill: white;
  }
}
</style>
  <g id="Layer_1-2" data-name="Layer 1">
    <g>
      <g>
        <path d="m312.85,65.52c0,.92.26,1.62.78,2.12.52.5,1.31.75,2.36.75.41,0,.96-.04,1.65-.11s1.41-.18,2.17-.32l.23,1.52c-.7.16-1.45.31-2.26.44-.81.13-1.53.2-2.18.2-1.53,0-2.7-.41-3.51-1.23-.81-.82-1.21-1.99-1.21-3.49,0-1.38.36-2.43,1.07-3.13.71-.7,1.77-1.06,3.18-1.06.68,0,1.33.07,1.93.22.6.14,1.08.31,1.44.5v-5.09c0-1.31-.66-1.97-1.99-1.97-.62,0-2.04.11-4.27.33l-.06-1.38c.75-.18,1.59-.33,2.51-.46.92-.13,1.68-.19,2.28-.19,1.08,0,1.93.26,2.55.79.62.53.92,1.42.92,2.68v7h-1.93c-.37-.18-.83-.34-1.39-.48-.55-.14-1.1-.22-1.63-.22-1.75,0-2.63.86-2.63,2.59Zm2.98-.49h1.73v1.95h-1.73v-1.95Z" fill="#231f20"/>
        <path d="m275.03,65.51c0,.92.26,1.62.78,2.12.52.5,1.31.75,2.36.75.41,0,.96-.04,1.65-.11s1.41-.18,2.17-.32l.23,1.52c-.7.16-1.45.31-2.26.44-.81.13-1.53.2-2.18.2-1.53,0-2.7-.41-3.51-1.23-.81-.82-1.21-1.99-1.21-3.49,0-1.38.36-2.43,1.07-3.13.71-.7,1.77-1.06,3.18-1.06.68,0,1.33.07,1.93.22.6.14,1.08.31,1.44.5v-5.09c0-1.31-.66-1.97-1.99-1.97-.62,0-2.04.11-4.27.33l-.06-1.38c.75-.18,1.59-.33,2.51-.46.92-.13,1.68-.19,2.28-.19,1.08,0,1.93.26,2.55.79.62.53.92,1.42.92,2.68v7h-1.93c-.37-.18-.83-.34-1.39-.48-.55-.14-1.1-.22-1.63-.22-1.75,0-2.63.86-2.63,2.59Z" fill="#231f20"/>
        <path d="m312.85,106.92c0,.92.26,1.62.78,2.12.52.5,1.31.75,2.36.75.41,0,.96-.04,1.65-.11s1.41-.18,2.17-.32l.23,1.52c-.7.16-1.45.31-2.26.44-.81.13-1.53.2-2.18.2-1.53,0-2.7-.41-3.51-1.23-.81-.82-1.21-1.99-1.21-3.49,0-1.38.36-2.43,1.07-3.13.71-.7,1.77-1.06,3.18-1.06.68,0,1.33.07,1.93.22.6.14,1.08.31,1.44.5v-5.09c0-1.31-.66-1.97-1.99-1.97-.62,0-2.04.11-4.27.33l-.06-1.38c.75-.18,1.59-.33,2.51-.46.92-.13,1.68-.19,2.28-.19,1.08,0,1.93.26,2.55.79.62.53.92,1.42.92,2.68v7h-1.93c-.37-.18-.83-.34-1.39-.48-.55-.14-1.1-.22-1.63-.22-1.75,0-2.63.86-2.63,2.59Zm2.14-16.08h1.87v2.01h-1.87v-2.01Z" fill="#231f20"/>
        <path d="m279.65,95.01c.8.47,1.44,1.23,1.92,2.27.48,1.04.72,2.38.72,4v3.74h-8.58v-1.75h6.65v-1.89c0-1.94-.38-3.32-1.13-4.12-.75-.8-1.64-1.2-2.65-1.2h-1.79l-.14-1.46c.21-.07.54-.14,1.01-.21.47-.07.9-.1,1.31-.1.99,0,1.88.24,2.68.71Z" fill="#231f20"/>
        <path d="m296.84,0l-56.69,81.23,56.69,81.23,56.69-81.23L296.84,0Zm2,9.86l48.42,69.38h-38.2c-.85-5.24-4.98-9.36-10.21-10.21V9.86Zm-4,0v59.16c-5.24.85-9.36,4.98-10.21,10.21h-38.2l48.42-69.38Zm0,142.75l-48.42-69.38h38.2c.85,5.24,4.98,9.36,10.21,10.21v59.16Zm.95-72.57v6.41h-1.65v-11.62h1.65v2.24c0,.74.13,1.28.39,1.61.26.33.69.5,1.29.5s1.02-.18,1.28-.54c.25-.36.38-.87.38-1.54v-2.27h1.65v2.32c0,1.09-.29,1.95-.88,2.59-.59.63-1.39.95-2.39.95-.79,0-1.36-.22-1.71-.65Zm3.05,72.57v-59.16c5.24-.85,9.36-4.98,10.21-10.21h38.2l-48.42,69.38Z"/>
      </g>
      <g>
        <path d="m438.06,49.06l-4.29.84-.21-.74.99-.27c-.25-.19-.43-.42-.55-.69-.12-.27-.19-.54-.19-.83,0-.52.19-.97.55-1.36.37-.38.85-.58,1.44-.58.52,0,1.03.16,1.52.49l-.23.92c-.08-.07-.21-.14-.37-.21-.16-.07-.34-.1-.53-.1-.34,0-.62.11-.84.34-.22.23-.33.5-.33.81,0,.38.16.7.49.95l2.3-.62.25,1.03Zm-3.14,1.71h1.95v12.86h-1.95v-12.86Z" fill="#231f20"/>
        <path d="m404.63,53.36v10.27h-8.03c-1.26,0-2.29-.1-3.08-.31-.79-.21-1.39-.57-1.8-1.08-.4-.51-.61-1.23-.61-2.15,0-.58.06-1.28.2-2.12.13-.83.28-1.63.44-2.38l1.91.39c-.18.79-.32,1.57-.43,2.32-.11.75-.16,1.35-.16,1.79,0,.51.09.88.27,1.13.18.25.51.42,1.01.51.49.1,1.25.14,2.26.14h6.08v-8.52h1.95Zm-7.43,11.91h1.87v2.01h-1.87v-2.01Z" fill="#231f20"/>
        <path d="m442.45,94.76v10.27h-8.03c-1.26,0-2.29-.1-3.08-.31-.79-.21-1.39-.57-1.8-1.08-.4-.51-.61-1.23-.61-2.15,0-.58.06-1.28.2-2.12.13-.83.28-1.63.44-2.38l1.91.39c-.18.79-.32,1.57-.43,2.32-.11.75-.16,1.35-.16,1.79,0,.51.09.88.27,1.13.18.25.51.42,1.01.51.49.1,1.25.14,2.26.14h6.08v-8.52h1.95Zm-8.87-1.99h1.87v2.01h-1.87v-2.01Zm2.88,0h1.85v2.01h-1.85v-2.01Z" fill="#231f20"/>
        <path d="m404.63,94.76v10.27h-8.03c-1.26,0-2.29-.1-3.08-.31-.79-.21-1.39-.57-1.8-1.08-.4-.51-.61-1.23-.61-2.15,0-.58.06-1.28.2-2.12.13-.83.28-1.63.44-2.38l1.91.39c-.18.79-.32,1.57-.43,2.32-.11.75-.16,1.35-.16,1.79,0,.51.09.88.27,1.13.18.25.51.42,1.01.51.49.1,1.25.14,2.26.14h6.08v-8.52h1.95Zm-8.77-1.95h1.75v1.95h-1.75v-1.95Zm1.4-2.61h1.68v1.87h-1.68v-1.87Zm1.36,2.61h1.73v1.95h-1.73v-1.95Z" fill="#231f20"/>
        <path d="m416.91,0l-56.69,81.23,56.69,81.23,56.69-81.23L416.91,0Zm2,9.86l48.42,69.38h-38.2c-.85-5.24-4.98-9.36-10.21-10.21V9.86Zm-4,142.75l-48.41-69.38h38.2c.85,5.24,4.98,9.36,10.21,10.21v59.16Zm0-83.59c-5.24.85-9.36,4.98-10.21,10.21h-38.2l48.41-69.38v59.16Zm2.84,17.42h-1.67v-11.62h1.67v11.62Zm1.16,66.16v-59.16c5.24-.85,9.36-4.98,10.21-10.21h38.2l-48.42,69.38Z"/>
      </g>
      <g>
        <path d="m85.99,55.87c.12.9.19,1.58.19,2.04v5.71h-3.94c-.83,0-1.6-.27-2.3-.82-.51.55-1.16.82-1.97.82h-2.32v.82c0,.83-.23,1.58-.69,2.23-.46.65-1.1,1.15-1.92,1.51-.82.36-1.76.53-2.81.53-1.15,0-2.14-.21-2.98-.63-.84-.42-1.47-.97-1.9-1.66-.43-.69-.65-1.43-.65-2.23,0-.88.28-2.95.84-6.22l1.87.1c-.53,3.05-.8,4.98-.8,5.77,0,.56.15,1.08.44,1.56.29.48.71.86,1.25,1.13.54.27,1.16.41,1.86.41.66,0,1.26-.13,1.8-.38.54-.25.97-.6,1.27-1.04.31-.44.46-.93.46-1.48v-9.67h1.95v7.5h1.68c.6,0,1.04-.25,1.32-.76.28-.51.42-1.14.42-1.91v-4.83h1.93v4.81c0,.79-.09,1.49-.27,2.08.19.16.43.31.71.43.28.12.56.18.83.18h1.97v-3.96c0-.96-.11-2.46-.33-4.5l1.64-.06c.16.78.31,1.62.43,2.52Zm-8.21-6.38h1.75v1.95h-1.75v-1.95Zm1.4-2.61h1.68v1.87h-1.68v-1.87Zm1.36,2.61h1.73v1.95h-1.73v-1.95Z" fill="#231f20"/>
        <path d="m48.41,63.62h-10.49v.82c0,.83-.23,1.58-.69,2.23-.46.65-1.1,1.15-1.92,1.51-.82.36-1.75.53-2.79.53-1.15,0-2.14-.21-2.98-.63-.84-.42-1.47-.97-1.91-1.65s-.66-1.42-.66-2.2c0-.9.28-2.99.84-6.26l1.87.1c-.19,1.19-.37,2.35-.54,3.49-.17,1.14-.26,1.9-.26,2.28,0,.56.15,1.08.45,1.56.3.48.72.86,1.26,1.14.54.28,1.15.42,1.84.42s1.26-.13,1.8-.38c.54-.25.97-.6,1.27-1.05.31-.44.46-.94.46-1.49v-10.7h1.95v3.29c.62-.77,1.17-1.39,1.67-1.87.5-.48,1.08-.87,1.76-1.17.67-.3,1.44-.45,2.32-.45,1.73,0,2.95.53,3.67,1.59.72,1.06,1.08,2.3,1.08,3.73v5.16Zm-10.49-4.52v2.77h8.54v-3.08c0-1.11-.27-2.04-.8-2.78-.53-.75-1.3-1.12-2.3-1.12-1.88,0-3.69,1.4-5.44,4.21Z" fill="#231f20"/>
        <path d="m86.22,105.03h-10.49v.82c0,.83-.23,1.58-.69,2.23-.46.65-1.1,1.15-1.92,1.51-.82.36-1.75.53-2.79.53-1.15,0-2.14-.21-2.98-.63-.84-.42-1.47-.97-1.91-1.65s-.66-1.42-.66-2.2c0-.9.28-2.99.84-6.26l1.87.1c-.19,1.19-.37,2.35-.54,3.49-.17,1.14-.26,1.9-.26,2.28,0,.56.15,1.08.45,1.56.3.48.72.86,1.26,1.14.54.28,1.15.42,1.84.42s1.26-.13,1.8-.38c.54-.25.97-.6,1.27-1.05.31-.44.46-.94.46-1.49v-10.7h1.95v3.29c.62-.77,1.17-1.39,1.67-1.87.5-.48,1.08-.87,1.76-1.17.67-.3,1.44-.45,2.32-.45,1.73,0,2.95.53,3.67,1.59.72,1.06,1.08,2.3,1.08,3.73v5.16Zm-10.49-4.52v2.77h8.54v-3.08c0-1.11-.27-2.04-.8-2.78-.53-.75-1.3-1.12-2.3-1.12-1.88,0-3.69,1.4-5.44,4.21Zm3.51-9.67h1.87v2.01h-1.87v-2.01Z" fill="#231f20"/>
        <path d="m43.17,96.14c.72,1.06,1.08,2.3,1.08,3.73v5.16h-13.53v-1.75h1.11v-12.88h1.93v7.64c.62-.77,1.17-1.39,1.67-1.87.5-.48,1.08-.87,1.76-1.17.67-.3,1.44-.45,2.32-.45,1.73,0,2.95.53,3.67,1.59Zm-9.42,4.36v2.77h8.56v-3.08c0-1.11-.27-2.04-.8-2.78-.53-.75-1.31-1.12-2.32-1.12-1.88,0-3.69,1.4-5.44,4.21Z" fill="#231f20"/>
        <path d="m56.69,0L0,81.23l56.69,81.23,56.69-81.23L56.69,0Zm2,9.86l48.42,69.38h-38.2c-.85-5.24-4.98-9.36-10.21-10.21V9.86Zm-4,0v59.16c-5.24.85-9.36,4.98-10.21,10.21H6.27L54.69,9.86Zm0,142.75L6.27,83.23h38.2c.85,5.24,4.98,9.36,10.21,10.21v59.16Zm1.99-66.16c-.84,0-1.56-.2-2.14-.6-.58-.4-.87-.94-.87-1.62,0-.61.27-1.25.81-1.91.54-.66,1.37-1.3,2.48-1.91-.61-.02-1.13-.17-1.57-.45-.43-.28-.76-.62-.98-1.05-.22-.42-.33-.86-.33-1.32,0-.54.16-1.02.48-1.45s.77-.76,1.36-1c.59-.23,1.29-.35,2.09-.35.47,0,.92.05,1.34.14l-.18,1.36c-.63-.07-1.06-.11-1.29-.11-.63,0-1.15.14-1.56.43-.4.29-.61.68-.61,1.17,0,.42.14.8.43,1.14.29.33.68.5,1.19.5h1.8l-.14,1.27c-1.02.42-1.89.9-2.6,1.44-.71.54-1.07,1.09-1.07,1.65,0,.35.15.63.46.84.31.21.68.32,1.13.32h2.96v1.5h-3.2Zm2.01,66.16v-59.16c5.24-.85,9.36-4.98,10.21-10.21h38.2l-48.42,69.38Z" fill="#231f20"/>
      </g>
      <g>
        <path d="m197.39,53.61c.8.47,1.44,1.23,1.92,2.27.48,1.04.72,2.38.72,4v3.74h-8.58v-1.75h6.65v-1.89c0-1.94-.38-3.32-1.13-4.12-.75-.8-1.64-1.2-2.65-1.2h-1.79l-.14-1.46c.21-.07.54-.14,1.01-.21.47-.07.9-.1,1.31-.1.99,0,1.88.24,2.68.71Zm-4.38-4.73h1.87v2.01h-1.87v-2.01Z" fill="#231f20"/>
        <path d="m156.14,68.7c-.18-.01-.35-.03-.48-.04l-.43-.04v-1.72c.63.05,1.01.08,1.15.08.6,0,1.06-.24,1.37-.73.31-.49.46-1.16.46-2.02v-10.86h1.93v10.47c0,3.26-1.13,4.89-3.39,4.89-.22,0-.42,0-.61-.02Z" fill="#231f20"/>
        <path d="m193.95,110.1c-.18-.01-.35-.03-.48-.04l-.43-.04v-1.72c.63.05,1.01.08,1.15.08.6,0,1.06-.24,1.37-.73.31-.49.46-1.16.46-2.02v-10.86h1.93v10.47c0,3.26-1.13,4.89-3.39,4.89-.22,0-.42,0-.61-.02Zm2.08-19.26h1.87v2.01h-1.87v-2.01Z" fill="#231f20"/>
        <path d="m168.24,97.27c.12.9.19,1.58.19,2.04v5.71h-3.94c-.83,0-1.6-.27-2.3-.82-.51.55-1.16.82-1.97.82h-2.32v.82c0,.83-.23,1.58-.69,2.23-.46.65-1.1,1.15-1.92,1.51-.82.36-1.76.53-2.81.53-1.15,0-2.14-.21-2.98-.63-.84-.42-1.47-.97-1.9-1.66-.43-.69-.65-1.43-.65-2.23,0-.88.28-2.95.84-6.22l1.87.1c-.53,3.05-.8,4.98-.8,5.77,0,.56.15,1.08.44,1.56.29.48.71.86,1.25,1.13.54.27,1.16.41,1.86.41.66,0,1.26-.13,1.8-.38.54-.25.97-.6,1.27-1.04.31-.44.46-.93.46-1.48v-9.67h1.95v7.5h1.68c.6,0,1.04-.25,1.32-.76.28-.51.42-1.14.42-1.91v-4.83h1.93v4.81c0,.79-.09,1.49-.27,2.08.19.16.43.31.71.43.28.12.56.18.83.18h1.97v-3.96c0-.96-.11-2.46-.33-4.5l1.64-.06c.16.78.31,1.62.43,2.52Z" fill="#231f20"/>
        <path d="m176.76,0l-56.69,81.23,56.69,81.23,56.69-81.23L176.76,0Zm2,9.86l48.42,69.38h-38.2c-.85-5.24-4.98-9.36-10.21-10.21V9.86Zm-4,0v59.16c-5.24.85-9.36,4.98-10.21,10.21h-38.2L174.76,9.86Zm0,142.75l-48.41-69.38h38.2c.85,5.24,4.98,9.36,10.21,10.21v59.16Zm2.57-72.87c-.32.62-.82.93-1.51.93-.54,0-.93-.2-1.18-.6v6.37h-1.65v-11.62h1.67v2.61c0,1.15.35,1.72,1.04,1.72s1.02-.56,1.02-1.67v-2.66h1.34v2.64c0,.53.08.94.23,1.24.15.3.43.45.83.45s.67-.15.82-.45c.15-.3.22-.71.22-1.24v-2.64h1.6v2.68c0,1-.22,1.78-.65,2.33-.43.56-1.08.84-1.94.84s-1.49-.31-1.83-.93Zm1.43,72.87v-59.16c5.24-.85,9.36-4.98,10.21-10.21h38.2l-48.42,69.38Z" fill="#231f20"/>
      </g>
      <g>
        <path d="m263.4,157.21v10.78c0,.86-.19,1.64-.58,2.32-.38.68-.95,1.22-1.7,1.61-.75.39-1.66.59-2.71.59h-5.77c-1.05,0-1.95-.2-2.7-.59-.75-.39-1.31-.93-1.68-1.61-.38-.69-.56-1.47-.56-2.34,0-1.14.26-3.13.78-6l1.91.29c-.22,1.19-.4,2.31-.53,3.36-.14,1.05-.21,1.83-.21,2.35,0,.92.25,1.61.76,2.08.51.47,1.25.71,2.24.71h5.77c.99,0,1.74-.24,2.26-.71.52-.47.78-1.16.78-2.06v-.76h-2.83c-.99,0-1.76-.13-2.31-.39-.55-.26-.96-.73-1.21-1.42-.25-.68-.38-1.68-.38-3s.15-2.44.44-3.22.79-1.35,1.5-1.7c.71-.36,1.68-.53,2.93-.53.93,0,2.2.08,3.82.25Zm-1.95,8.28v-6.69c-.68-.04-1.31-.06-1.87-.06-.84,0-1.45.09-1.85.27-.4.18-.67.52-.83,1.04-.16.51-.24,1.31-.24,2.39,0,.96.05,1.64.14,2.05s.27.68.53.81c.26.13.68.19,1.27.19h2.83Zm-3.94-12.42h1.87v2.01h-1.87v-2.01Zm2.88,0h1.85v2.01h-1.85v-2.01Z" fill="#231f20"/>
        <path d="m224.16,152.61v14.62h-7.66c-1.26,0-2.29-.1-3.08-.31-.79-.21-1.39-.57-1.8-1.08-.4-.51-.61-1.23-.61-2.15,0-.86.17-2.16.51-3.9l1.6.08-.08.66c-.19,1.29-.29,2.19-.29,2.71,0,.79.26,1.37.79,1.71.53.35,1.48.52,2.84.52h5.81v-12.88h1.95Zm-4.52,6.57l-4.29.84-.21-.74.99-.27c-.25-.19-.43-.42-.55-.69-.12-.27-.18-.54-.18-.83,0-.52.18-.97.55-1.36.37-.38.85-.58,1.44-.58.52,0,1.03.16,1.52.49l-.23.92c-.08-.07-.21-.14-.37-.21-.16-.07-.34-.1-.53-.1-.34,0-.62.11-.84.34-.22.23-.33.5-.33.81,0,.38.16.7.49.94l2.3-.62.25,1.03Z" fill="#231f20"/>
        <path d="m260.81,194.01v15.28c0,.9-.24,1.69-.71,2.36-.47.67-1.12,1.18-1.93,1.54-.81.36-1.72.53-2.72.53-1.05,0-2.01-.2-2.85-.59-.85-.39-1.52-.93-2-1.61-.49-.68-.73-1.45-.73-2.3,0-.95.27-3.02.8-6.22l1.91.31c-.22,1.36-.4,2.58-.54,3.68-.14,1.09-.22,1.84-.22,2.24,0,.52.15.99.45,1.41.3.42.73.75,1.28.99.55.24,1.19.36,1.9.36,1.07,0,1.9-.24,2.51-.73.6-.49.9-1.14.9-1.96v-15.28h1.95Z" fill="#231f20"/>
        <path d="m222.1,199.41c.77.84,1.16,2.2,1.16,4.09v5.13h-6.63c-1.52,0-2.28.94-2.28,2.81,0,.44.03.9.1,1.4s.19,1.23.35,2.22l.1.62h-1.91c-.4-1.86-.6-3.27-.6-4.23s.17-1.77.52-2.46c.35-.7.85-1.23,1.51-1.58-.26-1.3-.39-2.57-.39-3.82,0-.86.06-1.74.19-2.62.12-.88.26-1.62.41-2.21.37-.15.88-.29,1.53-.41.65-.12,1.35-.18,2.1-.18,1.78,0,3.06.42,3.83,1.25Zm-5.47,7.48h4.68v-3.39c0-.99-.09-1.73-.26-2.23-.17-.5-.47-.85-.9-1.05-.43-.2-1.06-.3-1.88-.3-.71,0-1.36.05-1.95.16-.22,1.29-.33,2.45-.33,3.49,0,.52.03,1.08.08,1.69s.13,1.15.23,1.61h.33Z" fill="#231f20"/>
        <path d="m236.8,103.61l-56.69,81.23,56.69,81.23,56.69-81.23-56.69-81.23Zm2,9.86l48.41,69.38h-38.2c-.85-5.24-4.98-9.36-10.21-10.21v-59.16Zm-4,0v59.16c-5.24.85-9.36,4.98-10.21,10.21h-38.2l48.42-69.38Zm0,142.75l-48.42-69.38h38.2c.85,5.24,4.98,9.36,10.21,10.21v59.16Zm-1.63-76.25v-1.53h5.65v11.62h-1.65v-10.09h-4Zm5.63,76.25v-59.16c5.24-.85,9.36-4.98,10.21-10.21h38.2l-48.41,69.38Z" fill="#231f20"/>
      </g>
      <g>
        <path d="m382.36,158.35c.72,1.06,1.08,2.3,1.08,3.73v5.16h-13.53v-1.75h1.11v-12.88h1.93v7.64c.62-.77,1.17-1.39,1.67-1.87.5-.48,1.08-.87,1.76-1.17.67-.3,1.44-.45,2.32-.45,1.73,0,2.95.53,3.67,1.59Zm-9.42,4.36v2.77h8.56v-3.08c0-1.11-.27-2.04-.8-2.78-.53-.75-1.31-1.12-2.32-1.12-1.88,0-3.69,1.4-5.44,4.21Zm3.18-9.67h1.87v2.01h-1.87v-2.01Z" fill="#231f20"/>
        <path d="m341.49,171.9c.66-.07,1.36-.17,2.08-.31l.23,1.52c-.66.16-1.38.31-2.18.43-.79.12-1.51.19-2.14.19-1.53,0-2.7-.41-3.51-1.23-.81-.82-1.21-1.99-1.21-3.51,0-.88.17-1.66.5-2.34.34-.68.91-1.18,1.71-1.5-.3-.48-.53-1.02-.69-1.61-.16-.6-.24-1.22-.24-1.88,0-.99.19-1.85.58-2.6.38-.75.92-1.32,1.6-1.71.68-.4,1.46-.6,2.32-.6.51,0,1.05.07,1.64.2.59.13,1.12.31,1.6.54l-.08,1.77c-.29-.16-.73-.33-1.31-.49-.59-.16-1.14-.25-1.64-.25-.84,0-1.5.27-1.99.82-.49.55-.74,1.36-.74,2.42,0,1.25.36,2.27,1.09,3.06.7.01,1.35.09,1.95.24s1.07.3,1.42.48v1.71c-.34-.18-.82-.34-1.43-.48-.61-.14-1.19-.22-1.74-.22-.84,0-1.48.21-1.93.64-.45.42-.68,1.07-.68,1.95s.26,1.62.77,2.12c.51.5,1.31.75,2.39.75.41,0,.95-.03,1.61-.1Z" fill="#231f20"/>
        <path d="m379.3,213.3c.66-.07,1.36-.17,2.08-.31l.23,1.52c-.66.16-1.38.31-2.18.43-.79.12-1.51.19-2.14.19-1.53,0-2.7-.41-3.51-1.23-.81-.82-1.21-1.99-1.21-3.51,0-.88.17-1.66.5-2.34.34-.68.91-1.18,1.71-1.5-.3-.48-.53-1.02-.69-1.61-.16-.6-.24-1.22-.24-1.88,0-.99.19-1.85.58-2.6.38-.75.92-1.32,1.6-1.71.68-.4,1.46-.6,2.32-.6.51,0,1.05.07,1.64.2.59.13,1.12.31,1.6.54l-.08,1.77c-.29-.16-.73-.33-1.31-.49-.59-.16-1.14-.25-1.64-.25-.84,0-1.5.27-1.99.82-.49.55-.74,1.36-.74,2.42,0,1.25.36,2.27,1.09,3.06.7.01,1.35.09,1.95.24s1.07.3,1.42.48v1.71c-.34-.18-.82-.34-1.43-.48-.61-.14-1.19-.22-1.74-.22-.84,0-1.48.21-1.93.64-.45.42-.68,1.07-.68,1.95s.26,1.62.77,2.12c.51.5,1.31.75,2.39.75.41,0,.95-.03,1.61-.1Zm-2.27-18.85h1.87v2.01h-1.87v-2.01Z" fill="#231f20"/>
        <path d="m348.11,198.61v10.02h-12.55c-1.27,0-2.3-.1-3.09-.31-.79-.21-1.38-.57-1.79-1.08-.4-.51-.61-1.24-.61-2.17,0-.58.06-1.28.2-2.13.13-.84.28-1.63.46-2.37l1.89.39c-.18.74-.32,1.5-.43,2.27-.11.77-.16,1.39-.16,1.84,0,.51.09.89.27,1.14.18.25.51.43,1,.52.49.1,1.24.14,2.27.14h4.27c-.27-.68-.41-1.7-.41-3.06s.15-2.44.44-3.22.79-1.35,1.5-1.7c.71-.36,1.68-.53,2.93-.53.93,0,2.2.08,3.82.25Zm-1.95,8.28v-6.69c-.69-.04-1.31-.06-1.87-.06-.83,0-1.45.09-1.85.27-.4.18-.67.52-.83,1.04-.16.51-.24,1.31-.24,2.39,0,.96.05,1.64.14,2.05s.27.68.53.81c.26.13.68.19,1.27.19h2.83Zm-2.77-12.45h1.87v2.01h-1.87v-2.01Z" fill="#231f20"/>
        <g>
          <path d="m358.06,179.83c-1.03,0-1.74.46-2.13,1.36s-.58,1.94-.58,3.09.21,2.19.62,3.05c.41.86,1.11,1.29,2.09,1.29s1.69-.43,2.1-1.29.62-1.87.62-3.05-.2-2.17-.59-3.08c-.39-.92-1.11-1.37-2.14-1.37Z" fill="#231f20"/>
          <path d="m358.07,103.61l-56.69,81.23,56.69,81.23,56.69-81.23-56.69-81.23Zm2,9.86l48.42,69.38h-38.2c-.85-5.24-4.98-9.36-10.21-10.21v-59.16Zm-4,0v59.16c-5.24.85-9.36,4.98-10.21,10.21h-38.2l48.41-69.38Zm0,142.75l-48.41-69.38h38.2c.85,5.24,4.98,9.36,10.21,10.21v59.16Zm1.99-66.11c-1.58,0-2.71-.57-3.38-1.72-.67-1.14-1-2.51-1-4.09s.32-2.9.95-4.12c.63-1.22,1.78-1.83,3.43-1.83s2.82.61,3.45,1.83c.63,1.22.95,2.59.95,4.12s-.33,2.95-1,4.09c-.67,1.14-1.8,1.72-3.4,1.72Zm2.01,66.11v-59.16c5.24-.85,9.36-4.98,10.21-10.21h38.2l-48.42,69.38Z" fill="#231f20"/>
        </g>
      </g>
      <g>
        <path d="m139.84,156.97v10.93c0,.9-.24,1.69-.71,2.36-.47.67-1.12,1.18-1.93,1.54-.81.36-1.72.53-2.72.53-1.05,0-2.01-.2-2.85-.59-.85-.39-1.52-.93-2-1.61-.49-.68-.73-1.45-.73-2.3,0-.95.27-3.02.8-6.22l1.91.31c-.22,1.36-.4,2.58-.54,3.68-.14,1.09-.22,1.84-.22,2.24,0,.52.15.99.45,1.41.3.42.73.75,1.28.99.55.24,1.19.36,1.9.36,1.07,0,1.9-.24,2.51-.73.6-.49.9-1.14.9-1.96v-10.93h1.95Zm-6.24-2.01h1.87v2.01h-1.87v-2.01Z" fill="#231f20"/>
        <g>
          <path d="m85.84,166.35l.21-.86h5.55l.21.86-.21.88h-5.55l-.21-.88Z" fill="#231f20"/>
          <path d="m102.75,156.59c1.02.49,1.83,1.27,2.42,2.32.6,1.05.89,2.38.89,3.98v4.33h-14.89l-.21-.88.21-.86h2.51v-1.27c0-.68.17-1.33.52-1.92s.82-1.07,1.41-1.43c.59-.36,1.24-.53,1.95-.53s1.36.17,1.95.52c.59.35,1.05.82,1.4,1.42s.51,1.24.51,1.94v1.27h2.69v-2.57c0-1.97-.51-3.35-1.53-4.14s-2.26-1.18-3.73-1.18c-.94,0-2.44.18-4.48.55l-.14-1.52c1.94-.52,3.61-.78,5.01-.78,1.31,0,2.48.25,3.5.74Zm-6.56,6.08c-.37.38-.55.86-.55,1.42v1.4h3.86v-1.42c0-.55-.19-1.01-.55-1.4-.37-.38-.83-.58-1.38-.58s-1.01.19-1.38.58Z" fill="#231f20"/>
        </g>
        <path d="m138.71,198.37v9c0,2.18-.27,3.78-.81,4.82-.54,1.03-1.48,1.55-2.8,1.55-.36,0-.88-.03-1.58-.09s-1.33-.13-1.91-.22v-1.72c1.79.19,2.96.29,3.49.29s.91-.25,1.17-.74c.26-.49.42-1.36.47-2.61h-2.73c-1.52,0-2.56-.46-3.12-1.4-.56-.93-.84-2.16-.84-3.7,0-2.04.4-3.49,1.19-4.34.79-.86,2.01-1.28,3.66-1.28,1.04,0,2.31.15,3.82.45Zm-6.53,7.21c.12.48.33.82.62,1.02.29.2.69.3,1.21.3h2.75v-7.06c-.62-.11-1.24-.16-1.87-.16-.75,0-1.33.11-1.75.34-.41.23-.71.62-.88,1.17-.18.55-.27,1.35-.27,2.37,0,.88.06,1.55.19,2.03Z" fill="#231f20"/>
        <path d="m91.51,213.18c-.86-.36-1.54-.89-2.06-1.58-.52-.69-.78-1.5-.78-2.41,0-.82.18-2.29.53-4.4l1.83.29c-.27,1.89-.41,3.13-.41,3.74s.16,1.16.47,1.64c.31.48.74.85,1.28,1.12.54.27,1.14.4,1.8.4h5.48c.92,0,1.61-.27,2.07-.82.47-.55.7-1.31.7-2.28,0-.68-.22-1.21-.66-1.58-.44-.37-1.21-.68-2.3-.92-1.11-.26-1.98-.55-2.6-.87-.62-.32-1.08-.74-1.37-1.24-.29-.51-.43-1.16-.43-1.97,0-1.3.39-2.28,1.18-2.94.79-.66,1.94-.99,3.46-.99.56,0,1.16.03,1.81.1s1.51.18,2.59.35l-.16,1.62c-1.99-.23-3.34-.35-4.07-.35-1.88,0-2.81.69-2.81,2.05,0,.51.11.9.32,1.19.21.29.54.52,1,.7.45.18,1.16.39,2.14.64.97.25,1.74.53,2.29.86.55.33.96.75,1.21,1.26.25.51.38,1.16.38,1.94,0,1.57-.4,2.8-1.2,3.68-.8.88-1.94,1.31-3.42,1.31h-5.5c-.99,0-1.91-.18-2.76-.54Zm2.7,2.02h1.87v2.01h-1.87v-2.01Zm2.88,0h1.85v2.01h-1.85v-2.01Z" fill="#231f20"/>
        <path d="m115.53,103.61l-56.69,81.23,56.69,81.23,56.69-81.23-56.69-81.23Zm2,9.86l48.42,69.38h-38.2c-.85-5.24-4.98-9.36-10.21-10.21v-59.16Zm-4,0v59.16c-5.24.85-9.36,4.98-10.21,10.21h-38.2l48.41-69.38Zm0,142.75l-48.41-69.38h38.2c.85,5.24,4.98,9.36,10.21,10.21v59.16Zm.92-66.16l-3.73-11.51h1.87c.56,1.88,1.14,3.85,1.74,5.91s.98,3.41,1.14,4.06h.04c.19-.72.64-2.25,1.36-4.59.72-2.35,1.27-4.14,1.65-5.37h1.8l-3.87,11.51h-1.99Zm3.08,66.16v-59.16c5.24-.85,9.36-4.98,10.21-10.21h38.2l-48.42,69.38Z" fill="#231f20"/>
      </g>
    </g>
  </g>
</svg>