<?xml version="1.0" encoding="UTF-8"?>
<svg id="Layer_2" data-name="Layer 2" xmlns="http://www.w3.org/2000/svg" viewBox="0 0 411.82 411.82">
<style>
path, rect, circle, polygon, ellipse {
  fill: black;
}

@media (prefers-color-scheme: dark) {
  path, rect, circle, polygon, ellipse {
    fill: white;
  }
}
</style>
  <g id="Layer_1-2" data-name="Layer 1">
    <g>
      <g>
        <path d="m196.77,61.69l-2.93.57-.14-.5.67-.18c-.17-.13-.29-.29-.38-.47-.08-.18-.13-.37-.13-.57,0-.35.13-.66.38-.92.25-.26.58-.39.98-.39.35,0,.7.11,1.04.34l-.15.63c-.06-.05-.14-.09-.25-.14-.11-.05-.23-.07-.36-.07-.23,0-.42.08-.57.23-.15.15-.22.34-.22.55,0,.26.11.48.34.64l1.57-.42.17.7Zm-2.14,1.16h1.33v8.76h-1.33v-8.76Z"/>
        <path d="m215.5,62.37h1.33v9.24h-1.33v-9.24Z"/>
        <path d="m203.38,80.61v7h-5.47c-.86,0-1.56-.07-2.1-.21-.54-.14-.95-.38-1.22-.74-.28-.35-.41-.84-.41-1.46,0-.39.04-.87.13-1.44s.19-1.11.3-1.62l1.3.27c-.12.54-.22,1.07-.29,1.58-.08.51-.11.92-.11,1.22,0,.35.06.6.18.77.12.17.35.28.69.35s.85.1,1.54.1h4.14v-5.81h1.33Zm-5.07,8.12h1.27v1.37h-1.27v-1.37Z"/>
        <path d="m212.57,78.37h1.32v1.78c0,.59.1,1.01.31,1.28.21.27.55.4,1.02.4s.81-.14,1.02-.43c.2-.28.3-.69.3-1.22v-1.81h1.32v1.85c0,.87-.23,1.55-.7,2.06s-1.1.76-1.9.76c-.62,0-1.08-.17-1.36-.52v5.1h-1.32v-9.24Z"/>
        <path d="m203.38,96.61v7h-5.47c-.86,0-1.56-.07-2.1-.21-.54-.14-.95-.38-1.22-.74-.28-.35-.41-.84-.41-1.46,0-.39.04-.87.13-1.44s.19-1.11.3-1.62l1.3.27c-.12.54-.22,1.07-.29,1.58-.08.51-.11.92-.11,1.22,0,.35.06.6.18.77.12.17.35.28.69.35s.85.1,1.54.1h4.14v-5.81h1.33Zm-6.05-1.36h1.27v1.37h-1.27v-1.37Zm1.96,0h1.26v1.37h-1.26v-1.37Z"/>
        <path d="m210.89,94.37h1.33v2.07c0,.92.28,1.37.83,1.37s.81-.44.81-1.33v-2.11h1.06v2.1c0,.42.06.75.18.99.12.24.34.36.66.36s.53-.12.65-.36c.12-.24.17-.57.17-.99v-2.1h1.27v2.13c0,.79-.17,1.41-.52,1.86s-.86.67-1.54.67-1.19-.25-1.46-.74c-.25.5-.65.74-1.2.74-.43,0-.74-.16-.94-.48v5.07h-1.32v-9.24Z"/>
        <path d="m203.38,112.61v7h-5.47c-.86,0-1.56-.07-2.1-.21-.54-.14-.95-.38-1.22-.74-.28-.35-.41-.84-.41-1.46,0-.39.04-.87.13-1.44s.19-1.11.3-1.62l1.3.27c-.12.54-.22,1.07-.29,1.58-.08.51-.11.92-.11,1.22,0,.35.06.6.18.77.12.17.35.28.69.35s.85.1,1.54.1h4.14v-5.81h1.33Zm-5.98-1.33h1.19v1.33h-1.19v-1.33Zm.95-1.78h1.15v1.27h-1.15v-1.27Zm.92,1.78h1.18v1.33h-1.18v-1.33Z"/>
        <path d="m217.6,118.42v1.19h-2.55c-.67,0-1.24-.16-1.7-.48-.46-.32-.69-.75-.69-1.29,0-.49.21-.99.64-1.52.43-.53,1.09-1.03,1.97-1.52-.49-.02-.9-.14-1.25-.36-.35-.22-.6-.5-.78-.83s-.26-.69-.26-1.05c0-.43.13-.81.38-1.16.25-.34.61-.6,1.08-.79.47-.19,1.02-.28,1.66-.28.37,0,.73.04,1.06.11l-.14,1.08c-.5-.06-.84-.08-1.02-.08-.5,0-.92.11-1.24.34-.32.23-.48.54-.48.93,0,.34.11.64.34.9.23.27.54.4.95.4h1.43l-.11,1.01c-.81.34-1.5.72-2.07,1.15-.56.43-.85.87-.85,1.32,0,.28.12.5.36.67.24.17.54.25.9.25h2.35Z"/>
        <path d="m195.32,136.9c0,.62.18,1.11.53,1.45.36.34.89.51,1.61.51.28,0,.66-.03,1.13-.08s.96-.12,1.48-.22l.15,1.04c-.48.11-.99.21-1.54.3s-1.04.13-1.48.13c-1.05,0-1.84-.28-2.39-.84s-.83-1.35-.83-2.38c0-.94.24-1.65.73-2.13s1.21-.72,2.17-.72c.47,0,.91.05,1.32.15.41.1.74.21.98.34v-3.47c0-.9-.45-1.34-1.36-1.34-.42,0-1.39.07-2.91.22l-.04-.94c.51-.12,1.08-.23,1.71-.31.62-.09,1.14-.13,1.55-.13.74,0,1.32.18,1.74.54.42.36.63.97.63,1.83v4.77h-1.32c-.25-.12-.57-.23-.95-.33s-.75-.15-1.11-.15c-1.2,0-1.79.59-1.79,1.76Zm2.03-.34h1.18v1.33h-1.18v-1.33Z"/>
        <path d="m211.34,134.29c-.53-.91-.8-2-.8-3.25s.25-2.3.76-3.28,1.41-1.46,2.73-1.46,2.24.49,2.74,1.46.76,2.06.76,3.28-.27,2.34-.8,3.25c-.53.91-1.43,1.37-2.7,1.37s-2.16-.46-2.69-1.37Zm4.36-.85c.33-.68.5-1.49.5-2.42s-.16-1.72-.47-2.45c-.31-.73-.88-1.09-1.7-1.09s-1.39.36-1.69,1.08c-.31.72-.46,1.54-.46,2.46s.16,1.74.49,2.42c.33.68.88,1.02,1.67,1.02s1.34-.34,1.67-1.02Z"/>
        <path d="m195.32,152.9c0,.62.18,1.11.53,1.45.36.34.89.51,1.61.51.28,0,.66-.03,1.13-.08s.96-.12,1.48-.22l.15,1.04c-.48.11-.99.21-1.54.3s-1.04.13-1.48.13c-1.05,0-1.84-.28-2.39-.84s-.83-1.35-.83-2.38c0-.94.24-1.65.73-2.13s1.21-.72,2.17-.72c.47,0,.91.05,1.32.15.41.1.74.21.98.34v-3.47c0-.9-.45-1.34-1.36-1.34-.42,0-1.39.07-2.91.22l-.04-.94c.51-.12,1.08-.23,1.71-.31.62-.09,1.14-.13,1.55-.13.74,0,1.32.18,1.74.54.42.36.63.97.63,1.83v4.77h-1.32c-.25-.12-.57-.23-.95-.33s-.75-.15-1.11-.15c-1.2,0-1.79.59-1.79,1.76Z"/>
        <path d="m215.54,143.59h-3.18v-1.22h4.49v9.24h-1.32v-8.02Z"/>
        <path d="m195.32,168.9c0,.62.18,1.11.53,1.45.36.34.89.51,1.61.51.28,0,.66-.03,1.13-.08s.96-.12,1.48-.22l.15,1.04c-.48.11-.99.21-1.54.3s-1.04.13-1.48.13c-1.05,0-1.84-.28-2.39-.84s-.83-1.35-.83-2.38c0-.94.24-1.65.73-2.13s1.21-.72,2.17-.72c.47,0,.91.05,1.32.15.41.1.74.21.98.34v-3.47c0-.9-.45-1.34-1.36-1.34-.42,0-1.39.07-2.91.22l-.04-.94c.51-.12,1.08-.23,1.71-.31.62-.09,1.14-.13,1.55-.13.74,0,1.32.18,1.74.54.42.36.63.97.63,1.83v4.77h-1.32c-.25-.12-.57-.23-.95-.33s-.75-.15-1.11-.15c-1.2,0-1.79.59-1.79,1.76Zm1.46-10.96h1.27v1.37h-1.27v-1.37Z"/>
        <path d="m210.43,158.46h1.48c.45,1.49.91,3.06,1.39,4.7.48,1.64.78,2.71.91,3.23h.03c.15-.57.51-1.79,1.08-3.65.57-1.87,1.01-3.29,1.32-4.27h1.43l-3.08,9.16h-1.58l-2.97-9.16Z"/>
      </g>
      <g>
        <path d="m208.59,245.07h-7.15v.56c0,.57-.16,1.08-.47,1.52s-.75.79-1.31,1.03c-.56.24-1.2.36-1.9.36-.79,0-1.46-.14-2.03-.43-.57-.29-1-.66-1.3-1.13s-.45-.97-.45-1.5c0-.62.19-2.04.57-4.27l1.28.07c-.13.81-.26,1.61-.37,2.38-.12.78-.18,1.29-.18,1.55,0,.38.1.74.31,1.06.21.33.49.59.86.78.37.19.79.29,1.25.29s.86-.09,1.22-.26c.37-.17.66-.41.87-.71.21-.3.31-.64.31-1.01v-7.29h1.33v2.24c.42-.52.8-.95,1.14-1.27.34-.33.74-.59,1.2-.8s.98-.31,1.58-.31c1.18,0,2.01.36,2.5,1.08.49.72.73,1.57.73,2.54v3.51Zm-7.15-3.08v1.89h5.82v-2.1c0-.76-.18-1.39-.55-1.9-.36-.51-.89-.76-1.57-.76-1.28,0-2.52.96-3.71,2.87Zm2.39-6.59h1.27v1.37h-1.27v-1.37Z"/>
        <path d="m215.5,235.83h1.33v9.24h-1.33v-9.24Z"/>
        <path d="m202.18,255.02c.49.72.73,1.57.73,2.54v3.51h-9.23v-1.19h.76v-8.78h1.32v5.21c.42-.52.8-.95,1.14-1.27.34-.33.74-.59,1.2-.8s.98-.31,1.58-.31c1.18,0,2.01.36,2.5,1.08Zm-6.42,2.97v1.89h5.84v-2.1c0-.76-.18-1.39-.55-1.9-.36-.51-.89-.76-1.58-.76-1.28,0-2.51.96-3.71,2.87Z"/>
        <path d="m212.57,251.83h1.32v1.78c0,.59.1,1.01.31,1.28.21.27.55.4,1.02.4s.81-.14,1.02-.43c.2-.28.3-.69.3-1.22v-1.81h1.32v1.85c0,.87-.23,1.55-.7,2.06s-1.1.76-1.9.76c-.62,0-1.08-.17-1.36-.52v5.1h-1.32v-9.24Z"/>
        <path d="m202.18,271.02c.49.72.73,1.57.73,2.54v3.51h-9.23v-1.19h.76v-8.78h1.32v5.21c.42-.52.8-.95,1.14-1.27.34-.33.74-.59,1.2-.8s.98-.31,1.58-.31c1.18,0,2.01.36,2.5,1.08Zm-6.42,2.97v1.89h5.84v-2.1c0-.76-.18-1.39-.55-1.9-.36-.51-.89-.76-1.58-.76-1.28,0-2.51.96-3.71,2.87Zm2.17-6.59h1.27v1.37h-1.27v-1.37Z"/>
        <path d="m210.89,267.83h1.33v2.07c0,.92.28,1.37.83,1.37s.81-.44.81-1.33v-2.11h1.06v2.1c0,.42.06.75.18.99.12.24.34.36.66.36s.53-.12.65-.36c.12-.24.18-.57.18-.99v-2.1h1.27v2.13c0,.79-.17,1.41-.52,1.86s-.86.67-1.54.67-1.19-.25-1.46-.74c-.25.5-.65.74-1.21.74-.43,0-.74-.16-.94-.48v5.07h-1.32v-9.24Z"/>
        <path d="m198.56,296.25c.45-.05.93-.12,1.42-.21l.15,1.04c-.45.11-.94.21-1.48.29-.54.08-1.03.13-1.46.13-1.04,0-1.84-.28-2.39-.84s-.83-1.36-.83-2.39c0-.6.12-1.13.34-1.6s.62-.81,1.17-1.02c-.21-.33-.36-.69-.47-1.1-.11-.41-.16-.83-.16-1.28,0-.67.13-1.26.39-1.77.26-.51.62-.9,1.09-1.17s.99-.41,1.58-.41c.35,0,.72.04,1.12.13.4.09.77.21,1.09.37l-.05,1.2c-.2-.11-.5-.22-.9-.34-.4-.11-.78-.17-1.12-.17-.57,0-1.02.19-1.36.56-.34.37-.5.92-.5,1.65,0,.85.25,1.54.74,2.09.48,0,.92.06,1.33.16.41.1.73.21.97.33v1.16c-.23-.12-.56-.23-.97-.33-.41-.1-.81-.15-1.18-.15-.57,0-1.01.14-1.32.43s-.46.73-.46,1.33.18,1.11.53,1.45c.35.34.89.51,1.63.51.28,0,.65-.02,1.1-.07Z"/>
        <path d="m217.6,291.88v1.19h-2.55c-.67,0-1.24-.16-1.7-.48-.46-.32-.69-.75-.69-1.29,0-.49.21-.99.64-1.52.43-.53,1.09-1.03,1.97-1.52-.48-.02-.9-.14-1.25-.36-.35-.22-.6-.5-.78-.83-.17-.34-.26-.69-.26-1.05,0-.43.12-.81.38-1.16.25-.34.61-.6,1.09-.79.47-.19,1.02-.28,1.66-.28.37,0,.73.04,1.06.11l-.14,1.08c-.5-.06-.84-.08-1.02-.08-.5,0-.92.11-1.24.34-.32.23-.48.54-.48.93,0,.34.12.64.34.9.23.27.54.4.95.4h1.43l-.11,1.01c-.81.34-1.5.72-2.07,1.15-.56.43-.85.87-.85,1.32,0,.28.12.5.36.67s.54.25.9.25h2.35Z"/>
        <path d="m198.56,312.25c.45-.05.93-.12,1.42-.21l.15,1.04c-.45.11-.94.21-1.48.29-.54.08-1.03.13-1.46.13-1.04,0-1.84-.28-2.39-.84s-.83-1.36-.83-2.39c0-.6.12-1.13.34-1.6s.62-.81,1.17-1.02c-.21-.33-.36-.69-.47-1.1-.11-.41-.16-.83-.16-1.28,0-.67.13-1.26.39-1.77.26-.51.62-.9,1.09-1.17s.99-.41,1.58-.41c.35,0,.72.04,1.12.13.4.09.77.21,1.09.37l-.05,1.2c-.2-.11-.5-.22-.9-.34-.4-.11-.78-.17-1.12-.17-.57,0-1.02.19-1.36.56-.34.37-.5.92-.5,1.65,0,.85.25,1.54.74,2.09.48,0,.92.06,1.33.16.41.1.73.21.97.33v1.16c-.23-.12-.56-.23-.97-.33-.41-.1-.81-.15-1.18-.15-.57,0-1.01.14-1.32.43s-.46.73-.46,1.33.18,1.11.53,1.45c.35.34.89.51,1.63.51.28,0,.65-.02,1.1-.07Zm-1.55-12.85h1.27v1.37h-1.27v-1.37Z"/>
        <path d="m211.34,307.75c-.53-.91-.8-2-.8-3.25s.25-2.3.76-3.28,1.41-1.46,2.73-1.46,2.24.49,2.74,1.46.76,2.06.76,3.28-.27,2.34-.8,3.25c-.53.91-1.43,1.37-2.7,1.37s-2.16-.46-2.69-1.37Zm4.36-.85c.33-.68.5-1.49.5-2.42s-.16-1.72-.47-2.45-.88-1.09-1.7-1.09-1.38.36-1.69,1.08-.46,1.54-.46,2.46.16,1.74.49,2.42.88,1.02,1.67,1.02,1.34-.34,1.67-1.02Z"/>
        <path d="m206.26,318.24v6.83h-8.55c-.87,0-1.57-.07-2.11-.21-.54-.14-.94-.38-1.22-.74-.28-.35-.41-.84-.41-1.48,0-.39.04-.88.13-1.45.09-.57.19-1.11.31-1.62l1.29.27c-.12.5-.22,1.02-.29,1.55-.08.53-.11.94-.11,1.25,0,.35.06.6.18.78.12.17.35.29.68.36.33.07.85.1,1.55.1h2.91c-.19-.47-.28-1.16-.28-2.09s.1-1.67.3-2.2c.2-.53.54-.92,1.02-1.16.48-.24,1.15-.36,2-.36.63,0,1.5.06,2.6.17Zm-1.33,5.64v-4.56c-.47-.03-.89-.04-1.27-.04-.57,0-.99.06-1.26.18-.27.12-.46.36-.57.71-.11.35-.16.89-.16,1.63,0,.65.03,1.12.1,1.4s.19.46.36.55.47.13.87.13h1.93Zm-1.89-8.48h1.28v1.37h-1.28v-1.37Z"/>
        <path d="m215.54,317.05h-3.18v-1.22h4.49v9.24h-1.32v-8.02Z"/>
        <path d="m204.68,334.24v7.35c0,.59-.13,1.12-.39,1.58s-.65.83-1.16,1.1c-.51.27-1.13.4-1.85.4h-3.93c-.72,0-1.33-.13-1.84-.4-.51-.27-.89-.63-1.15-1.1-.26-.47-.39-1-.39-1.6,0-.77.18-2.14.53-4.09l1.3.2c-.15.81-.27,1.57-.36,2.29-.09.71-.14,1.25-.14,1.6,0,.62.17,1.1.52,1.42.34.32.85.48,1.53.48h3.93c.67,0,1.19-.16,1.54-.48.35-.32.53-.79.53-1.41v-.52h-1.93c-.67,0-1.2-.09-1.58-.27-.38-.18-.65-.5-.82-.97-.17-.47-.26-1.15-.26-2.04s.1-1.67.3-2.2c.2-.53.54-.92,1.02-1.16.48-.24,1.15-.36,2-.36.63,0,1.5.06,2.6.17Zm-1.33,5.64v-4.56c-.47-.03-.89-.04-1.27-.04-.57,0-.99.06-1.26.18-.27.12-.46.36-.57.71-.11.35-.16.89-.16,1.63,0,.65.03,1.12.1,1.4s.19.46.36.55.47.13.87.13h1.93Zm-2.69-8.47h1.27v1.37h-1.27v-1.37Zm1.96,0h1.26v1.37h-1.26v-1.37Z"/>
        <path d="m210.43,331.92h1.48c.45,1.49.91,3.06,1.39,4.7.47,1.64.78,2.71.91,3.23h.03c.15-.57.51-1.79,1.08-3.65.57-1.87,1.01-3.29,1.32-4.27h1.43l-3.08,9.16h-1.58l-2.97-9.16Z"/>
      </g>
      <g>
        <g>
          <path d="m344.04,192.02h1.33v9.97h-1.33v-9.97Z"/>
          <path d="m345.82,207.01c.55.32.98.84,1.31,1.55.33.71.49,1.62.49,2.73v2.55h-5.85v-1.19h4.54v-1.29c0-1.33-.26-2.26-.77-2.81-.51-.55-1.12-.82-1.81-.82h-1.22l-.1-.99c.14-.05.37-.09.69-.14.32-.05.62-.07.9-.07.67,0,1.28.16,1.83.48Z"/>
        </g>
        <g>
          <path d="m326.04,192.76h1.32v1.78c0,.59.1,1.01.31,1.28.21.27.55.4,1.02.4s.81-.14,1.02-.43c.2-.28.3-.69.3-1.22v-1.81h1.32v1.85c0,.87-.23,1.55-.7,2.06s-1.1.76-1.9.76c-.62,0-1.08-.17-1.36-.52v5.1h-1.32v-9.24Z"/>
          <path d="m329.29,207.02c.55.32.98.84,1.31,1.55.33.71.49,1.62.49,2.73v2.55h-5.85v-1.19h4.54v-1.29c0-1.33-.26-2.26-.77-2.81-.51-.55-1.12-.82-1.81-.82h-1.22l-.1-.99c.14-.05.37-.09.69-.14.32-.05.62-.07.9-.07.67,0,1.28.16,1.83.48Zm-2.99-3.23h1.27v1.37h-1.27v-1.37Z"/>
        </g>
        <g>
          <path d="m308.65,192.76h1.33v2.07c0,.92.28,1.37.83,1.37s.81-.44.81-1.33v-2.11h1.06v2.1c0,.42.06.75.18.99.12.24.34.36.66.36s.53-.12.65-.36c.12-.24.18-.57.18-.99v-2.1h1.27v2.13c0,.79-.17,1.41-.52,1.86s-.86.67-1.54.67-1.19-.25-1.46-.74c-.25.5-.65.74-1.21.74-.43,0-.74-.16-.94-.48v5.07h-1.32v-9.24Z"/>
          <path d="m310.41,217.31c-.13,0-.24-.02-.33-.03l-.29-.03v-1.18c.43.04.69.06.78.06.41,0,.72-.17.93-.5.21-.33.31-.79.31-1.38v-7.41h1.32v7.14c0,2.22-.77,3.33-2.31,3.33-.15,0-.29,0-.41-.01Z"/>
        </g>
        <g>
          <path d="m297.66,200.82v1.19h-2.55c-.67,0-1.24-.16-1.7-.48-.46-.32-.69-.75-.69-1.29,0-.49.21-.99.64-1.52.43-.53,1.09-1.03,1.97-1.52-.49-.02-.9-.14-1.25-.36-.35-.22-.6-.5-.78-.83s-.26-.69-.26-1.05c0-.43.13-.81.38-1.16.25-.34.61-.6,1.08-.79.47-.19,1.02-.28,1.66-.28.37,0,.73.04,1.06.11l-.14,1.08c-.5-.06-.84-.08-1.02-.08-.5,0-.92.11-1.24.34-.32.23-.48.54-.48.93,0,.34.11.64.34.9.23.27.54.4.95.4h1.43l-.11,1.01c-.81.34-1.5.72-2.07,1.15-.56.43-.85.87-.85,1.32,0,.28.12.5.36.67.24.17.54.25.9.25h2.35Z"/>
          <path d="m293.87,217.32c-.13,0-.24-.02-.33-.03l-.29-.03v-1.18c.43.04.69.06.78.06.41,0,.72-.17.93-.5.21-.33.31-.79.31-1.38v-7.41h1.32v7.14c0,2.22-.77,3.33-2.31,3.33-.15,0-.29,0-.41-.01Zm1.42-13.13h1.27v1.37h-1.27v-1.37Z"/>
        </g>
        <g>
          <path d="m275.88,200.7c-.53-.91-.8-2-.8-3.25s.25-2.3.76-3.28,1.41-1.46,2.73-1.46,2.24.49,2.74,1.46.76,2.06.76,3.28-.27,2.34-.8,3.25c-.53.91-1.43,1.37-2.7,1.37s-2.16-.46-2.69-1.37Zm4.36-.85c.33-.68.5-1.49.5-2.42s-.16-1.72-.47-2.45c-.31-.73-.88-1.09-1.7-1.09s-1.39.36-1.69,1.08c-.31.72-.46,1.54-.46,2.46s.16,1.74.49,2.42c.33.68.88,1.02,1.67,1.02s1.34-.34,1.67-1.02Z"/>
          <path d="m285.59,208.58c.08.61.13,1.08.13,1.39v3.89h-2.69c-.57,0-1.09-.19-1.57-.56-.35.37-.79.56-1.34.56h-1.58v.56c0,.57-.16,1.08-.47,1.52s-.75.79-1.31,1.03c-.56.24-1.2.36-1.92.36-.78,0-1.46-.14-2.03-.43s-1-.66-1.29-1.13c-.29-.47-.44-.98-.44-1.52,0-.6.19-2.01.57-4.24l1.27.07c-.36,2.08-.55,3.39-.55,3.93,0,.38.1.74.3,1.06.2.33.49.58.85.77.37.19.79.28,1.27.28.45,0,.86-.09,1.22-.26.37-.17.66-.41.87-.71s.32-.63.32-1.01v-6.59h1.33v5.11h1.15c.41,0,.71-.17.9-.52.19-.34.29-.78.29-1.3v-3.29h1.32v3.28c0,.54-.06,1.01-.18,1.41.13.11.29.21.48.29s.38.13.57.13h1.34v-2.7c0-.65-.07-1.68-.22-3.07l1.12-.04c.11.53.21,1.1.29,1.71Z"/>
        </g>
        <g>
          <path d="m262.34,194.01h-3.18v-1.22h4.49v9.24h-1.32v-8.02Z"/>
          <path d="m269.05,208.59c.08.61.12,1.08.12,1.39v3.89h-2.69c-.57,0-1.09-.19-1.57-.56-.35.37-.79.56-1.34.56h-1.58v.56c0,.57-.16,1.08-.47,1.52s-.75.79-1.31,1.03c-.56.24-1.2.36-1.92.36-.79,0-1.46-.14-2.03-.43-.57-.29-1-.66-1.29-1.13-.29-.47-.44-.98-.44-1.52,0-.6.19-2.01.57-4.24l1.28.07c-.37,2.08-.55,3.39-.55,3.93,0,.38.1.74.3,1.06.2.33.49.58.85.77.37.19.79.28,1.27.28.45,0,.86-.09,1.22-.26.37-.17.66-.41.87-.71.21-.3.31-.63.31-1.01v-6.59h1.33v5.11h1.15c.41,0,.71-.17.9-.52.19-.34.29-.78.29-1.3v-3.29h1.32v3.28c0,.54-.06,1.01-.18,1.41.13.11.29.21.48.29s.38.13.57.13h1.34v-2.7c0-.65-.07-1.68-.22-3.07l1.12-.04c.11.53.21,1.1.29,1.71Zm-5.6-4.35h1.19v1.33h-1.19v-1.33Zm.95-1.78h1.15v1.27h-1.15v-1.27Zm.92,1.78h1.18v1.33h-1.18v-1.33Z"/>
        </g>
        <g>
          <path d="m241.68,192.88h1.48c.45,1.49.91,3.06,1.39,4.7.48,1.64.78,2.71.91,3.23h.03c.15-.57.51-1.79,1.08-3.65.57-1.87,1.01-3.29,1.32-4.27h1.43l-3.08,9.16h-1.58l-2.97-9.16Z"/>
          <path d="m252.68,213.88h-7.15v.56c0,.57-.16,1.08-.47,1.52s-.75.79-1.31,1.03c-.56.24-1.2.36-1.9.36-.78,0-1.46-.14-2.03-.43s-1-.66-1.3-1.13-.45-.97-.45-1.5c0-.62.19-2.04.57-4.27l1.27.07c-.13.81-.25,1.61-.37,2.38-.12.78-.17,1.29-.17,1.55,0,.38.1.74.31,1.06.21.33.49.59.86.78.37.19.79.29,1.25.29s.86-.09,1.22-.26c.37-.17.66-.41.87-.71.21-.3.32-.64.32-1.01v-7.29h1.33v2.24c.42-.52.8-.95,1.14-1.27.34-.33.74-.59,1.2-.8.46-.21.98-.31,1.58-.31,1.18,0,2.01.36,2.5,1.08.49.72.73,1.57.73,2.54v3.51Zm-7.15-3.08v1.89h5.82v-2.1c0-.76-.18-1.39-.55-1.9s-.89-.76-1.57-.76c-1.28,0-2.52.96-3.71,2.87Z"/>
        </g>
      </g>
      <g>
        <g>
          <path d="m163.29,192.02h1.33v9.97h-1.33v-9.97Z"/>
          <path d="m168.18,203.87v9.97h-5.22c-.86,0-1.56-.07-2.1-.21s-.95-.38-1.22-.74c-.28-.35-.41-.84-.41-1.46,0-.59.12-1.47.35-2.66l1.09.06-.06.45c-.13.88-.2,1.49-.2,1.85,0,.54.18.93.54,1.17s1.01.36,1.94.36h3.96v-8.78h1.33Zm-3.08,4.48l-2.93.57-.14-.5.67-.18c-.17-.13-.29-.29-.38-.47-.08-.18-.13-.37-.13-.57,0-.35.13-.66.38-.92.25-.26.58-.39.98-.39.35,0,.7.11,1.04.34l-.15.63c-.06-.05-.14-.09-.25-.14s-.23-.07-.36-.07c-.23,0-.42.08-.57.23-.15.15-.22.34-.22.55,0,.26.11.48.34.64l1.57-.42.17.7Z"/>
        </g>
        <g>
          <path d="m147.06,192.76h1.32v1.78c0,.59.1,1.01.31,1.28.21.27.55.4,1.02.4s.81-.14,1.02-.43c.2-.28.3-.69.3-1.22v-1.81h1.32v1.85c0,.87-.23,1.55-.7,2.06s-1.1.76-1.9.76c-.62,0-1.08-.17-1.36-.52v5.1h-1.32v-9.24Z"/>
          <path d="m152.61,203.88v10.42c0,.62-.16,1.15-.48,1.61-.32.46-.76.81-1.32,1.05-.55.24-1.17.36-1.85.36-.72,0-1.37-.13-1.95-.4-.58-.27-1.03-.63-1.37-1.1-.33-.47-.5-.99-.5-1.57,0-.64.18-2.06.55-4.24l1.3.21c-.15.92-.27,1.76-.37,2.51-.1.75-.15,1.25-.15,1.53,0,.35.1.67.31.96.21.28.5.51.88.67s.81.25,1.29.25c.73,0,1.3-.17,1.71-.5.41-.33.62-.78.62-1.34v-10.42h1.33Z"/>
        </g>
        <g>
          <path d="m131.45,192.76h1.33v2.07c0,.92.28,1.37.83,1.37s.81-.44.81-1.33v-2.11h1.06v2.1c0,.42.06.75.18.99.12.24.34.36.66.36s.53-.12.65-.36c.12-.24.17-.57.17-.99v-2.1h1.27v2.13c0,.79-.17,1.41-.52,1.86s-.86.67-1.54.67-1.19-.25-1.46-.74c-.25.5-.65.74-1.2.74-.43,0-.74-.16-.94-.48v5.07h-1.32v-9.24Z"/>
          <path d="m137.24,207.56c.53.57.79,1.5.79,2.79v3.5h-4.52c-1.04,0-1.55.64-1.55,1.92,0,.3.02.62.07.95s.13.84.24,1.51l.07.42h-1.3c-.27-1.27-.41-2.23-.41-2.88s.12-1.2.36-1.68c.24-.48.58-.84,1.03-1.08-.18-.89-.27-1.75-.27-2.6,0-.59.04-1.18.13-1.78.08-.6.18-1.1.28-1.51.25-.1.6-.2,1.04-.28s.92-.13,1.44-.13c1.21,0,2.08.28,2.61.85Zm-3.73,5.1h3.19v-2.31c0-.67-.06-1.18-.17-1.52-.12-.34-.32-.58-.62-.71-.29-.13-.72-.2-1.28-.2-.49,0-.93.04-1.33.11-.15.88-.22,1.67-.22,2.38,0,.36.02.74.06,1.16.04.42.09.78.15,1.1h.22Z"/>
        </g>
        <g>
          <path d="m122.23,200.82v1.19h-2.55c-.67,0-1.24-.16-1.7-.48-.46-.32-.69-.75-.69-1.29,0-.49.21-.99.64-1.52.43-.53,1.09-1.03,1.97-1.52-.49-.02-.9-.14-1.25-.36-.35-.22-.6-.5-.78-.83s-.26-.69-.26-1.05c0-.43.13-.81.38-1.16.25-.34.61-.6,1.08-.79.47-.19,1.02-.28,1.66-.28.37,0,.73.04,1.06.11l-.14,1.08c-.5-.06-.84-.08-1.02-.08-.5,0-.92.11-1.24.34-.32.23-.48.54-.48.93,0,.34.11.64.34.9.23.27.54.4.95.4h1.43l-.11,1.01c-.81.34-1.5.72-2.07,1.15-.56.43-.85.87-.85,1.32,0,.28.12.5.36.67.24.17.54.25.9.25h2.35Z"/>
          <path d="m123.29,206.86v7.45c0,.62-.16,1.15-.48,1.61-.32.46-.76.81-1.32,1.05-.55.24-1.17.36-1.85.36-.72,0-1.37-.13-1.95-.4-.58-.27-1.03-.63-1.37-1.1-.33-.47-.5-.99-.5-1.57,0-.64.18-2.06.55-4.24l1.3.21c-.15.92-.27,1.76-.37,2.51-.1.75-.15,1.25-.15,1.53,0,.35.1.67.31.96.21.28.5.51.88.67s.81.25,1.29.25c.73,0,1.3-.17,1.71-.5.41-.33.62-.78.62-1.34v-7.45h1.33Zm-4.26-1.37h1.27v1.37h-1.27v-1.37Z"/>
        </g>
        <g>
          <path d="m102.23,200.7c-.53-.91-.8-2-.8-3.25s.25-2.3.76-3.28,1.41-1.46,2.73-1.46,2.24.49,2.74,1.46.76,2.06.76,3.28-.27,2.34-.8,3.25c-.53.91-1.43,1.37-2.7,1.37s-2.16-.46-2.69-1.37Zm4.36-.85c.33-.68.5-1.49.5-2.42s-.16-1.72-.47-2.45c-.31-.73-.88-1.09-1.7-1.09s-1.39.36-1.69,1.08c-.31.72-.46,1.54-.46,2.46s.16,1.74.49,2.42c.33.68.88,1.02,1.67,1.02s1.34-.34,1.67-1.02Z"/>
          <path d="m97.49,213.26l.14-.59h3.78l.14.59-.14.6h-3.78l-.14-.6Z"/>
          <path d="m109.02,206.61c.7.34,1.25.86,1.65,1.58.41.72.61,1.62.61,2.72v2.95h-10.15l-.14-.6.14-.59h1.71v-.87c0-.47.12-.9.36-1.31s.56-.73.96-.97c.4-.24.84-.36,1.33-.36s.93.12,1.33.36c.4.24.72.56.95.97s.35.85.35,1.32v.87h1.83v-1.75c0-1.34-.35-2.28-1.04-2.82-.7-.54-1.54-.81-2.54-.81-.64,0-1.66.13-3.05.38l-.1-1.04c1.33-.35,2.46-.53,3.42-.53.9,0,1.69.17,2.39.5Zm-4.47,4.14c-.25.26-.38.58-.38.97v.95h2.63v-.97c0-.37-.13-.69-.38-.95-.25-.26-.57-.39-.94-.39s-.69.13-.94.39Z"/>
        </g>
        <g>
          <path d="m90.45,194.01h-3.18v-1.22h4.49v9.24h-1.32v-8.02Z"/>
          <path d="m92.99,206.87v6.13c0,1.48-.18,2.58-.55,3.28-.37.7-1.01,1.06-1.91,1.06-.24,0-.6-.02-1.08-.06-.48-.04-.91-.09-1.3-.15v-1.18c1.22.13,2.02.2,2.38.2s.62-.17.8-.5c.18-.34.29-.93.32-1.78h-1.86c-1.04,0-1.75-.32-2.13-.95s-.57-1.47-.57-2.52c0-1.39.27-2.38.81-2.96.54-.58,1.37-.88,2.49-.88.71,0,1.58.1,2.6.31Zm-4.45,4.91c.08.33.22.56.42.69.2.13.47.2.83.2h1.88v-4.82c-.42-.08-.84-.11-1.27-.11-.51,0-.91.08-1.19.23-.28.15-.48.42-.6.8-.12.38-.18.92-.18,1.62,0,.6.04,1.06.13,1.39Z"/>
        </g>
        <g>
          <path d="m71.57,192.88h1.48c.45,1.49.91,3.06,1.39,4.7.48,1.64.78,2.71.91,3.23h.03c.15-.57.51-1.79,1.08-3.65.57-1.87,1.01-3.29,1.32-4.27h1.43l-3.08,9.16h-1.58l-2.97-9.16Z"/>
          <path d="m71.83,216.98c-.58-.25-1.05-.61-1.41-1.08-.35-.47-.53-1.02-.53-1.65,0-.56.12-1.56.36-3l1.25.2c-.19,1.29-.28,2.14-.28,2.55s.11.79.32,1.12c.21.33.51.58.88.76.37.18.78.27,1.22.27h3.74c.62,0,1.1-.19,1.41-.56s.48-.89.48-1.55c0-.47-.15-.83-.45-1.08s-.82-.46-1.57-.63c-.76-.18-1.35-.38-1.77-.59-.42-.22-.74-.5-.93-.85-.2-.34-.29-.79-.29-1.34,0-.89.27-1.55.81-2,.54-.45,1.32-.67,2.36-.67.38,0,.79.02,1.23.07.44.05,1.03.13,1.76.24l-.11,1.11c-1.35-.16-2.28-.24-2.77-.24-1.28,0-1.92.47-1.92,1.4,0,.35.07.62.22.81.14.2.37.36.68.48.31.12.79.27,1.46.43.66.17,1.18.36,1.56.59.38.22.65.51.83.86.17.35.26.79.26,1.32,0,1.07-.27,1.91-.82,2.51-.55.6-1.32.9-2.33.9h-3.75c-.67,0-1.3-.12-1.88-.37Zm1.84,1.38h1.27v1.37h-1.27v-1.37Zm1.96,0h1.26v1.37h-1.26v-1.37Z"/>
        </g>
      </g>
      <g>
        <path d="m205.91,411.82l-54.42-151.49L0,205.91l151.49-54.42L205.91,0l54.42,151.49,151.49,54.42-151.49,54.42-54.42,151.49ZM11.83,205.91l142.78,51.3.32.89,50.98,141.89,51.3-142.78.89-.32,141.9-50.98-142.78-51.3-.32-.89L205.91,11.83l-51.3,142.78-.89.32L11.83,205.91Z"/>
        <rect x="131.15" y="203.91" width="149.51" height="4" transform="translate(-85.29 205.91) rotate(-45)"/>
        <rect x="203.91" y="131.15" width="4" height="149.51" transform="translate(-85.29 205.91) rotate(-45)"/>
      </g>
    </g>
  </g>
</svg>