<?xml version="1.0" encoding="UTF-8"?>
<svg id="Layer_2" data-name="Layer 2" xmlns="http://www.w3.org/2000/svg" viewBox="0 0 439.77 319.44">
<style>
path, rect, circle, polygon, ellipse {
  fill: black;
}

@media (prefers-color-scheme: dark) {
  path, rect, circle, polygon, ellipse {
    fill: white;
  }
}
</style>
  <g id="Layer_1-2" data-name="Layer 1">
    <g>
      <g>
        <path d="m90.35,42.55H0V0h90.35v42.55ZM3,39.55h84.35V3H3v36.55Z"/>
        <path d="m177.71,42.55h-90.36V0h90.36v42.55Zm-87.36-3h84.36V3h-84.36v36.55Z"/>
        <path d="m265.06,42.55h-90.35V0h90.35v42.55Zm-87.35-3h84.35V3h-84.35v36.55Z"/>
        <path d="m352.41,42.55h-90.35V0h90.35v42.55Zm-87.35-3h84.35V3h-84.35v36.55Z"/>
        <path d="m439.77,82.11h-90.36v-42.56h90.36v42.56Zm-87.36-3h84.36v-36.56h-84.36v36.56Z"/>
        <path d="m439.77,121.66h-90.36v-42.55h90.36v42.55Zm-87.36-3h84.36v-36.55h-84.36v36.55Z"/>
        <path d="m439.77,161.22h-90.36v-42.56h90.36v42.56Zm-87.36-3h84.36v-36.56h-84.36v36.56Z"/>
        <path d="m439.77,200.78h-90.36v-42.56h90.36v42.56Zm-87.36-3h84.36v-36.56h-84.36v36.56Z"/>
        <path d="m439.77,240.33h-90.36v-42.55h90.36v42.55Zm-87.36-3h84.36v-36.55h-84.36v36.55Z"/>
        <path d="m439.77,279.89h-90.36v-42.56h90.36v42.56Zm-87.36-3h84.36v-36.56h-84.36v36.56Z"/>
        <path d="m439.77,319.44h-90.36v-42.55h90.36v42.55Zm-87.36-3h84.36v-36.55h-84.36v36.55Z"/>
        <path d="m352.41,319.44H0V39.55h352.41v279.89Zm-349.41-3h346.41V42.55H3v273.89Z"/>
        <rect x="1.5" y="276.89" width="349.42" height="3"/>
        <rect x="1.5" y="237.33" width="349.42" height="3"/>
        <rect x="1.5" y="197.78" width="349.42" height="3"/>
        <rect x="1.5" y="158.22" width="349.42" height="3"/>
        <rect x="1.5" y="118.66" width="349.42" height="3"/>
        <rect x="1.5" y="79.11" width="349.42" height="3"/>
        <rect x="262.06" y="41.05" width="3" height="276.89"/>
        <rect x="174.71" y="41.05" width="3" height="276.89"/>
        <rect x="87.35" y="41.05" width="3" height="276.89"/>
      </g>
      <g>
        <path d="m393.02,51.41h3.14v15.45h-3.14v-15.45Z"/>
        <path d="m390.51,91.02h3.14v2.83c0,.75.13,1.3.4,1.65.27.35.75.53,1.45.53.58,0,1-.19,1.28-.57.27-.38.41-.88.41-1.49v-2.95h3.14v3c0,.91-.18,1.73-.55,2.47s-.9,1.33-1.6,1.77c-.7.44-1.54.66-2.5.66-.47,0-.86-.04-1.17-.13-.31-.09-.59-.21-.84-.39v8.08h-3.14v-15.45Z"/>
        <path d="m389.73,130.63h3.18v2.93c0,.64.09,1.14.27,1.5.18.36.37.54.57.54.19,0,.36-.17.51-.52.16-.34.23-.83.23-1.45v-3h2.39v3c0,.66.05,1.15.15,1.47.1.33.33.49.69.49s.6-.17.74-.52c.13-.34.2-.83.2-1.47v-2.97h2.88v3.02c0,1.51-.33,2.69-.98,3.53s-1.58,1.26-2.79,1.26c-.52,0-.92-.09-1.23-.26-.3-.17-.6-.45-.9-.84-.28.37-.56.65-.83.83-.27.18-.59.27-.95.27-.22,0-.4-.03-.55-.09-.15-.06-.3-.15-.46-.26v7.98h-3.14v-15.45Z"/>
        <path d="m398.86,182.84v2.86h-3.7c-.7,0-1.4-.11-2.11-.32-.7-.21-1.3-.57-1.78-1.06s-.73-1.14-.73-1.92.21-1.45.64-2.11c.43-.66.93-1.21,1.5-1.65.57-.44,1.08-.76,1.53-.95-1.11-.17-1.92-.6-2.45-1.29-.52-.69-.78-1.43-.78-2.22s.25-1.48.75-2.1c.5-.62,1.19-1.1,2.06-1.44.87-.34,1.84-.52,2.9-.52.44,0,.9.03,1.38.09l-.4,2.55c-.47-.05-.83-.07-1.1-.07-.69,0-1.27.17-1.74.51-.48.34-.71.77-.71,1.29,0,.36.11.7.34,1.02.23.32.57.48,1.04.48h2.32l-.21,2.18c-1.06.3-1.98.73-2.76,1.31-.78.58-1.17,1.2-1.17,1.87,0,.5.21.87.64,1.11.43.24.9.36,1.42.36h3.11Z"/>
        <path d="m389.7,223.12c-.96-1.52-1.44-3.34-1.44-5.44s.46-3.85,1.37-5.48,2.56-2.43,4.95-2.43,4.06.81,4.97,2.43c.91,1.62,1.37,3.45,1.37,5.48s-.48,3.92-1.45,5.44c-.97,1.52-2.6,2.28-4.89,2.28s-3.92-.76-4.88-2.28Zm7.36-2c.48-.97.73-2.12.73-3.46s-.23-2.46-.69-3.5c-.46-1.04-1.3-1.56-2.52-1.56s-2.03.52-2.49,1.56c-.46,1.04-.69,2.2-.69,3.5s.24,2.5.73,3.46c.48.97,1.3,1.45,2.46,1.45s2-.48,2.48-1.45Z"/>
        <path d="m394.63,252.42h-5.31v-2.95h8.45v15.45h-3.14v-12.5Z"/>
        <path d="m387.79,289.09h3.44l1.22,4.54,2.11,7.87h.05l3.44-12.41h3.35l-5.22,15.45h-3.32l-5.06-15.45Z"/>
      </g>
      <g>
        <path d="m301.22,32.44c-1.06-.41-1.94-1.03-2.63-1.87-.69-.84-1.04-1.87-1.04-3.09,0-.55.07-1.27.2-2.18.13-.9.28-1.74.43-2.5l2.93.47c-.11.66-.21,1.36-.29,2.12-.09.76-.13,1.3-.13,1.63,0,.59.15,1.13.46,1.61s.73.87,1.28,1.15c.55.28,1.18.42,1.9.42h6.46c.86,0,1.49-.22,1.88-.67.4-.44.6-1.24.6-2.38,0-.56-.22-.98-.66-1.24-.44-.27-1.17-.55-2.2-.84-1.23-.34-2.2-.73-2.91-1.15-.71-.42-1.23-.92-1.54-1.5-.32-.58-.48-1.29-.48-2.15,0-1.56.48-2.74,1.43-3.53s2.29-1.19,4-1.19c.67,0,1.37.04,2.08.13.72.09,1.77.25,3.16.5l-.26,2.55c-2.14-.25-3.69-.37-4.66-.37-1.7,0-2.55.56-2.55,1.69,0,.39.14.71.42.96.28.25.63.46,1.05.62.42.16,1.13.4,2.13.71,1.08.34,1.91.7,2.5,1.08.59.37,1.02.84,1.29,1.39.27.55.4,1.27.4,2.14,0,2.11-.48,3.65-1.45,4.63-.97.98-2.32,1.47-4.05,1.47h-6.53c-1.08,0-2.15-.2-3.21-.61Zm2.55,2.29h2.88v3.04h-2.88v-3.04Zm4.03,0h2.88v3.04h-2.88v-3.04Z"/>
        <path d="m309.67,50.26l-4.89.96-.23-.84,1.12-.3c-.28-.22-.49-.48-.63-.78-.14-.3-.21-.62-.21-.95,0-.59.21-1.11.63-1.54.42-.44.97-.66,1.64-.66.59,0,1.17.19,1.73.56l-.26,1.05c-.09-.08-.23-.16-.42-.23-.19-.08-.39-.12-.61-.12-.39,0-.71.13-.96.39-.25.26-.37.57-.37.92,0,.44.19.8.56,1.08l2.62-.7.28,1.17Zm-3.58,1.94h2.22v14.65h-2.22v-14.65Z"/>
        <path d="m314.67,94.77v11.7h-9.15c-1.44,0-2.61-.12-3.51-.35-.91-.23-1.59-.64-2.05-1.23-.46-.58-.69-1.4-.69-2.45,0-.66.07-1.46.22-2.41s.32-1.86.5-2.72l2.18.44c-.2.9-.37,1.79-.49,2.65s-.19,1.54-.19,2.04c0,.58.1,1.01.3,1.29.2.28.59.48,1.15.59.56.11,1.42.16,2.58.16h6.93v-9.71h2.22Zm-8.47,13.58h2.13v2.29h-2.13v-2.29Z"/>
        <path d="m314.67,134.38v11.7h-9.15c-1.44,0-2.61-.12-3.51-.35-.91-.23-1.59-.64-2.05-1.23-.46-.58-.69-1.4-.69-2.45,0-.66.07-1.46.22-2.41s.32-1.86.5-2.72l2.18.44c-.2.9-.37,1.79-.49,2.65s-.19,1.54-.19,2.04c0,.58.1,1.01.3,1.29.2.28.59.48,1.15.59.56.11,1.42.16,2.58.16h6.93v-9.71h2.22Zm-10.11-2.27h2.13v2.29h-2.13v-2.29Zm3.28,0h2.11v2.29h-2.11v-2.29Z"/>
        <path d="m314.67,173.99v11.7h-9.15c-1.44,0-2.61-.12-3.51-.35-.91-.23-1.59-.64-2.05-1.23-.46-.58-.69-1.4-.69-2.45,0-.66.07-1.46.22-2.41s.32-1.86.5-2.72l2.18.44c-.2.9-.37,1.79-.49,2.65s-.19,1.54-.19,2.04c0,.58.1,1.01.3,1.29.2.28.59.48,1.15.59.56.11,1.42.16,2.58.16h6.93v-9.71h2.22Zm-10-2.22h1.99v2.22h-1.99v-2.22Zm1.59-2.97h1.92v2.13h-1.92v-2.13Zm1.54,2.97h1.97v2.22h-1.97v-2.22Z"/>
        <path d="m303.81,227.46c0,1.05.3,1.85.89,2.42.59.57,1.49.85,2.69.85.47,0,1.1-.04,1.88-.13.79-.09,1.61-.21,2.47-.36l.26,1.73c-.8.19-1.65.35-2.58.5s-1.75.22-2.48.22c-1.75,0-3.08-.47-4-1.4-.92-.94-1.38-2.26-1.38-3.98,0-1.58.41-2.77,1.22-3.57s2.02-1.21,3.63-1.21c.78,0,1.51.08,2.2.25.69.16,1.23.35,1.64.57v-5.81c0-1.5-.76-2.25-2.27-2.25-.7,0-2.33.12-4.87.37l-.07-1.57c.86-.2,1.81-.38,2.86-.53,1.05-.15,1.91-.22,2.6-.22,1.23,0,2.2.3,2.9.9s1.05,1.62,1.05,3.05v7.98h-2.2c-.42-.2-.95-.39-1.58-.55-.63-.16-1.25-.25-1.86-.25-2,0-3,.98-3,2.95Zm3.39-.56h1.97v2.22h-1.97v-2.22Z"/>
        <path d="m303.81,267.08c0,1.05.3,1.85.89,2.42.59.57,1.49.85,2.69.85.47,0,1.1-.04,1.88-.13.79-.09,1.61-.21,2.47-.36l.26,1.73c-.8.19-1.65.35-2.58.5s-1.75.22-2.48.22c-1.75,0-3.08-.47-4-1.4-.92-.94-1.38-2.26-1.38-3.98,0-1.58.41-2.77,1.22-3.57s2.02-1.21,3.63-1.21c.78,0,1.51.08,2.2.25.69.16,1.23.35,1.64.57v-5.81c0-1.5-.76-2.25-2.27-2.25-.7,0-2.33.12-4.87.37l-.07-1.57c.86-.2,1.81-.38,2.86-.53,1.05-.15,1.91-.22,2.6-.22,1.23,0,2.2.3,2.9.9s1.05,1.62,1.05,3.05v7.98h-2.2c-.42-.2-.95-.39-1.58-.55-.63-.16-1.25-.25-1.86-.25-2,0-3,.98-3,2.95Z"/>
        <path d="m303.81,306.69c0,1.05.3,1.85.89,2.42.59.57,1.49.85,2.69.85.47,0,1.1-.04,1.88-.13.79-.09,1.61-.21,2.47-.36l.26,1.73c-.8.19-1.65.35-2.58.5s-1.75.22-2.48.22c-1.75,0-3.08-.47-4-1.4-.92-.94-1.38-2.26-1.38-3.98,0-1.58.41-2.77,1.22-3.57s2.02-1.21,3.63-1.21c.78,0,1.51.08,2.2.25.69.16,1.23.35,1.64.57v-5.81c0-1.5-.76-2.25-2.27-2.25-.7,0-2.33.12-4.87.37l-.07-1.57c.86-.2,1.81-.38,2.86-.53,1.05-.15,1.91-.22,2.6-.22,1.23,0,2.2.3,2.9.9s1.05,1.62,1.05,3.05v7.98h-2.2c-.42-.2-.95-.39-1.58-.55-.63-.16-1.25-.25-1.86-.25-2,0-3,.98-3,2.95Zm2.43-18.33h2.13v2.29h-2.13v-2.29Z"/>
      </g>
      <g>
        <path d="m232.13,18.56c.13,1.03.2,1.76.2,2.18v6.51h-4.82c-.51,0-1.01-.09-1.49-.26s-.86-.37-1.16-.61c-.62.58-1.4.87-2.34.87h-2.15v.94c0,.78-.24,1.54-.71,2.28-.48.74-1.22,1.36-2.24,1.85-1.01.49-2.29.74-3.82.74-1.7,0-3.04-.3-4.03-.89-.98-.59-1.66-1.3-2.04-2.13-.37-.83-.56-1.65-.56-2.46,0-1.06.34-3.35,1.03-6.86l2.97.16c-.64,3.37-.96,5.45-.96,6.23,0,.47.12.94.35,1.4.23.47.62.86,1.16,1.18.54.32,1.23.48,2.07.48.76,0,1.42-.13,1.97-.4.55-.27.96-.62,1.24-1.06s.42-.92.42-1.42v-10.58h3.14v7.68h1.08c.59,0,1.05-.24,1.37-.71.32-.48.48-1.09.48-1.84v-5.13h3.14v5.13c0,.8-.08,1.51-.23,2.13.14.11.32.21.55.29s.46.13.69.13h1.76v-3.21c0-1-.02-1.85-.05-2.54-.03-.69-.1-1.7-.21-3.01l2.74-.12c.17,1,.32,2.01.46,3.04Z"/>
        <path d="m221.72,55.45c.91.54,1.64,1.4,2.19,2.59s.82,2.71.82,4.56v4.26h-9.78v-1.99h7.58v-2.15c0-2.22-.43-3.78-1.29-4.69-.86-.91-1.86-1.37-3.02-1.37h-2.04l-.16-1.66c.23-.08.62-.16,1.15-.23.53-.08,1.03-.12,1.5-.12,1.12,0,2.14.27,3.05.81Z"/>
        <path d="m221.72,95.06c.91.54,1.64,1.4,2.19,2.59s.82,2.71.82,4.56v4.26h-9.78v-1.99h7.58v-2.15c0-2.22-.43-3.78-1.29-4.69-.86-.91-1.86-1.37-3.02-1.37h-2.04l-.16-1.66c.23-.08.62-.16,1.15-.23.53-.08,1.03-.12,1.5-.12,1.12,0,2.14.27,3.05.81Zm-5-5.4h2.13v2.29h-2.13v-2.29Z"/>
        <path d="m217.8,151.86c-.21-.02-.39-.03-.55-.05l-.49-.05v-1.97c.72.06,1.15.09,1.31.09.69,0,1.21-.28,1.56-.83.35-.55.53-1.32.53-2.31v-12.38h2.2v11.94c0,3.71-1.29,5.57-3.86,5.57-.25,0-.48,0-.69-.02Z"/>
        <path d="m217.8,191.48c-.21-.02-.39-.03-.55-.05l-.49-.05v-1.97c.72.06,1.15.09,1.31.09.69,0,1.21-.28,1.56-.83.35-.55.53-1.32.53-2.31v-12.38h2.2v11.94c0,3.71-1.29,5.57-3.86,5.57-.25,0-.48,0-.69-.02Zm2.38-21.96h2.13v2.29h-2.13v-2.29Z"/>
        <path d="m231.6,216.47c.14,1.02.21,1.8.21,2.33v6.51h-4.49c-.95,0-1.83-.31-2.62-.94-.58.62-1.33.94-2.25.94h-2.65v.94c0,.95-.26,1.8-.78,2.54s-1.25,1.31-2.19,1.72c-.94.41-2.01.61-3.21.61-1.31,0-2.44-.24-3.39-.71-.95-.48-1.67-1.11-2.17-1.9-.49-.79-.74-1.64-.74-2.54,0-1,.32-3.36.96-7.09l2.13.12c-.61,3.48-.91,5.67-.91,6.58,0,.64.17,1.23.5,1.78.34.55.81.98,1.43,1.29.62.31,1.32.47,2.12.47.75,0,1.43-.14,2.05-.43.62-.29,1.1-.68,1.45-1.18.35-.5.53-1.06.53-1.69v-11.03h2.22v8.54h1.92c.69,0,1.19-.29,1.51-.87.32-.58.48-1.3.48-2.18v-5.5h2.2v5.48c0,.91-.1,1.69-.3,2.36.22.19.49.35.81.49.32.14.64.21.95.21h2.25v-4.52c0-1.09-.12-2.8-.37-5.13l1.87-.07c.19.89.35,1.85.49,2.87Z"/>
        <path d="m231.6,256.09c.14,1.02.21,1.8.21,2.33v6.51h-4.49c-.95,0-1.83-.31-2.62-.94-.58.62-1.33.94-2.25.94h-2.65v.94c0,.95-.26,1.8-.78,2.54s-1.25,1.31-2.19,1.72c-.94.41-2.01.61-3.21.61-1.31,0-2.44-.24-3.39-.71-.95-.48-1.67-1.11-2.17-1.9-.49-.79-.74-1.64-.74-2.54,0-1,.32-3.36.96-7.09l2.13.12c-.61,3.48-.91,5.67-.91,6.58,0,.64.17,1.23.5,1.78.34.55.81.98,1.43,1.29.62.31,1.32.47,2.12.47.75,0,1.43-.14,2.05-.43.62-.29,1.1-.68,1.45-1.18.35-.5.53-1.06.53-1.69v-11.03h2.22v8.54h1.92c.69,0,1.19-.29,1.51-.87.32-.58.48-1.3.48-2.18v-5.5h2.2v5.48c0,.91-.1,1.69-.3,2.36.22.19.49.35.81.49.32.14.64.21.95.21h2.25v-4.52c0-1.09-.12-2.8-.37-5.13l1.87-.07c.19.89.35,1.85.49,2.87Zm-9.36-7.27h1.99v2.22h-1.99v-2.22Zm1.59-2.97h1.92v2.13h-1.92v-2.13Zm1.54,2.97h1.97v2.22h-1.97v-2.22Z"/>
        <path d="m231.87,304.54h-11.96v.94c0,.95-.26,1.8-.78,2.54s-1.25,1.31-2.19,1.72c-.94.41-2,.61-3.18.61-1.31,0-2.44-.24-3.39-.71-.95-.48-1.68-1.1-2.18-1.88-.5-.78-.75-1.62-.75-2.5,0-1.03.32-3.41.96-7.14l2.13.12c-.22,1.36-.43,2.68-.62,3.98-.2,1.3-.29,2.16-.29,2.6,0,.64.17,1.23.52,1.78.34.55.82.98,1.44,1.3.62.32,1.31.48,2.09.48s1.43-.14,2.05-.43c.62-.29,1.1-.69,1.45-1.19.35-.51.53-1.07.53-1.7v-12.2h2.22v3.75c.7-.87,1.34-1.58,1.91-2.13.57-.55,1.24-.99,2-1.33s1.65-.52,2.65-.52c1.97,0,3.36.6,4.18,1.81.82,1.21,1.23,2.63,1.23,4.25v5.88Zm-11.96-5.15v3.16h9.74v-3.51c0-1.26-.3-2.32-.91-3.17-.61-.85-1.48-1.28-2.62-1.28-2.14,0-4.21,1.6-6.2,4.8Z"/>
      </g>
      <g>
        <path d="m137.82,15.54v10.25c0,2.48-.31,4.31-.92,5.49-.62,1.18-1.68,1.77-3.2,1.77-.47,0-1.26-.04-2.36-.11s-1.97-.15-2.57-.25v-2.83c.76.09,1.68.17,2.74.23,1.06.06,1.79.09,2.2.09.27,0,.48-.2.64-.61.16-.41.27-1.19.32-2.34h-2.48c-1.83,0-3.14-.5-3.94-1.49-.8-.99-1.21-2.43-1.21-4.32,0-2.31.53-3.96,1.6-4.94,1.07-.98,2.62-1.47,4.65-1.47,1.28,0,2.79.17,4.54.51Zm-7.48,7.78c.12.41.32.69.6.84.28.15.69.22,1.24.22h2.5v-6.44c-.5-.05-.97-.07-1.4-.07-.84,0-1.48.1-1.92.29-.44.2-.75.54-.92,1.04-.18.5-.27,1.24-.27,2.22,0,.84.06,1.47.18,1.88Z"/>
        <path d="m144.52,66.86h-11.96v.94c0,.95-.26,1.8-.78,2.54s-1.25,1.31-2.19,1.72c-.94.41-2,.61-3.18.61-1.31,0-2.44-.24-3.39-.71-.95-.48-1.68-1.1-2.18-1.88-.5-.78-.75-1.62-.75-2.5,0-1.03.32-3.41.96-7.14l2.13.12c-.22,1.36-.43,2.68-.62,3.98-.2,1.3-.29,2.16-.29,2.6,0,.64.17,1.23.52,1.78.34.55.82.98,1.44,1.3.62.32,1.31.48,2.09.48s1.43-.14,2.05-.43c.62-.29,1.1-.69,1.45-1.19.35-.51.53-1.07.53-1.7v-12.2h2.22v3.75c.7-.87,1.34-1.58,1.91-2.13.57-.55,1.24-.99,2-1.33s1.65-.52,2.65-.52c1.97,0,3.36.6,4.18,1.81.82,1.21,1.23,2.63,1.23,4.25v5.88Zm-11.96-5.15v3.16h9.74v-3.51c0-1.26-.3-2.32-.91-3.17-.61-.85-1.48-1.28-2.62-1.28-2.14,0-4.21,1.6-6.2,4.8Zm4-11.02h2.13v2.29h-2.13v-2.29Z"/>
        <path d="m138.55,96.35c.82,1.21,1.23,2.63,1.23,4.25v5.88h-15.43v-1.99h1.26v-14.68h2.2v8.71c.7-.87,1.34-1.58,1.91-2.13.57-.55,1.24-.99,2-1.33.76-.34,1.65-.52,2.65-.52,1.97,0,3.36.6,4.18,1.81Zm-10.73,4.97v3.16h9.76v-3.51c0-1.26-.3-2.32-.91-3.17-.61-.85-1.49-1.28-2.65-1.28-2.14,0-4.21,1.6-6.2,4.8Z"/>
        <path d="m138.55,135.96c.82,1.21,1.23,2.63,1.23,4.25v5.88h-15.43v-1.99h1.26v-14.68h2.2v8.71c.7-.87,1.34-1.58,1.91-2.13.57-.55,1.24-.99,2-1.33.76-.34,1.65-.52,2.65-.52,1.97,0,3.36.6,4.18,1.81Zm-10.73,4.97v3.16h9.76v-3.51c0-1.26-.3-2.32-.91-3.17-.61-.85-1.49-1.28-2.65-1.28-2.14,0-4.21,1.6-6.2,4.8Zm3.63-11.02h2.13v2.29h-2.13v-2.29Z"/>
        <path d="m135.06,191.01c.76-.08,1.55-.2,2.38-.35l.26,1.73c-.75.19-1.58.35-2.48.49-.91.14-1.72.21-2.43.21-1.75,0-3.08-.47-4-1.4-.92-.94-1.38-2.27-1.38-4,0-1,.19-1.89.57-2.67.38-.78,1.03-1.35,1.95-1.71-.34-.55-.6-1.16-.78-1.84-.18-.68-.27-1.39-.27-2.14,0-1.12.22-2.11.66-2.96.44-.85,1.05-1.5,1.83-1.95.78-.45,1.66-.68,2.65-.68.58,0,1.2.07,1.87.22.67.15,1.28.36,1.83.62l-.09,2.01c-.33-.19-.83-.37-1.5-.56s-1.3-.28-1.87-.28c-.95,0-1.71.31-2.27.94-.56.62-.84,1.54-.84,2.76,0,1.42.41,2.58,1.24,3.49.8.02,1.54.11,2.22.27.69.16,1.23.35,1.62.55v1.94c-.39-.2-.93-.39-1.63-.55-.69-.16-1.35-.25-1.98-.25-.95,0-1.69.24-2.2.73-.52.48-.77,1.23-.77,2.22s.29,1.85.88,2.42c.58.57,1.49.85,2.73.85.47,0,1.08-.04,1.84-.12Z"/>
        <path d="m135.06,230.62c.76-.08,1.55-.2,2.38-.35l.26,1.73c-.75.19-1.58.35-2.48.49-.91.14-1.72.21-2.43.21-1.75,0-3.08-.47-4-1.4-.92-.94-1.38-2.27-1.38-4,0-1,.19-1.89.57-2.67.38-.78,1.03-1.35,1.95-1.71-.34-.55-.6-1.16-.78-1.84-.18-.68-.27-1.39-.27-2.14,0-1.12.22-2.11.66-2.96.44-.85,1.05-1.5,1.83-1.95.78-.45,1.66-.68,2.65-.68.58,0,1.2.07,1.87.22.67.15,1.28.36,1.83.62l-.09,2.01c-.33-.19-.83-.37-1.5-.56s-1.3-.28-1.87-.28c-.95,0-1.71.31-2.27.94-.56.62-.84,1.54-.84,2.76,0,1.42.41,2.58,1.24,3.49.8.02,1.54.11,2.22.27.69.16,1.23.35,1.62.55v1.94c-.39-.2-.93-.39-1.63-.55-.69-.16-1.35-.25-1.98-.25-.95,0-1.69.24-2.2.73-.52.48-.77,1.23-.77,2.22s.29,1.85.88,2.42c.58.57,1.49.85,2.73.85.47,0,1.08-.04,1.84-.12Zm-2.59-21.49h2.13v2.29h-2.13v-2.29Z"/>
        <path d="m142.61,253.5v11.42h-14.3c-1.45,0-2.63-.12-3.52-.35-.9-.23-1.58-.64-2.04-1.23-.46-.58-.69-1.41-.69-2.47,0-.66.07-1.46.22-2.42.15-.96.32-1.86.53-2.7l2.15.44c-.2.84-.37,1.71-.49,2.59-.12.88-.19,1.58-.19,2.09,0,.58.1,1.01.3,1.3.2.29.58.49,1.14.6.55.11,1.42.16,2.59.16h4.87c-.31-.78-.47-1.94-.47-3.49s.17-2.79.5-3.67c.34-.89.9-1.54,1.71-1.94s1.92-.61,3.34-.61c1.06,0,2.51.09,4.35.28Zm-2.22,9.43v-7.63c-.78-.05-1.49-.07-2.13-.07-.95,0-1.65.1-2.11.3-.45.2-.77.6-.95,1.18-.18.59-.27,1.49-.27,2.73,0,1.09.05,1.87.16,2.34.11.47.31.78.61.92s.78.22,1.45.22h3.23Zm-3.16-14.19h2.13v2.29h-2.13v-2.29Z"/>
        <path d="m141.17,293.11v12.29c0,.98-.22,1.86-.66,2.65-.44.78-1.08,1.39-1.94,1.84-.86.44-1.89.67-3.09.67h-6.58c-1.2,0-2.23-.22-3.08-.67-.85-.44-1.49-1.06-1.92-1.84-.43-.78-.64-1.67-.64-2.67,0-1.3.3-3.57.89-6.84l2.18.33c-.25,1.36-.45,2.63-.61,3.83-.16,1.19-.23,2.09-.23,2.68,0,1.05.29,1.84.87,2.38.58.54,1.43.81,2.55.81h6.58c1.12,0,1.98-.27,2.57-.81.59-.54.89-1.32.89-2.35v-.87h-3.23c-1.12,0-2-.15-2.63-.44-.63-.3-1.09-.83-1.38-1.62-.29-.78-.43-1.92-.43-3.42s.17-2.79.5-3.67c.33-.89.9-1.54,1.71-1.94s1.92-.61,3.34-.61c1.06,0,2.51.09,4.35.28Zm-2.22,9.43v-7.63c-.78-.05-1.49-.07-2.13-.07-.95,0-1.65.1-2.11.3-.45.2-.77.6-.95,1.18-.18.59-.27,1.49-.27,2.73,0,1.09.05,1.87.16,2.34.11.47.31.78.61.92s.78.22,1.45.22h3.23Zm-4.49-14.16h2.13v2.29h-2.13v-2.29Zm3.28,0h2.11v2.29h-2.11v-2.29Z"/>
      </g>
      <g>
        <path d="m47.48,31.74c.73-.06,1.49-.16,2.27-.28l.33,2.43c-.78.2-1.62.38-2.53.53-.91.15-1.69.22-2.36.22-1.72,0-3.04-.5-3.98-1.51-.94-1.01-1.4-2.38-1.4-4.13,0-2.2.76-3.67,2.27-4.42-.58-1.11-.87-2.29-.87-3.53,0-1.37.29-2.49.88-3.36.58-.87,1.31-1.49,2.17-1.86.86-.37,1.71-.56,2.55-.56.47,0,1,.05,1.6.16s1.17.27,1.72.47l-.14,2.93c-1.2-.47-2.17-.7-2.9-.7s-1.35.23-1.91.7c-.55.47-.83,1.26-.83,2.36s.34,2.11,1.03,2.88c.59.02,1.2.07,1.83.18s1.09.21,1.4.32v2.69c-.36-.11-.87-.21-1.53-.32-.66-.1-1.21-.15-1.63-.15-.78,0-1.39.21-1.84.62-.44.41-.67,1.02-.67,1.81s.24,1.43.71,1.91c.48.48,1.2.71,2.17.71.37,0,.93-.03,1.66-.09Z"/>
        <path d="m52.2,50.19v16.67h-8.73c-1.44,0-2.61-.12-3.51-.35-.91-.23-1.59-.64-2.05-1.23-.46-.58-.69-1.4-.69-2.45,0-.98.19-2.47.59-4.45l1.83.09-.09.75c-.22,1.47-.33,2.5-.33,3.09,0,.91.3,1.56.9,1.95.6.4,1.68.6,3.24.6h6.62v-14.68h2.22Zm-5.15,7.49l-4.89.96-.23-.84,1.12-.3c-.28-.22-.49-.48-.63-.78-.14-.3-.21-.62-.21-.95,0-.59.21-1.11.63-1.54s.97-.66,1.64-.66c.59,0,1.17.19,1.73.56l-.26,1.05c-.09-.08-.23-.16-.42-.23-.19-.08-.39-.12-.61-.12-.39,0-.71.13-.96.39-.25.26-.37.57-.37.92,0,.44.19.8.56,1.08l2.62-.7.28,1.17Z"/>
        <path d="m50.86,89.8v17.42c0,1.03-.27,1.93-.81,2.69-.54.76-1.27,1.35-2.2,1.76-.93.41-1.96.61-3.1.61-1.2,0-2.29-.22-3.25-.67-.97-.44-1.73-1.06-2.28-1.84s-.83-1.65-.83-2.62c0-1.08.3-3.44.91-7.09l2.18.35c-.25,1.54-.46,2.94-.62,4.19-.16,1.25-.25,2.1-.25,2.55,0,.59.17,1.13.51,1.6s.83.85,1.46,1.12c.63.27,1.35.41,2.17.41,1.22,0,2.17-.28,2.86-.83.69-.55,1.03-1.3,1.03-2.24v-17.42h2.22Z"/>
        <path d="m49.84,135.57c.88.95,1.32,2.5,1.32,4.66v5.85h-7.56c-1.73,0-2.6,1.07-2.6,3.21,0,.5.04,1.03.12,1.59.08.56.21,1.4.4,2.53l.12.7h-2.18c-.45-2.12-.68-3.73-.68-4.82s.2-2.01.6-2.81.97-1.4,1.72-1.8c-.3-1.48-.44-2.93-.44-4.35,0-.98.07-1.98.21-2.98.14-1.01.3-1.85.47-2.52.42-.17,1-.33,1.74-.47.74-.14,1.54-.21,2.4-.21,2.03,0,3.48.48,4.37,1.43Zm-6.24,8.52h5.34v-3.86c0-1.12-.1-1.97-.29-2.54-.2-.57-.54-.97-1.03-1.19-.49-.23-1.21-.34-2.14-.34-.81,0-1.55.06-2.22.19-.25,1.47-.37,2.79-.37,3.98,0,.59.03,1.24.09,1.93.06.69.15,1.31.26,1.84h.37Z"/>
        <path d="m51.2,173.99v12.45c0,1.03-.27,1.93-.81,2.69-.54.76-1.27,1.35-2.2,1.76-.93.41-1.96.61-3.1.61-1.2,0-2.29-.22-3.25-.67-.97-.44-1.73-1.06-2.28-1.84s-.83-1.65-.83-2.62c0-1.08.3-3.44.91-7.09l2.18.35c-.25,1.54-.46,2.94-.62,4.19-.16,1.25-.25,2.1-.25,2.55,0,.59.17,1.13.51,1.6s.83.85,1.46,1.12c.63.27,1.35.41,2.17.41,1.22,0,2.17-.28,2.86-.83.69-.55,1.03-1.3,1.03-2.24v-12.45h2.22Zm-7.12-2.29h2.13v2.29h-2.13v-2.29Z"/>
        <path d="m32.76,224.3l.23-.98h6.32l.23.98-.23,1.01h-6.32l-.23-1.01Z"/>
        <path d="m52.03,213.18c1.16.56,2.08,1.44,2.76,2.65.68,1.2,1.02,2.71,1.02,4.54v4.94h-16.97l-.23-1.01.23-.98h2.86v-1.45c0-.78.2-1.51.6-2.19.4-.68.93-1.22,1.6-1.63.67-.41,1.41-.61,2.22-.61s1.55.2,2.22.6,1.2.94,1.59,1.62c.39.68.58,1.42.58,2.21v1.45h3.07v-2.93c0-2.25-.58-3.82-1.74-4.72-1.16-.9-2.58-1.35-4.25-1.35-1.08,0-2.78.21-5.1.63l-.16-1.73c2.22-.59,4.12-.89,5.71-.89,1.5,0,2.83.28,3.99.84Zm-7.48,6.93c-.42.44-.63.98-.63,1.62v1.59h4.4v-1.62c0-.62-.21-1.15-.63-1.59-.42-.44-.94-.66-1.57-.66s-1.15.22-1.57.66Z"/>
        <path d="m49.91,253.22v10.25c0,2.48-.31,4.31-.92,5.49-.62,1.18-1.68,1.77-3.19,1.77-.41,0-1.01-.04-1.8-.11s-1.52-.15-2.18-.25v-1.97c2.04.22,3.37.33,3.98.33s1.04-.28,1.33-.84c.3-.56.48-1.55.54-2.97h-3.11c-1.73,0-2.92-.53-3.56-1.59-.64-1.06-.96-2.47-.96-4.21,0-2.33.45-3.98,1.36-4.95.9-.98,2.29-1.46,4.17-1.46,1.19,0,2.64.17,4.35.51Zm-7.44,8.22c.14.55.37.93.7,1.16.33.23.79.34,1.38.34h3.14v-8.05c-.7-.12-1.41-.19-2.13-.19-.86,0-1.52.13-1.99.39-.47.26-.8.7-1.01,1.33-.2.63-.3,1.53-.3,2.7,0,1,.07,1.77.21,2.32Z"/>
        <path d="m39.22,309.72c-.98-.41-1.76-1.01-2.35-1.8-.59-.79-.89-1.71-.89-2.75,0-.94.2-2.61.61-5.01l2.08.33c-.31,2.15-.47,3.57-.47,4.26s.18,1.33.54,1.87c.36.55.85.97,1.46,1.28.62.3,1.3.46,2.05.46h6.25c1.05,0,1.83-.31,2.36-.94.53-.62.8-1.49.8-2.6,0-.78-.25-1.38-.75-1.8-.5-.42-1.37-.77-2.62-1.05-1.26-.3-2.25-.63-2.96-1-.71-.37-1.23-.84-1.56-1.42-.33-.58-.49-1.33-.49-2.25,0-1.48.45-2.6,1.35-3.35s2.21-1.12,3.94-1.12c.64,0,1.33.04,2.06.12.73.08,1.72.21,2.95.4l-.19,1.85c-2.26-.27-3.81-.4-4.63-.4-2.14,0-3.21.78-3.21,2.34,0,.58.12,1.03.36,1.36.24.33.62.59,1.14.8s1.33.44,2.43.73c1.11.28,1.98.61,2.61.98s1.09.85,1.38,1.44c.29.59.43,1.32.43,2.21,0,1.79-.46,3.19-1.37,4.19-.91,1-2.21,1.5-3.9,1.5h-6.27c-1.12,0-2.17-.21-3.15-.62Zm3.08,2.31h2.13v2.29h-2.13v-2.29Zm3.28,0h2.11v2.29h-2.11v-2.29Z"/>
      </g>
    </g>
  </g>
</svg>