<?xml version="1.0" encoding="utf-8"?>
<!-- Generator: Adobe Illustrator 27.5.0, SVG Export Plug-In . SVG Version: 6.00 Build 0)  -->
<svg version="1.1" id="Layer_1" xmlns="http://www.w3.org/2000/svg" xmlns:xlink="http://www.w3.org/1999/xlink" x="0px" y="0px"
	 viewBox="0 0 425 425" style="enable-background:new 0 0 425 425;" xml:space="preserve">
<style type="text/css">
	.st0{display:none;}
	.st1{fill:#FFFFFF;}
</style>
<g>
	<path class="st0" d="M-470.97-182.32h-237.11v-236.75h237.11V-182.32z M-674.68-301.24l56.16,56.53l28.26-28.63l-43.68-44.05
		v-24.23l-40.74,24.96v14.68h0.73L-674.68-301.24z M-590.62-222.69l20.19,19.45l20.19-19.82l-20.19-20.19l-20.19,20.19l-19.82-20.19
		l-19.82,20.19l19.82,19.82L-590.62-222.69z M-561.26-244.35l55.79-56.16l-33.77-34.14v-52.12l-40.74,24.96v43.31l17.99,17.99
		l-28.26,27.16L-561.26-244.35z"/>
	<path class="st0" d="M-194.58-182.32h-237.11v-237.11h237.11V-182.32z M-370.76-221.23h114.52v-159.3h-39.64v121.49h-37.07v-31.93
		h-37.81V-221.23z"/>
	<path class="st0" d="M81.81-182.32h-237.11v-237.11H81.81V-182.32z M-10.32-329.87l-84.79,84.79l28.26,27.9l84.42-84.79
		L-10.32-329.87z"/>
	<path class="st0" d="M358.19-182.32H121.08v-237.11h237.11V-182.32z M202.93-259.03h-42.95v37.81h159.3v-116.36H202.93V-259.03z
		 M258.72-390.8l-20.19,19.82l20.19,20.19l20.55-20.19L258.72-390.8z M241.1-259.03v-39.27h40.01v39.27H241.1z"/>
	<path d="M634.58-182.32H397.47v-237.11h237.11V-182.32z M543.55-218.29l56.16-56.16l-28.26-28.26l-27.9,27.53l-27.9-27.53
		l-27.9,27.53l-28.26-27.53l-28.26,28.26l56.53,56.16l27.9-27.9L543.55-218.29z M494.37-354.1l-19.82,19.82l19.82,20.55l20.55-20.55
		L494.37-354.1z M514.55-385.66l-18.72,19.09l18.72,19.09l18.72-19.09L514.55-385.66z M535.11-354.1l-20.19,19.82l20.19,20.55
		l20.55-20.55L535.11-354.1z"/>
</g>
<g id="Layer_2">
	<rect class="st1" width="425" height="425"/>
</g>
<g>
	<path d="M384.44,384.44H40.56V40.56h343.89V384.44z M252.42,332.27l81.45-81.45l-40.99-40.99l-40.46,39.93l-40.46-39.93
		l-40.46,39.93l-40.99-39.93l-40.99,40.99l81.98,81.45l40.46-40.46L252.42,332.27z M181.09,135.31l-28.75,28.75l28.75,29.81
		l29.81-29.81L181.09,135.31z M210.37,89.53l-27.15,27.68l27.15,27.68l27.15-27.68L210.37,89.53z M240.18,135.31l-29.28,28.75
		l29.28,29.81l29.81-29.81L240.18,135.31z"/>
</g>
</svg>
